<?xml version="1.0" encoding="UTF-8"?>
<svg id="_Слой_1" data-name="Слой 1" xmlns="http://www.w3.org/2000/svg" viewBox="0 0 32 32">
  <defs>
    <style>
      .cls-1 {
        fill: #fff;
      }
    </style>
  </defs>
  <path class="cls-1" d="m18.92,20.99c3.5-.82,6.47-2.62,9.16-4.99-1.64-1.47-3.43-2.69-5.39-3.69.05-.07.07-.11.11-.15.26-.27.52-.53.78-.8.11-.11.21-.17.38-.08,1.63.88,3.15,1.92,4.56,3.11.37.31.72.65,1.07.99.42.41.42.81,0,1.22-1.02,1.01-2.14,1.89-3.32,2.69-2.18,1.49-4.52,2.6-7.1,3.19-1.77.4-3.56.47-5.36.18-.32-.05-.64-.11-.96-.18-.07-.02-.14-.07-.21-.11.04-.06.06-.14.11-.19.86-.86,1.72-1.72,2.58-2.58.99-.99,1.98-1.97,2.97-2.96.91-.91,1.81-1.82,2.72-2.72.05-.05.1-.09.16-.13.11-.09.17-.05.22.07,1.01,2.52.08,5.44-2.21,6.93-.09.06-.17.12-.25.18Z"/>
  <path class="cls-1" d="m3.9,15.99c.33.28.61.52.89.76,1.36,1.09,2.78,2.08,4.36,2.84.15.07.19.13.05.26-.28.26-.54.53-.81.8-.11.11-.21.14-.36.05-1.66-.9-3.21-1.96-4.65-3.19-.33-.28-.64-.58-.95-.88-.45-.45-.46-.85.02-1.29.57-.52,1.15-1.04,1.75-1.53,1.58-1.27,3.29-2.33,5.15-3.16,1.62-.72,3.3-1.21,5.06-1.42,1.63-.19,3.24-.07,4.84.28.06.01.11.04.16.05l.05.08c-2.89,2.89-5.78,5.77-8.67,8.66-.03-.02-.07-.04-.1-.05-.57-1.32-.63-2.69-.18-4.06.46-1.37,1.3-2.45,2.56-3.2-3.5.82-6.45,2.64-9.18,4.99Z"/>
  <path class="cls-1" d="m7.02,25.76c-.31-.02-.55-.15-.69-.44-.14-.28-.16-.56.03-.82.18-.23.4-.44.61-.65,1.68-1.69,3.37-3.37,5.06-5.05,1.13-1.13,2.26-2.25,3.39-3.37,1.04-1.03,2.07-2.07,3.11-3.11,1.47-1.47,2.94-2.94,4.41-4.41.48-.48.97-.96,1.46-1.43.34-.33.85-.33,1.16,0,.32.33.32.85-.02,1.19-1.2,1.2-2.4,2.39-3.6,3.58-1.95,1.95-3.9,3.89-5.85,5.84-2.08,2.08-4.15,4.15-6.23,6.23-.72.72-1.45,1.45-2.18,2.17-.18.18-.39.29-.65.27Z"/>
</svg>