<?xml version="1.0" encoding="utf-8"?>
<!-- Generator: Adobe Illustrator 27.4.1, SVG Export Plug-In . SVG Version: 6.00 Build 0)  -->
<svg version="1.1" id="_Слой_1" xmlns="http://www.w3.org/2000/svg" xmlns:xlink="http://www.w3.org/1999/xlink" x="0px"
	 y="0px" viewBox="0 0 32 32" style="enable-background:new 0 0 32 32;" xml:space="preserve">
<style type="text/css">
	.st0{fill:#878787;}
</style>
<path class="st0" d="M5.7,16c0-3.4,0-6.7,0-10.1c0-1.8,1.3-3,3.1-3c3.8,0,7.6,0,11.3,0c0.3,0,0.6,0.1,0.9,0.3c1.7,1.5,3.4,3,5,4.5
	c0.3,0.2,0.4,0.5,0.4,0.9c0,5.8,0,11.7,0,17.6c0,1.7-1.3,3-3,3c-4.9,0-9.9,0-14.8,0c-1.7,0-2.9-1.3-2.9-3C5.7,22.8,5.7,19.4,5.7,16
	L5.7,16z M17.9,4.7c-0.1,0-0.3,0-0.4,0c-2.9,0-5.9,0-8.8,0C8,4.7,7.5,5.1,7.5,5.9c0,6.8,0,13.5,0,20.3c0,0.7,0.4,1.1,1.2,1.1
	c4.9,0,9.8,0,14.6,0c0.7,0,1.1-0.4,1.1-1.1c0-5.1,0-10.3,0-15.4c0-0.1,0-0.2,0-0.3c-1.2,0-2.4,0-3.6,0c-1.7,0-3-1.2-3-2.9
	C17.9,6.5,17.9,5.6,17.9,4.7L17.9,4.7z M24,8.5c-1.4-1.3-2.8-2.5-4.2-3.8c0,1,0,2,0,3c0,0.4,0.4,0.8,0.9,0.8
	C21.7,8.5,22.8,8.5,24,8.5z"/>
<path class="st0" d="M15.1,19.3c0-0.5,0-1,0-1.5c0-1.5,0-3,0-4.6c0-0.6,0.4-1,0.9-1c0.6,0,0.9,0.4,0.9,1c0,1.9,0,3.8,0,5.7v0.3
	c0,0,0,0,0.1,0c0.2-0.2,0.4-0.4,0.6-0.6c0.2-0.2,0.4-0.4,0.6-0.6c0.4-0.4,1-0.4,1.3,0c0.4,0.4,0.4,0.9,0,1.3
	c-0.3,0.3-0.6,0.6-0.9,0.9c-0.6,0.6-1.2,1.2-1.9,1.9c-0.5,0.5-1,0.5-1.5,0c-0.9-0.9-1.8-1.8-2.7-2.7c-0.4-0.4-0.4-1,0-1.3
	c0.4-0.4,0.9-0.4,1.4,0c0.1,0.1,0.2,0.2,0.3,0.3c0.3,0.3,0.6,0.5,0.8,0.8C15,19.3,15,19.3,15.1,19.3L15.1,19.3z"/>
</svg>
