<?xml version="1.0" encoding="UTF-8"?>
<svg id="_Слой_1" data-name="Слой 1" xmlns="http://www.w3.org/2000/svg" viewBox="0 0 32 32">
  <defs>
    <style>
      .cls-1 {
        fill: #fff;
      }
    </style>
  </defs>
  <path class="cls-1" d="m9.83,7.19h15.06v11.71c-.52,0-1.03,0-1.54,0-.18,0-.37,0-.55,0-.44,0-.65.22-.65.67,0,.49,0,.98,0,1.49h-5.48c0-.46,0-.92,0-1.38,0-.6-.18-.77-.78-.77-1.82,0-3.65,0-5.47,0-.34,0-.59-.26-.59-.6,0-3.61,0-7.22,0-10.84,0-.08,0-.17,0-.27Zm7.55,2.13c-1.56,0-3.12,0-4.68,0-.39,0-.65.23-.65.56,0,.33.26.55.65.56.03,0,.07,0,.1,0,3.04,0,6.09,0,9.13,0,.1,0,.19,0,.29-.01.32-.06.51-.34.45-.66-.05-.29-.28-.45-.64-.45-1.55,0-3.1,0-4.66,0Zm-.03,7.43c1.52,0,3.04,0,4.55,0,.09,0,.17,0,.26,0,.3-.02.52-.25.52-.55,0-.29-.22-.53-.52-.56-.08,0-.16,0-.24,0-3.04,0-6.09,0-9.13,0-.1,0-.19,0-.29,0-.25.03-.44.24-.47.49-.03.24.12.5.36.57.1.03.22.03.33.03,1.53,0,3.07,0,4.6,0Zm.03-4.26c-1.56,0-3.12,0-4.68,0-.27,0-.48.08-.6.33-.18.4.11.78.61.78,3.1,0,6.21,0,9.31,0,.06,0,.12,0,.18,0,.3-.04.5-.29.49-.58-.01-.32-.25-.52-.62-.52-1.56,0-3.12,0-4.68,0Z"/>
  <path class="cls-1" d="m10.51,28.29v-8.25h5.04c0,.24,0,.49,0,.74,0,.24,0,.49,0,.73,0,.46.21.67.67.67,1.87,0,3.74,0,5.6,0,.28,0,.56,0,.84,0,.37,0,.59-.21.6-.58,0-.51,0-1.03,0-1.56h5.04v8.25H10.51Z"/>
  <path class="cls-1" d="m6.49,3.71h15.05v2.35h-.3c-3.94,0-7.87,0-11.81,0-.55,0-.74.19-.74.74,0,3.37,0,6.74,0,10.1,0,.08,0,.16-.02.31-.28-.32-.52-.58-.76-.85-.44-.5-.88-.99-1.31-1.5-.07-.08-.12-.2-.12-.3,0-3.56,0-7.12,0-10.68,0-.05,0-.1.01-.18Z"/>
  <path class="cls-1" d="m3.72,13.29c.91,1.03,1.78,2.02,2.65,3.01.95,1.08,1.91,2.16,2.85,3.24.07.08.14.21.14.32,0,2.43,0,4.87,0,7.3,0,.04,0,.08-.01.17-.07-.06-.12-.1-.16-.14-1.78-2.02-3.57-4.04-5.35-6.07-.07-.08-.14-.21-.14-.32,0-2.45,0-4.9,0-7.36,0-.03,0-.06.02-.15Z"/>
  <path class="cls-1" d="m26.04,17.12c.53.6,1.03,1.16,1.55,1.75h-1.55v-1.75Z"/>
  <path class="cls-1" d="m4.39,12.36h.95v1.07c-.33-.37-.62-.7-.95-1.07Z"/>
</svg>