<?xml version="1.0" encoding="UTF-8"?>
<svg id="_Слой_1" data-name="Слой 1" xmlns="http://www.w3.org/2000/svg" viewBox="0 0 32 32">
  <defs>
    <style>
      .cls-1 {
        fill: #2c2c2c;
      }
    </style>
  </defs>
  <g>
    <path class="cls-1" d="m6.29,24.62s.04.03.05-.01c.13-.41.25-.83.39-1.24.23-.69.46-1.38.68-2.07.12-.36.23-.72.34-1.08.09-.28.24-.39.52-.4.54-.02,1.09-.04,1.63-.06.07,0,.14-.01.23-.02,0-.1,0-.2,0-.3-.01-.45-.02-.9-.05-1.35-.01-.23.07-.4.23-.56,2.11-2.1,4.22-4.21,6.33-6.32.93-.93,1.85-1.85,2.78-2.78.07-.07.14-.13.2-.2.04-.05.07-.03.11,0,1.2,1.2,2.4,2.4,3.6,3.59,0,0,.01.01.02.03-.02.02-.04.05-.07.07-1.89,1.89-3.78,3.78-5.67,5.67-1.25,1.25-2.5,2.51-3.76,3.76-.12.12-.26.15-.41.14-.49-.02-.98-.05-1.48-.07-.05,0-.11,0-.17,0,0,.15-.02.29-.03.44-.02.46-.04.93-.06,1.39-.01.29-.13.43-.41.52-1.33.43-2.66.86-3.99,1.3-.14.05-.28.1-.43.14-.29.08-.51-.06-.58-.36,0-.02-.01-.04-.02-.06,0-.06,0-.13,0-.19Zm2.12-.84s.08,0,.1-.02c.69-.23,1.37-.45,2.06-.68.25-.08.25-.08.26-.34.02-.63.05-1.26.08-1.89.01-.22.01-.22-.21-.21-.69.03-1.38.06-2.07.08-.06,0-.09.02-.1.08-.25.75-.49,1.49-.74,2.24,0,.03,0,.06,0,.1.03-.02.04-.02.04-.03.27-.27.54-.54.81-.82.04-.04.06-.11.08-.17.03-.09.04-.19.08-.27.15-.28.5-.42.8-.32.31.1.5.4.46.73-.04.32-.29.56-.62.59-.06,0-.12.03-.16.07-.17.16-.34.33-.51.5-.11.11-.21.22-.34.35Z"/>
    <path class="cls-1" d="m29.32,6.79c-.14-.15-.28-.29-.43-.45-1.63,1.63-3.25,3.25-4.88,4.87-1.23-1.23-2.45-2.45-3.69-3.7.1-.09.2-.18.3-.28,1.55-1.54,3.09-3.09,4.64-4.64.08-.08.15-.15.22-.23.22-.22.49-.23.71,0,.3.29.6.59.89.89,1.04,1.04,2.07,2.07,3.11,3.11.01.01.03.03.04.04.24.25.25.47,0,.72-.55.55-1.1,1.1-1.65,1.65-.6.6-1.21,1.21-1.81,1.81-.53.53-1.05,1.05-1.58,1.58-.15.15-.29.3-.45.45-.13.12-.3.15-.46.08-.17-.07-.28-.21-.28-.4,0-.15.07-.26.17-.36.25-.26.5-.52.76-.77.75-.74,1.49-1.48,2.24-2.23.68-.68,1.36-1.36,2.04-2.04.04-.04.07-.07.11-.1Z"/>
  </g>
  <path class="cls-1" d="m15.97,28.76c-3.2,0-6.39,0-9.59,0-.38,0-.77.02-1.14-.05-1.09-.22-1.85-.87-2.3-1.88-.18-.41-.23-.84-.23-1.28,0-3.94,0-7.88,0-11.82,0-2.46,0-4.92,0-7.37,0-1.37.91-2.65,2.34-3.01.31-.08.65-.1.97-.1,4.02,0,8.04,0,12.06,0,.15,0,.31,0,.46,0,.38.02.66.31.67.71.02.37-.25.68-.62.73-.1.01-.21.02-.31.02-4.15,0-8.3.01-12.45,0-.82,0-1.69.67-1.68,1.66,0,.67,0,1.34,0,2.02,0,5.65,0,11.3,0,16.94,0,.25,0,.51.05.75.16.71.79,1.21,1.52,1.24.07,0,.14,0,.21,0,6.74,0,13.48,0,20.22,0,.82,0,1.49-.56,1.62-1.37.02-.09.01-.19.01-.28,0-4.2,0-8.39,0-12.59,0-.41.32-.76.71-.77.43-.01.76.32.76.77,0,2.17,0,4.34,0,6.51,0,1.99,0,3.97,0,5.96,0,.85-.26,1.61-.83,2.23-.56.6-1.26.96-2.09.97-1.5.02-3.01,0-4.51,0-1.96,0-3.92,0-5.88,0Z"/>
</svg>