<?xml version="1.0" encoding="UTF-8"?>
<svg id="_Слой_1" data-name="Слой 1" xmlns="http://www.w3.org/2000/svg" viewBox="0 0 32 32">
  <defs>
    <style>
      .cls-1 {
        fill: #fff;
      }
    </style>
  </defs>
  <path class="cls-1" d="m6.95,15.97c0-1.99-.01-3.98,0-5.98.01-1.27.62-2.2,1.74-2.78.39-.2.81-.29,1.26-.29,4.02,0,8.04,0,12.05,0,1.41,0,2.65.97,2.98,2.41.05.2.06.42.06.63,0,4,0,7.99,0,11.99,0,1.4-.91,2.71-2.35,3.04-.21.05-.43.08-.65.08-4.03,0-8.07.01-12.1,0-1,0-1.82-.45-2.41-1.26-.4-.54-.58-1.15-.58-1.82,0-2.01,0-4.02,0-6.02Zm9.07,7.09c1.62,0,3.24,0,4.85,0,.4,0,.79,0,1.19,0,.57,0,.98-.5.98-1.01,0-4.01,0-8.01,0-12.02,0-.08,0-.17-.01-.24-.09-.51-.49-.85-1.01-.85-3.03,0-6.06,0-9.09,0-1,0-2,0-3.01,0-.45,0-.85.34-.92.78-.04.21-.03.43-.03.64,0,3.16,0,6.32,0,9.47,0,.74,0,1.48,0,2.22,0,.42.24.78.63.92.15.05.33.07.49.07,1.98,0,3.96,0,5.94,0Z"/>
  <path class="cls-1" d="m16.02,10.96c1.27,0,2.54,0,3.81,0,.32,0,.62.06.87.29.5.46.39,1.29-.22,1.6-.19.1-.4.13-.61.13-2.61,0-5.22,0-7.83,0-.41,0-.73-.17-.94-.53-.27-.48-.06-1.14.44-1.36.14-.06.29-.1.44-.1,1.04-.01,2.08-.01,3.12-.02.3,0,.61,0,.91,0h0Z"/>
  <path class="cls-1" d="m16.01,17.01c-1.29,0-2.58,0-3.87,0-.33,0-.63-.07-.87-.32-.26-.28-.36-.61-.24-.98.12-.38.39-.63.79-.7.14-.03.29-.03.43-.03,2.51,0,5.01,0,7.52,0,.21,0,.41,0,.61.08.38.15.65.55.64.96-.01.41-.3.8-.69.91-.16.05-.34.07-.51.07-1.27,0-2.54,0-3.81,0h0Z"/>
  <path class="cls-1" d="m13.94,21.04c-.57,0-1.13,0-1.7,0-.21,0-.41,0-.61-.08-.37-.15-.59-.42-.64-.82-.04-.39.11-.7.43-.93.18-.13.38-.19.59-.19,1.31,0,2.62,0,3.93,0,.5,0,.89.3,1.02.76.12.45-.11.95-.53,1.15-.18.08-.36.11-.55.11-.65,0-1.29,0-1.94,0Z"/>
</svg>