<?xml version="1.0" encoding="UTF-8"?>
<svg id="_Слой_1" data-name="Слой 1" xmlns="http://www.w3.org/2000/svg" viewBox="0 0 32 32">
  <defs>
    <style>
      .cls-1 {
        fill: #2c2c2c;
      }
    </style>
  </defs>
  <path class="cls-1" d="m17.05,30.32h-2.39c.16-.01.33-.03.49-.04-3.62-.23-6.73-1.62-9.28-4.19-2.55-2.56-3.95-5.67-4.14-9.32,0,.13-.01.25-.02.36,0,.09-.02.18-.03.28,0-.9,0-1.81,0-2.71,0,.08.02.15.03.23,0,.05,0,.1,0,.15,0,.05,0,.09.01.14.19-3.63,1.58-6.73,4.13-9.3,2.55-2.56,5.64-3.97,9.26-4.2-.12-.01-.23-.03-.35-.04.87,0,1.75,0,2.62,0-.08,0-.15.02-.23.02-.08,0-.15,0-.23.01,3.62.25,6.71,1.66,9.24,4.23,2.53,2.56,3.93,5.66,4.11,9.3.01-.1.02-.18.04-.26v1.88s-.02-.04-.03-.07c-.22,3.61-1.59,6.72-4.13,9.29-2.55,2.56-5.64,3.96-9.26,4.22.06.01.11.02.15.03Zm-1.14-1.79c6.87.05,12.44-5.39,12.62-12.19.19-7.05-5.45-12.83-12.45-12.88-6.86-.05-12.54,5.5-12.62,12.4-.08,6.93,5.48,12.63,12.44,12.67Z"/>
  <path class="cls-1" d="m15.1,11.03c0-1.62,0-3.24,0-4.85,0-.49.36-.88.83-.91.45-.04.87.3.95.77,0,.05,0,.1,0,.14,0,3.02,0,6.04,0,9.06,0,.16.06.21.19.27.76.32,1.52.63,2.27.96,1.04.44,2.07.89,3.1,1.34.17.08.34.18.47.3.33.32.3.89-.04,1.2-.3.28-.63.34-1.01.17-1.49-.64-2.98-1.28-4.47-1.92-.57-.24-1.14-.49-1.71-.72-.41-.17-.6-.49-.6-.92,0-1.54,0-3.09,0-4.63,0-.09,0-.17,0-.26Z"/>
  <path class="cls-1" d="m15.12,25.39c0-.2-.03-.4,0-.59.07-.45.46-.75.91-.74.41,0,.8.34.84.77.03.39.04.79,0,1.18-.05.46-.5.77-.94.72-.45-.04-.82-.45-.82-.9,0-.15,0-.3,0-.45,0,0,.01,0,.02,0Z"/>
  <path class="cls-1" d="m25.39,15.09c.23.02.46.01.67.06.43.11.71.52.67.94-.05.44-.41.79-.86.8-.36.01-.72.01-1.08-.02-.36-.03-.65-.35-.73-.74-.06-.32.12-.72.41-.89.18-.11.37-.15.58-.14.11,0,.22,0,.34,0,0,0,0-.01,0-.02Z"/>
  <path class="cls-1" d="m6.62,16.89c-.15,0-.3,0-.45,0-.5-.01-.91-.41-.91-.89,0-.49.4-.89.91-.9.3,0,.6,0,.89,0,.48,0,.89.44.88.92,0,.47-.42.87-.9.87-.14,0-.28,0-.42,0Z"/>
</svg>