<?xml version="1.0" encoding="utf-8"?>
<!-- Generator: Adobe Illustrator 27.4.1, SVG Export Plug-In . SVG Version: 6.00 Build 0)  -->
<svg version="1.1" id="_Слой_1" xmlns="http://www.w3.org/2000/svg" xmlns:xlink="http://www.w3.org/1999/xlink" x="0px"
	 y="0px" viewBox="0 0 32 32" style="enable-background:new 0 0 32 32;" xml:space="preserve">
<style type="text/css">
	.st0{fill:#878787;}
</style>
<path class="st0" d="M11.6,19.7c-2.5-1.8-3.9-4.1-3.8-7.2c0.1-2.2,1-4.1,2.6-5.5c3.3-3,8.4-2.8,11.5,0.5c1.7,1.8,2.4,4,2.1,6.4
	s-1.6,4.3-3.7,5.8c0.2,0.1,0.3,0.1,0.4,0.1c3.4,1.1,6.3,2.9,8.7,5.6c0.2,0.3,0.5,0.5,0.5,0.9c0,0.5-0.4,0.8-1.1,0.9
	c-0.1,0-0.2,0-0.3,0c-8.4,0-16.7,0-25.1,0c-0.2,0-0.5,0-0.7-0.1c-0.7-0.1-1-0.9-0.5-1.5c0.8-1,1.7-1.8,2.7-2.6
	c1.9-1.5,4.1-2.6,6.4-3.3C11.5,19.8,11.5,19.7,11.6,19.7L11.6,19.7z M13.6,11.8c-0.9,1.4-2.2,2.2-3.7,2.7c0.4,2.3,3.2,5.1,7.1,4.6
	c1.6-0.2,3-1.1,4-2.3c0.7-0.8,1-1.8,1.3-2.9C19,14.6,16.2,13.8,13.6,11.8L13.6,11.8z"/>
</svg>
