<?xml version="1.0" encoding="UTF-8"?>
<svg id="_Слой_1" data-name="Слой 1" xmlns="http://www.w3.org/2000/svg" viewBox="0 0 32 32">
  <defs>
    <style>
      .cls-1 {
        fill: #2c2c2c;
      }
    </style>
  </defs>
  <path class="cls-1" d="m15.99,22.85c-1.51,0-2.99-.24-4.45-.68-1.69-.51-3.27-1.25-4.76-2.16-1.14-.69-2.26-1.43-3.23-2.37-.25-.24-.53-.45-.78-.69-.22-.21-.43-.44-.63-.67-.04-.05-.04-.14-.03-.21.06-.41.29-.73.59-1,1.78-1.62,3.73-3,5.9-4.06,1.16-.57,2.36-1.04,3.62-1.37,1.5-.39,3.02-.56,4.57-.48,1.06.06,2.11.24,3.14.53,3.41.95,6.34,2.74,8.98,5.06.26.23.52.47.76.72.33.34.33.73,0,1.07-1.32,1.33-2.81,2.44-4.4,3.42-1.84,1.14-3.8,2.01-5.92,2.51-1.1.26-2.21.41-3.34.39Zm-2.93-11.89c-.47.13-.95.24-1.42.4-2.26.74-4.3,1.91-6.19,3.34-.51.38-1.01.78-1.5,1.18-.03.02-.02.16.01.19.53.47,1.07.94,1.61,1.4.15.12.35.18.51.29,1.76,1.25,3.64,2.26,5.7,2.92.41.13.84.23,1.26.35-3.79-2.33-3.81-7.73.02-10.07Zm5.85,10.07c.06-.01.13-.02.19-.04,1.31-.33,2.57-.81,3.77-1.41,1.73-.87,3.33-1.96,4.79-3.23.39-.34.4-.35.02-.68-2.42-2.08-5.11-3.69-8.21-4.56-.1-.03-.19-.05-.29-.07-.09-.02-.18-.03-.31-.06,1.87,1.21,2.89,2.86,2.88,5.04,0,2.17-1.03,3.82-2.84,5.01Zm-.85-5.03c0-1.14-.94-2.1-2.07-2.08-1.34.02-2.09,1.02-2.11,2.07-.02,1.14.94,2.11,2.08,2.11,1.18,0,2.1-.92,2.1-2.09Z"/>
</svg>