<?xml version="1.0" encoding="UTF-8"?>
<svg id="_Слой_1" data-name="Слой 1" xmlns="http://www.w3.org/2000/svg" viewBox="0 0 320 320">
  <defs>
    <style>
      .cls-1 {
        fill: #4caf50;
      }
    </style>
  </defs>
  <path class="cls-1" d="m151.62,249.85H57.9c-9.97,0-16.95-6.98-16.95-16.85v-127.71c0-9.87,6.38-16.45,16.25-16.65,1.69,0,3.39-.2,5.08,0,2.29.2,3.59-.8,4.89-2.69,2.79-4.09,5.58-8.08,8.77-11.86,2.39-2.89,5.88-3.79,9.57-3.89,9.27,0,18.64-.1,27.92,0,7.08.1,11.96,4.09,15.65,9.77,1.3,1.89,2.39,3.99,3.39,6.08.9,1.79,2.09,2.49,4.19,2.49h102.79c5.68,0,10.87,1.4,14.16,6.28,1.6,2.29,2.49,5.18,3.09,7.98.5,2.29.2,4.79.1,7.18,0,2.09.7,3.09,2.99,2.99,3.89-.1,7.78,0,11.66,0,4.89,0,8.27,3.89,7.48,8.67-1.5,8.87-2.99,17.75-4.59,26.62-1.99,10.97-3.99,21.93-5.98,33-2.09,11.86-4.29,23.83-6.38,35.69-1.3,7.48-2.59,15.05-3.89,22.53-1,5.98-5.88,10.27-12.16,10.27h-94.41l.1.1Zm-98.1-39.48s.4,0,.6.1c.6-3.09,1.2-6.08,1.69-9.17,2.09-11.76,4.09-23.53,6.18-35.29,2.59-14.46,5.18-28.81,7.78-43.27.8-4.59,3.39-7.88,7.78-9.27,2.39-.7,5.18-.6,7.78-.6h156.63c1.89,0,2.49-.7,2.49-2.39v-4.39c0-4.39-.8-5.18-5.28-5.18h-103.09c-6.78,0-11.27-2.89-14.26-8.67-1.2-2.19-2.49-4.39-3.89-6.58-1.3-1.99-2.99-3.09-5.58-3.09h-24.43c-2.19,0-3.99.7-5.18,2.49-1.89,2.69-3.69,5.48-5.58,8.27-2.29,3.39-5.08,6.28-9.27,7.08-1.99.4-4.19.4-6.18.4-8.67-.1-8.18.6-8.18,7.98v101.59Z"/>
</svg>