<?xml version="1.0" encoding="UTF-8"?>
<svg id="_Слой_1" data-name="Слой 1" xmlns="http://www.w3.org/2000/svg" viewBox="0 0 320 320">
  <defs>
    <style>
      .cls-1 {
        fill: #4caf50;
      }
    </style>
  </defs>
  <path class="cls-1" d="m62.28,276.24c-.18-.14-.33-.36-.54-.42-3.38-.98-5.54-3.75-5.64-7.28,0-.33,0-.67,0-1,0-48.55,0-97.11,0-145.66,0-.33,0-.66,0-1.06h14.89v140.54c.67,0,1.23,0,1.8,0,26.21,0,52.43-.01,78.64-.01.7,0,1.15,0,1.15-.98-.03-41.68-.04-83.36-.05-125.05,0-8.87,0-17.74,0-26.61,0-1.71,0-1.38,1.43-1.38,4.18,0,8.35,0,12.53,0,.57,0,.95.02.95.8-.04,13.53-.05,27.06-.05,40.59,0,36.35,0,72.71,0,109.06,0,.97,0,1.94-.05,2.9-.03.49.11.67.58.67.48,0,.97,0,1.45,0,26,0,52-.01,78.01-.02,1.54,0,1.54,0,1.54-1.55,0-14.92,0-29.85,0-44.77,0-30.63,0-61.27,0-91.9,0-.75,0-1.5,0-2.3h14.97v.95c0,48.46,0,96.92-.01,145.39,0,1.17-.02,2.39-.31,3.51-.65,2.51-2.32,4.18-4.77,5.06-.32.12-.6.34-.9.51H62.28Z"/>
  <path class="cls-1" d="m276.24,83.53c-.14.39-.28.78-.41,1.18-.91,2.87-3.74,5.08-6.77,5.21-1.69.07-3.39.01-5.08.01-69.8,0-139.61,0-209.41,0-1.12,0-2.24.05-3.36,0-3.36-.13-6.12-2.28-7.12-5.49-.08-.25-.22-.49-.33-.73,0-11.32,0-22.64,0-33.96.18-.29.43-.55.52-.86.59-1.93,1.77-3.34,3.59-4.19.78-.37,1.62-.63,2.43-.94,73.14,0,146.27,0,219.41,0,.21.1.42.23.64.28,2.74.64,4.54,2.31,5.46,4.96.09.27.29.5.43.75v33.78Zm-217.62-8.58h202.73c0-.38,0-.68,0-.98,0-4.36,0-8.72,0-13.08,0-2.25,0-2.24-2.27-2.24-58.57,0-117.14,0-175.71,0-7.9,0-15.8,0-23.7-.02-.83,0-1.07.23-1.06,1.07.04,4,.01,7.99.01,11.99,0,1.06,0,2.11,0,3.26Z"/>
  <path class="cls-1" d="m50.3,43.76c-.81.31-1.64.57-2.43.94-1.82.85-3,2.27-3.59,4.19-.1.31-.35.58-.52.86,0-2,0-4,0-5.99,2.18,0,4.36,0,6.54,0Z"/>
  <path class="cls-1" d="m276.24,49.75c-.15-.25-.34-.48-.43-.75-.92-2.65-2.72-4.32-5.46-4.96-.22-.05-.43-.19-.64-.28,2.16,0,4.33,0,6.54,0v5.99Z"/>
  <path class="cls-1" d="m207.86,166.9c-7.44,0-14.89.03-22.33-.01-3.42-.02-6.23-2-7.25-5.04-.3-.9-.39-1.9-.39-2.85-.02-14.65-.02-29.29,0-43.94,0-4.48,3.25-7.68,7.77-7.69,8.2-.02,16.4,0,24.6,0,6.51,0,13.01,0,19.52.01,2.56,0,4.62,1.03,6.2,3.03.99,1.26,1.51,2.69,1.52,4.28,0,14.89.03,29.78,0,44.66,0,4.44-3.22,7.57-7.66,7.58-7.32.02-14.65,0-21.97,0,0-.01,0-.02,0-.03Zm-15.11-14.95h30.32c.03-.15.06-.24.06-.33-.02-4.12-.04-8.23-.05-12.35-.01-5.27-.02-10.53,0-15.8,0-1.23.04-1.24-1.21-1.24-9.44,0-18.89-.01-28.33-.01-.26,0-.52.04-.78.06v29.66Z"/>
  <path class="cls-1" d="m82.04,137.22c0-7.41-.03-14.83.01-22.24.02-3.39,1.93-6.03,5.11-7.18.78-.28,1.65-.43,2.48-.43,14.71-.02,29.41-.02,44.12,0,4.67,0,7.85,3.13,7.86,7.78.03,14.74.04,29.47.01,44.21,0,4.37-3.22,7.58-7.59,7.58-14.52.02-29.05,0-43.57,0-1.69,0-3.32-.24-4.79-1.12-2.17-1.29-3.5-3.18-3.62-5.72-.12-2.45-.05-4.9-.06-7.35,0-5.17,0-10.35,0-15.52.01,0,.02,0,.03,0Zm14.88-14.95v29.69h30.3v-29.69h-30.3Z"/>
  <path class="cls-1" d="m82.04,213.52c0-7.39-.02-14.77,0-22.16.01-4.31,3.33-7.54,7.63-7.53,14.65,0,29.3,0,43.95,0,4.76,0,8,3.21,8,7.94,0,14.41,0,28.82,0,43.23,0,1.55-.07,3.07-.86,4.48-1.65,2.96-4.28,4.04-7.49,4.04-7.23.01-14.47.01-21.7,0-7.2-.01-14.41-.03-21.61-.07-4.91-.03-7.95-3.11-7.95-8.05,0-7.3,0-14.59,0-21.89h.03Zm45.21,15.48c.01-.23.03-.37.03-.52-.02-4.48-.05-8.95-.05-13.43,0-5.23,0-10.46.04-15.7,0-.79-.48-.61-.91-.61-9.56,0-19.12,0-28.68-.02-.62,0-.83.13-.83.8.03,9.62.03,19.24.05,28.86,0,.2.04.39.06.61h30.29Z"/>
  <path class="cls-1" d="m256.34,111.84c-2.21,0-4.42-.03-6.62.02-.71.01-.86-.24-.85-.89.02-3.63.02-7.25-.02-10.88,0-.77.49-.72.97-.72,1.97,0,3.93,0,5.9,0,2.39,0,4.78.02,7.17-.01.79-.01,1.03.25,1.02,1.05-.04,3.48-.04,6.96,0,10.43,0,.8-.22,1.03-1.03,1-2.18-.06-4.35-.02-6.53-.02v.02Z"/>
  <path class="cls-1" d="m56.18,99.44c.43-.03.84-.08,1.26-.09,4.24,0,8.47,0,12.71-.02.76,0,.97.25.96,1.01-.03,3.54,0,7.08.03,10.62,0,.54-.13.88-.74.88-4.66-.02-9.32-.04-13.98-.06-.05,0-.11-.04-.23-.09v-12.25Z"/>
</svg>