<svg id="Слой_1" data-name="Слой 1" xmlns="http://www.w3.org/2000/svg" viewBox="0 0 35.23 60.17"><defs><style>.cls-1{fill:#1a912d;}</style></defs><title>logo</title><path class="cls-1" d="M31.67,62.14c-4.41-.89-8.68-4.51-12-10.19a40.24,40.24,0,0,1-5.42-17,28,28,0,0,1,4-16.51,19.49,19.49,0,0,1,7.57-7A51.89,51.89,0,0,1,31.47,9l1,2.81A49.9,49.9,0,0,0,27.23,14a17.15,17.15,0,0,0-5.62,4.59,28.08,28.08,0,0,0-3.73,8.21c-2,6.08-.13,16,4.34,23.64,2.9,4.94,6.47,8.06,10,8.78Z" transform="translate(-14.16 -2)"/><path class="cls-1" d="M31.63,62.17a1.49,1.49,0,0,1-.29-3c3.57-.72,7.13-3.84,10-8.79,4.47-7.61,6.3-17.55,4.34-23.63A27.89,27.89,0,0,0,42,18.59,17.19,17.19,0,0,0,36.36,14a49.92,49.92,0,0,0-5.23-2.17,1.49,1.49,0,0,1,1-2.81,52,52,0,0,1,5.67,2.36,19.06,19.06,0,0,1,6.5,5.36,28,28,0,0,1,3.89,7.89c1.86,6,1.42,12.17-.32,18.13a40.63,40.63,0,0,1-3.92,9.18c-3.34,5.69-7.61,9.31-12,10.19A1.28,1.28,0,0,1,31.63,62.17Z" transform="translate(-14.16 -2)"/><path class="cls-1" d="M20.48,23.43A9.81,9.81,0,0,1,18,23.15l.75-2.89c4.89,1.27,15.68-3.64,17.54-7.21L39,14.43C36.61,18.93,26.85,23.43,20.48,23.43Z" transform="translate(-14.16 -2)"/><path class="cls-1" d="M46.92,32.18c-4.83-.7-18.42-5-19.46-12.49l3-.41c.63,4.59,10.62,9,16.94,9.95Z" transform="translate(-14.16 -2)"/><path class="cls-1" d="M15.44,39.37l-.36-3c6.83-.84,18.79-6.12,19.48-10.29l2.94.49C36.38,33.38,21.53,38.62,15.44,39.37Z" transform="translate(-14.16 -2)"/><path class="cls-1" d="M45.68,45.1c-5.18-.87-15.59-6.52-16.34-12.78l3-.36c.53,4.4,9.52,9.46,13.87,10.19Z" transform="translate(-14.16 -2)"/><path class="cls-1" d="M41.61,54c-3.43-.8-10.29-5.89-10.78-11.49l3-.26c.35,4.05,6.14,8.3,8.48,8.84Z" transform="translate(-14.16 -2)"/><path class="cls-1" d="M36.82,59.88c-2.34-.5-6.84-3.6-7.18-7.17l3-.28c.18,1.88,3.39,4.22,4.83,4.52Z" transform="translate(-14.16 -2)"/><path class="cls-1" d="M20.12,51,19.63,48c4.32-.72,13.23-5.72,13.76-10.06l3,.36C35.6,44.5,25.27,50.09,20.12,51Z" transform="translate(-14.16 -2)"/><path class="cls-1" d="M24.52,56.66l-.46-2.94c3-.48,8.58-3.61,8.88-6l3,.38C35.31,52.67,27.65,56.17,24.52,56.66Z" transform="translate(-14.16 -2)"/><path class="cls-1" d="M33,12.55l-3-.12c.4-6.88-7.64-5.44-8-5.48L22.51,2C26.34,2.45,33.47,5.23,33,12.55Z" transform="translate(-14.16 -2)"/></svg>