<?xml version="1.0" encoding="UTF-8"?>
<svg id="_Слой_1" data-name="Слой 1" xmlns="http://www.w3.org/2000/svg" viewBox="0 0 46.29 56.54">
  <defs>
    <style>
      .cls-1 {
        fill: #b2b2b2;
      }
    </style>
  </defs>
  <g>
    <path class="cls-1" d="m45.96,10.72c.21-.97.43-2.1.29-3.17-.1-.82-.41-1.65-.95-2.54-.27-.45-.83-1.13-1.07-1.42.35-1.58-.83-2.99-1.65-3.6l-.9,1.3c.07.06,1.79.68,1.64,1.96-.42-.07-.96-.14-1.32-.15-1.03-.02-1.91.12-2.67.45-.99.42-1.86,1.17-2.6,1.84-1.69,1.53-2.9,4.86-2.87,7.91.01,1.97.55,3.57,1.51,4.54.04.07.09.13.17.18.03.02.06.03.09.04,1.36.46,3.11.14,4.93-.9,2.66-1.51,4.93-4.22,5.41-6.45Zm-.65-3.05c.11.92-.08,1.96-.28,2.85-.05.23-.12.46-.21.7-1.37-1.19-2.92-3.34-2.89-4.71,1.12.1,2.21,0,2.93-.31.24.51.39,1,.45,1.48Zm-10.47,4.66c.08-.99.28-1.98.58-2.9,1.08.34,2.63.65,4.06.68-.05.52.04,1.1.23,1.69-.93.86-3.49.88-4.87.53Zm5.6-2.24c.67-.05,1.28-.19,1.75-.44.73,1.06,1.64,1.98,2.21,2.46-.47.84-1.15,1.69-1.96,2.46-.99-1.01-2.24-3.21-2.01-4.48Zm-.74-5.66c.64-.27,1.38-.39,2.28-.37.32,0,.83.08,1.22.14l.61.38h0c.2.24.42.54.59.78-1.17.47-3.97.21-5.32-.61.2-.12.41-.23.63-.32Zm-2.33,1.67c.28-.25.57-.51.88-.76.11.09.23.17.37.24.63.36,1.47.64,2.36.8-.05.78.25,1.65.71,2.47-1.18.58-4.05.3-5.93-.3.43-1.02.98-1.88,1.61-2.45Zm-2.56,7.2s0,0,0,0c.94.21,2.23.28,3.39.09-.03.29-.02.59.01.9l-.03-.02c-.44.58-2.33.58-3.29.27-.06-.39-.09-.8-.09-1.23Zm1.89,4.01c-.22-.01-.43-.05-.63-.11-.41-.4-.73-.96-.94-1.64.36.07.78.11,1.22.12-.04.54.12,1.13.35,1.63Zm1.04-.07c-.28-.43-.54-1.16-.43-1.62.41-.06.79-.17,1.11-.35.18.59.44,1.13.71,1.54-.48.2-.94.35-1.38.43Zm2.34-.9s-.06.03-.1.05c-.5-.72-1.07-2.23-.78-3.26.32-.11.61-.25.87-.42.45.97,1.09,1.88,1.67,2.48-.52.43-1.08.82-1.65,1.14Z"/>
    <path class="cls-1" d="m10.97,4.1c-.74-.67-1.61-1.42-2.6-1.84-.76-.32-1.64-.47-2.67-.45-.52.01-1.4.16-1.76.22C2.75.95.94,1.26,0,1.66l.67,1.43c.08-.04,1.49-1.21,2.52-.44-.26.33-.6.76-.79,1.07-.54.88-.85,1.71-.95,2.54-.13,1.07.08,2.2.29,3.17.48,2.23,2.76,4.94,5.42,6.45,1.72.97,3.37,1.31,4.69.97.08,0,.16-.01.24-.06.03-.02.05-.03.08-.06,1.08-.95,1.68-2.62,1.69-4.72.02-3.06-1.19-6.38-2.88-7.91Zm-2.97-.97c.86.36,1.65,1.05,2.33,1.67.17.16.34.34.5.53-1.72.59-4.36.86-5.53.15.64-.92,1.11-1.91,1.19-2.7.56.05,1.06.16,1.51.34Zm-1.2,11.4c-.82-.56-1.58-1.23-2.22-1.95.83-.76,1.88-1.95,2.62-3.18.43.31.97.51,1.57.65.27,1.24-.98,3.46-1.98,4.48Zm.86-5.96c.29-.61.48-1.2.49-1.74,1.29-.1,2.53-.43,3.24-.69.49.83.89,1.84,1.15,2.93-1.37.35-3.9.33-4.88-.5Zm-5.27-2.19c.09-.69.35-1.39.82-2.16.17-.28.48-.68.73-.99l.64-.33h0c.31-.05.68-.1.97-.12-.18,1.25-1.81,3.54-3.19,4.31,0-.24,0-.48.03-.7Zm.28,2.85c-.08-.36-.16-.75-.22-1.14.13-.06.26-.12.4-.2.63-.36,1.29-.96,1.87-1.64.65.44,1.55.6,2.49.62-.09,1.31-1.76,3.65-3.23,4.99-.66-.88-1.14-1.79-1.32-2.62Zm4.96,5.82s0,0,0,0c.65-.71,1.36-1.8,1.77-2.9.24.17.5.32.78.44h-.03c.28.69-.66,2.32-1.41,2.99-.36-.14-.73-.32-1.11-.54Zm4.42.37c-.12.18-.26.35-.41.49-.55.15-1.19.15-1.89,0,.24-.28.49-.62.71-.99.45.31,1.04.46,1.58.51Zm.46-.94c-.51.02-1.28-.11-1.62-.43.15-.39.25-.77.25-1.14.6.14,1.2.19,1.69.16-.06.52-.17.99-.32,1.41Zm.39-2.48s0,.07,0,.11c-.87.07-2.47-.19-3.21-.95.06-.33.09-.66.07-.96,1.07.09,2.17,0,2.98-.2.11.66.17,1.34.16,2Z"/>
  </g>
  <g>
    <path class="cls-1" d="m12.11,48.99c.21-.97.43-2.1.29-3.17-.1-.82-.41-1.65-.95-2.54-.27-.45-.83-1.13-1.07-1.42.35-1.58-.83-2.99-1.65-3.6l-.9,1.3c.07.06,1.79.68,1.64,1.96-.42-.07-.96-.14-1.32-.15-1.03-.02-1.91.12-2.67.45-.99.42-1.86,1.17-2.6,1.84C1.19,45.19-.02,48.52,0,51.57c.01,1.97.55,3.57,1.51,4.54.04.07.09.13.17.18.03.02.06.03.09.04,1.36.46,3.11.14,4.93-.9,2.66-1.51,4.93-4.22,5.41-6.45Zm-.65-3.05c.11.92-.08,1.96-.28,2.85-.05.23-.12.46-.21.7-1.37-1.19-2.92-3.34-2.89-4.71,1.12.1,2.21,0,2.93-.31.24.51.39,1,.45,1.48ZM.99,50.6c.08-.99.28-1.98.58-2.9,1.08.34,2.63.65,4.06.68-.05.52.04,1.1.23,1.69-.93.86-3.49.88-4.87.53Zm5.6-2.24c.67-.05,1.28-.19,1.75-.44.73,1.06,1.64,1.98,2.21,2.46-.47.84-1.15,1.69-1.96,2.46-.99-1.01-2.24-3.21-2.01-4.48Zm-.74-5.66c.64-.27,1.38-.39,2.28-.37.32,0,.83.08,1.22.14l.61.38h0c.2.24.42.54.59.78-1.17.47-3.97.21-5.32-.61.2-.12.41-.23.63-.32Zm-2.33,1.67c.28-.25.57-.51.88-.76.11.09.23.17.37.24.63.36,1.47.64,2.36.8-.05.78.25,1.65.71,2.47-1.18.58-4.05.3-5.93-.3.43-1.02.98-1.88,1.61-2.45Zm-2.56,7.2s0,0,0,0c.94.21,2.23.28,3.39.09-.03.29-.02.59.01.9l-.03-.02c-.44.58-2.33.58-3.29.27-.06-.39-.09-.8-.09-1.23Zm1.89,4.01c-.22-.01-.43-.05-.63-.11-.41-.4-.73-.96-.94-1.64.36.07.78.11,1.22.12-.04.54.12,1.13.35,1.63Zm1.04-.07c-.28-.43-.54-1.16-.43-1.62.41-.06.79-.17,1.11-.35.18.59.44,1.13.71,1.54-.48.2-.94.35-1.38.43Zm2.34-.9s-.06.03-.1.05c-.5-.72-1.07-2.23-.78-3.26.32-.11.61-.25.87-.42.45.97,1.09,1.88,1.67,2.48-.52.43-1.08.82-1.65,1.14Z"/>
    <path class="cls-1" d="m43.41,43.37c-.74-.67-1.61-1.42-2.6-1.84-.76-.32-1.64-.47-2.67-.45-.52.01-1.4.16-1.76.22-1.19-1.09-3-.78-3.94-.37l.67,1.43c.08-.04,1.49-1.21,2.52-.44-.26.33-.6.76-.79,1.07-.54.88-.85,1.71-.95,2.54-.13,1.07.08,2.2.29,3.17.48,2.23,2.76,4.94,5.42,6.45,1.72.97,3.37,1.31,4.69.97.08,0,.16-.01.24-.06.03-.02.05-.03.08-.06,1.08-.95,1.68-2.62,1.69-4.72.02-3.06-1.19-6.38-2.88-7.91Zm-2.97-.97c.86.36,1.65,1.05,2.33,1.67.17.16.34.34.5.53-1.72.59-4.36.86-5.53.15.64-.92,1.11-1.91,1.19-2.7.56.05,1.06.16,1.51.34Zm-1.2,11.4c-.82-.56-1.58-1.23-2.22-1.95.83-.76,1.88-1.95,2.62-3.18.43.31.97.51,1.57.65.27,1.24-.98,3.46-1.98,4.48Zm.86-5.96c.29-.61.48-1.2.49-1.74,1.29-.1,2.53-.43,3.24-.69.49.83.89,1.84,1.15,2.93-1.37.35-3.9.33-4.88-.5Zm-5.27-2.19c.09-.69.35-1.39.82-2.16.17-.28.48-.68.73-.99l.64-.33h0c.31-.05.68-.1.97-.12-.18,1.25-1.81,3.54-3.19,4.31,0-.24,0-.48.03-.7Zm.28,2.85c-.08-.36-.16-.75-.22-1.14.13-.06.26-.12.4-.2.63-.36,1.29-.96,1.87-1.64.65.44,1.55.6,2.49.62-.09,1.31-1.76,3.65-3.23,4.99-.66-.88-1.14-1.79-1.32-2.62Zm4.96,5.82s0,0,0,0c.65-.71,1.36-1.8,1.77-2.9.24.17.5.32.78.44h-.03c.28.69-.66,2.32-1.41,2.99-.36-.14-.73-.32-1.11-.54Zm4.42.37c-.12.18-.26.35-.41.49-.55.15-1.19.15-1.89,0,.24-.28.49-.62.71-.99.45.31,1.04.46,1.58.51Zm.46-.94c-.51.02-1.28-.11-1.62-.43.15-.39.25-.77.25-1.14.6.14,1.2.19,1.69.16-.06.52-.17.99-.32,1.41Zm.39-2.48s0,.07,0,.11c-.87.07-2.47-.19-3.21-.95.06-.33.09-.66.07-.96,1.07.09,2.17,0,2.98-.2.11.66.17,1.34.16,2Z"/>
  </g>
</svg>