<?xml version="1.0" encoding="utf-8"?>
<!-- Generator: Adobe Illustrator 21.0.0, SVG Export Plug-In . SVG Version: 6.00 Build 0)  -->
<svg version="1.1" id="Слой_1" xmlns="http://www.w3.org/2000/svg" xmlns:xlink="http://www.w3.org/1999/xlink" x="0px" y="0px"
	 viewBox="0 0 320 320" style="enable-background:new 0 0 320 320;" xml:space="preserve">
<style type="text/css">
	.st0{fill:#00910C;}
	.st1{fill:#FFFFFF;}
</style>
<g>
	<g>
		<path class="st0" d="M169.7,320c-6.5,0-13.1,0-19.6,0c-0.4-0.1-0.7-0.3-1.1-0.3c-14-0.9-27.7-3.6-40.9-8.2
			c-26.9-9.3-49.7-24.6-68.4-46C17.8,240.5,5,211.6,1.1,178.7c-0.4-2.9-0.7-5.8-1-8.7c0-6.7,0-13.3,0-20c0.1-0.3,0.3-0.6,0.3-0.9
			c0.7-5.9,1.1-11.9,2.2-17.7C9.1,95.6,26,65.3,53,40.9c24.9-22.4,54.1-35.7,87.4-39.8c3-0.4,5.9-0.7,8.9-1.1c7.2,0,14.4,0,21.5,0
			c0.3,0.1,0.6,0.3,0.9,0.3c10.9,0.7,21.5,2.5,31.9,5.6c35.1,10.2,63.7,29.9,85.3,59.3c23,31.4,33.1,66.7,30.7,105.5
			c-1.3,21-6.7,41-16,59.9c-13.2,26.7-32.4,48.1-57.4,64.3c-20.8,13.4-43.6,21.4-68.2,24.2C175.2,319.4,172.4,319.7,169.7,320z
			 M251.1,94.3c-61.1,0-121.6,0-182.5,0c0.7,0.8,1.1,1.3,1.6,1.7c8.9,8.9,17.9,17.8,26.9,26.7c18.3,18.2,36.6,36.4,54.9,54.7
			c3.4,3.4,5.5,3.4,9,0.2c27.6-25.5,55.2-51,82.8-76.4C246.1,99,248.4,96.8,251.1,94.3z M251.4,225.6c-0.6-0.7-1-1.2-1.4-1.6
			c-3.4-3.5-6.7-7-10.1-10.5c-15.3-15.9-30.5-31.8-45.8-47.7c-3.1-3.3-2.2-3.1-5.4-0.2c-7.2,6.6-14.3,13.2-21.5,19.8
			c-6.7,6.2-15.2,6.1-21.6-0.3c-4.7-4.7-9.4-9.4-14.2-14.1c-2.2-2.2-4.4-4.3-6.7-6.6c-18.8,20.4-37.5,40.6-56.6,61.2
			C129.6,225.6,190.3,225.6,251.4,225.6z M258.6,101.3c-0.6,0.5-0.9,0.7-1.2,0.9c-4.2,3.9-8.4,7.7-12.6,11.6
			c-14.8,13.7-29.6,27.4-44.5,41c-1.1,1.1-1.2,1.7-0.1,2.9c19,19.7,37.9,39.4,56.9,59.1c0.4,0.4,0.8,0.7,1.5,1.3
			C258.6,179.1,258.6,140.4,258.6,101.3z M61.3,217.6c0.2,0.2,0.5,0.3,0.7,0.5c0.3-0.5,0.5-1.1,0.9-1.5
			c17.8-19.3,35.7-38.6,53.5-57.8c1-1.1,1-1.7,0-2.6c-17.9-17.7-35.8-35.5-53.6-53.2c-0.4-0.4-0.8-0.6-1.5-1.1
			C61.3,140.6,61.3,179.1,61.3,217.6z"/>
		<path class="st1" d="M251.1,94.3c-2.7,2.5-5,4.7-7.4,6.8c-27.6,25.5-55.2,51-82.8,76.4c-3.5,3.2-5.6,3.2-9-0.2
			c-18.3-18.2-36.6-36.4-54.9-54.7c-8.9-8.9-17.9-17.8-26.9-26.7c-0.4-0.4-0.8-0.9-1.6-1.7C129.6,94.3,190.1,94.3,251.1,94.3z"/>
		<path class="st1" d="M251.4,225.6c-61.1,0-121.9,0-183.2,0c19.1-20.6,37.7-40.8,56.6-61.2c2.4,2.3,4.6,4.4,6.7,6.6
			c4.7,4.7,9.4,9.4,14.2,14.1c6.4,6.4,15,6.4,21.6,0.3c7.1-6.6,14.3-13.3,21.5-19.8c3.1-2.9,2.2-3,5.4,0.2
			c15.3,15.9,30.5,31.8,45.8,47.7c3.4,3.5,6.7,7,10.1,10.5C250.5,224.4,250.8,224.9,251.4,225.6z"/>
		<path class="st1" d="M258.6,101.3c0,39.1,0,77.8,0,116.9c-0.7-0.6-1.1-0.9-1.5-1.3c-19-19.7-37.9-39.4-56.9-59.1
			c-1.2-1.2-1.1-1.8,0.1-2.9c14.9-13.7,29.7-27.4,44.5-41c4.2-3.9,8.4-7.7,12.6-11.6C257.6,101.9,257.9,101.7,258.6,101.3z"/>
		<path class="st1" d="M61.3,217.6c0-38.5,0-76.9,0-115.8c0.7,0.5,1.1,0.8,1.5,1.1c17.9,17.7,35.7,35.5,53.6,53.2c1,1,1,1.6,0,2.6
			c-17.9,19.3-35.7,38.5-53.5,57.8c-0.4,0.4-0.6,1-0.9,1.5C61.8,217.9,61.6,217.7,61.3,217.6z"/>
	</g>
</g>
</svg>
