<?xml version="1.0" encoding="UTF-8"?>
<svg id="_Слой_1" data-name="Слой 1" xmlns="http://www.w3.org/2000/svg" viewBox="0 0 32 32">
  <defs>
    <style>
      .cls-1 {
        fill: #fff;
      }
    </style>
  </defs>
  <path class="cls-1" d="m15.16,25.01c-3.13,0-6.27,0-9.4,0-1,0-1.7-.7-1.7-1.69,0-4.27,0-8.54,0-12.81,0-.99.64-1.65,1.63-1.67.17,0,.34-.02.51,0,.23.02.36-.08.49-.27.28-.41.56-.81.88-1.19.24-.29.59-.38.96-.39.93,0,1.87-.01,2.8,0,.71.01,1.2.41,1.57.98.13.19.24.4.34.61.09.18.21.25.42.25,3.44,0,6.88,0,10.31,0,.57,0,1.09.14,1.42.63.16.23.25.52.31.8.05.23.02.48.01.72,0,.21.07.31.3.3.39-.01.78,0,1.17,0,.49,0,.83.39.75.87-.15.89-.3,1.78-.46,2.67-.2,1.1-.4,2.2-.6,3.31-.21,1.19-.43,2.39-.64,3.58-.13.75-.26,1.51-.39,2.26-.1.6-.59,1.03-1.22,1.03-3.16,0-6.32,0-9.47,0Zm-9.84-3.96s.04,0,.06.01c.06-.31.12-.61.17-.92.21-1.18.41-2.36.62-3.54.26-1.45.52-2.89.78-4.34.08-.46.34-.79.78-.93.24-.07.52-.06.78-.06,2.1,0,4.2,0,6.3,0,2.12,0,4.23,0,6.35,0,1.02,0,2.04,0,3.06,0,.19,0,.25-.07.25-.24,0-.15,0-.3,0-.44,0-.44-.08-.52-.53-.52-3.45,0-6.89,0-10.34,0-.68,0-1.13-.29-1.43-.87-.12-.22-.25-.44-.39-.66-.13-.2-.3-.31-.56-.31-.82,0-1.63,0-2.45,0-.22,0-.4.07-.52.25-.19.27-.37.55-.56.83-.23.34-.51.63-.93.71-.2.04-.42.04-.62.04-.87-.01-.82.06-.82.8,0,3.3,0,6.6,0,9.9,0,.09,0,.19,0,.28Z"/>
</svg>