<?xml version="1.0" encoding="utf-8"?>
<!-- Generator: Adobe Illustrator 27.4.1, SVG Export Plug-In . SVG Version: 6.00 Build 0)  -->
<svg version="1.1" id="_Слой_1" xmlns="http://www.w3.org/2000/svg" xmlns:xlink="http://www.w3.org/1999/xlink" x="0px"
	 y="0px" viewBox="0 0 320 320" style="enable-background:new 0 0 320 320;" xml:space="preserve">
<style type="text/css">
	.st0{fill:#4CAF50;}
</style>
<path class="st0" d="M151.1,190.2c-2.9,2.9-5.8,5.9-8.6,8.9c-0.4,0.4-0.5,1.5-0.2,2.1c2.4,6.1,1.1,11.3-3.4,15.9
	c-24.6,24.6-49.2,49.2-73.8,73.8c-6.6,6.6-14.4,6.7-21,0.1c-2.9-2.9-5.8-5.7-8.6-8.6c-5.6-5.7-5.7-13.9,0-19.7
	c24.9-25,49.9-49.9,74.8-74.8c4.5-4.4,9.7-5.5,15.6-3.3c0.7,0.3,1.9,0,2.4-0.4c2.9-2.7,5.7-5.5,8.6-8.4
	c-16.8-22.5-22.9-47.3-16.9-74.7c4.7-21.6,16.3-39.1,34.2-52.1c36.2-26.4,85.5-21.8,116.5,10.5c30.3,31.6,32.5,81.3,5.6,115.8
	C246,213.9,188.8,220.8,151.1,190.2z M275,120.7c0-38.2-30.6-68.7-68.8-68.7c-37.9,0-68.4,30.8-68.4,68.9
	c0,37.6,30.9,68.3,68.6,68.2C244.3,189.2,275,158.5,275,120.7z"/>
<path class="st0" d="M242.1,74.5c-0.3,4-4.4,6.1-8.1,3.8c-5-3.1-10.2-5.4-16-6.8c-23.1-5.5-47.2,6.1-57.2,27.6
	c-0.4,0.9-0.8,1.8-1.2,2.6c-1.4,2.7-4.2,3.8-6.8,2.6c-2.5-1.1-3.6-3.9-2.6-6.6c2.4-6.2,6-11.8,10.3-16.8
	c19.6-22.7,53.2-27.7,78.5-11.6C241.3,70.8,242.2,72.3,242.1,74.5z"/>
</svg>
