<?xml version="1.0" encoding="UTF-8"?>
<svg id="_Слой_1" data-name="Слой 1" xmlns="http://www.w3.org/2000/svg" viewBox="0 0 32 32">
  <defs>
    <style>
      .cls-1 {
        fill: #4caf50;
      }
    </style>
  </defs>
  <path class="cls-1" d="m11.77,30.22h-.37c-.61-.24-1.23-.48-1.84-.73-.59-.24-.87-.71-.95-1.32-.05-.34.07-.66.18-.98.3-.86.24-1.7-.18-2.51-.57-1.12-1.91-1.82-3.15-1.61-.33.06-.66.16-.98.26-.79.24-1.6-.1-1.93-.85-.27-.62-.51-1.25-.76-1.88,0-.11,0-.23,0-.34,0-.02.02-.05.03-.07.05-.37.2-.71.49-.95.23-.19.5-.34.77-.48,1.86-.95,2.27-3.44.8-4.93-.33-.33-.72-.55-1.14-.76-.27-.13-.52-.31-.66-.58-.12-.23-.19-.49-.28-.74,0-.12,0-.25,0-.37.26-.65.5-1.3.79-1.94.24-.53.7-.77,1.26-.84.36-.05.69.08,1.02.19.62.21,1.25.23,1.88.04,1.47-.44,2.39-1.84,2.19-3.36-.05-.36-.18-.72-.28-1.07-.23-.78.24-1.62.81-1.85.35-.14.69-.31,1.05-.45.27-.11.54-.22.82-.28.63-.15,1.35.21,1.68.8.21.38.39.78.69,1.11,1.32,1.46,3.64,1.35,4.8-.24.21-.29.35-.61.53-.92.39-.68,1.3-.95,1.88-.69.55.24,1.1.45,1.65.69.16.07.32.2.44.33.45.52.52,1.12.28,1.76-.27.71-.32,1.43-.08,2.16.39,1.23,1.56,2.1,2.85,2.13.51.01.98-.11,1.44-.28.81-.29,1.72.17,1.98.82.16.4.34.79.5,1.19.09.23.2.47.23.72.09.64-.27,1.29-.83,1.6-.3.16-.6.31-.88.51-.97.68-1.45,1.97-1.18,3.12.22.97.78,1.67,1.66,2.13.21.11.42.22.61.35.54.38.77,1.25.55,1.75-.24.54-.44,1.1-.68,1.64-.22.5-.64.75-1.15.86-.36.08-.7-.01-1.03-.13-.76-.28-1.53-.31-2.29.01-1.17.5-1.82,1.4-1.93,2.68-.05.55.1,1.06.28,1.57.29.84-.23,1.74-.84,1.97-.62.23-1.24.49-1.86.74h-.37s-.08-.02-.12-.03c-.45-.09-.82-.3-1.07-.7-.12-.19-.22-.38-.32-.58-.93-1.84-3.44-2.24-4.91-.79-.34.34-.57.74-.77,1.16-.18.36-.45.64-.82.8-.15.06-.31.1-.47.14Zm4.21-20.8c-3.64.02-6.59,2.97-6.58,6.58.01,3.69,2.97,6.63,6.66,6.6,3.65-.03,6.59-3.02,6.53-6.71-.06-3.57-2.97-6.48-6.61-6.48Z"/>
</svg>