<?xml version="1.0" encoding="UTF-8"?>
<svg id="_Слой_1" data-name="Слой 1" xmlns="http://www.w3.org/2000/svg" viewBox="0 0 32 32">
  <defs>
    <style>
      .cls-1 {
        fill: #2c2c2c;
      }
    </style>
  </defs>
  <path class="cls-1" d="m7.33,21.8c-.24-.15-.48-.29-.71-.44-1.31-.85-2.42-1.89-3.28-3.19-.91-1.38-1.34-2.9-1.26-4.56.07-1.39.51-2.65,1.28-3.81.94-1.42,2.18-2.53,3.64-3.41,1.61-.96,3.35-1.6,5.18-1.97,1.78-.36,3.58-.44,5.39-.31,2.42.18,4.73.8,6.87,1.96,1.59.86,2.96,1.97,4.01,3.45.8,1.13,1.31,2.37,1.43,3.75.15,1.65-.21,3.2-1.07,4.62-.94,1.56-2.25,2.76-3.8,3.69-1.71,1.03-3.55,1.68-5.51,2.04-1.53.28-3.07.36-4.61.28-.35-.02-.69-.06-1.04-.08-.06,0-.14.02-.19.06-2.05,1.78-4.39,3-7.01,3.67-.58.15-1.17.25-1.76.35-.48.08-.79-.26-.83-.67-.03-.22.09-.42.24-.59.31-.35.61-.7.93-1.03.87-.91,1.48-1.96,1.88-3.15.08-.22.14-.45.22-.67Zm.88,3.17s.03,0,.05-.02c.81-.34,1.59-.76,2.34-1.23.87-.56,1.66-1.22,2.43-1.9.04-.04.12-.06.18-.06.61.05,1.22.14,1.83.17,1.82.11,3.62-.06,5.38-.55,1.62-.45,3.13-1.11,4.48-2.12.97-.73,1.79-1.58,2.37-2.66.57-1.06.78-2.19.61-3.38-.15-1.02-.58-1.93-1.21-2.74-.94-1.21-2.13-2.11-3.49-2.8-1.9-.96-3.92-1.47-6.04-1.6-1.45-.09-2.9-.02-4.33.26-1.72.33-3.35.91-4.85,1.83-1.17.71-2.2,1.6-2.94,2.76-1.18,1.84-1.28,3.75-.27,5.7.58,1.1,1.43,1.96,2.42,2.69.68.5,1.43.89,2.15,1.32.11.06.27.1.3.19.04.1-.04.24-.07.36-.2.7-.38,1.4-.62,2.08-.2.58-.48,1.14-.72,1.69Z"/>
  <g>
    <circle class="cls-1" cx="11.4" cy="16.56" r="1.16"/>
    <circle class="cls-1" cx="15.72" cy="16.56" r="1.16"/>
    <circle class="cls-1" cx="20.03" cy="16.56" r="1.16"/>
  </g>
</svg>