<?xml version="1.0" encoding="UTF-8"?>
<svg id="_Слой_1" data-name="Слой 1" xmlns="http://www.w3.org/2000/svg" viewBox="0 0 32 32">
  <defs>
    <style>
      .cls-1 {
        fill: #2c2c2c;
      }
    </style>
  </defs>
  <path class="cls-1" d="m5.66,16c0-3.37,0-6.73,0-10.1,0-1.79,1.26-3.05,3.05-3.05,3.78,0,7.56,0,11.34,0,.33,0,.6.1.85.33,1.68,1.51,3.36,3.03,5.04,4.53.28.25.41.55.41.93,0,5.85,0,11.7,0,17.56,0,1.67-1.28,2.97-2.95,2.97-4.92,0-9.85,0-14.77,0-1.67,0-2.95-1.3-2.95-2.97,0-3.4,0-6.79,0-10.19Zm12.22-11.28c-.15,0-.26,0-.38,0-2.94,0-5.87,0-8.81,0-.72,0-1.15.43-1.15,1.15,0,6.75,0,13.51,0,20.26,0,.72.43,1.15,1.15,1.15,4.88,0,9.75,0,14.63,0,.72,0,1.15-.43,1.15-1.15,0-5.15,0-10.3,0-15.45,0-.1,0-.21,0-.32-1.24,0-2.43,0-3.63,0-1.74,0-2.95-1.21-2.95-2.95,0-.88,0-1.76,0-2.69Zm6.12,3.76c-1.43-1.29-2.81-2.52-4.23-3.8,0,1.04-.02,2.01,0,2.97.01.45.42.82.88.83,1.09.01,2.17,0,3.35,0Z"/>
  <path class="cls-1" d="m15.06,19.32c0-.52,0-1.01,0-1.5,0-1.52,0-3.03,0-4.55,0-.6.38-1.03.93-1.03.56,0,.95.42.95,1.04,0,1.9,0,3.8,0,5.7v.32s.04.03.06.04c.18-.19.37-.39.56-.58.2-.2.4-.41.6-.6.39-.37.95-.37,1.32-.01.38.37.39.94,0,1.34-.28.3-.58.58-.87.87-.62.62-1.24,1.25-1.87,1.87-.49.48-1,.48-1.49,0-.91-.91-1.82-1.81-2.72-2.72-.39-.4-.4-.96-.03-1.34.38-.39.95-.38,1.36.01.09.09.18.18.27.27.28.28.55.55.83.83.01.01.03.02.09.04Z"/>
</svg>