<?xml version="1.0" encoding="UTF-8"?>
<svg id="_Слой_1" data-name="Слой 1" xmlns="http://www.w3.org/2000/svg" viewBox="0 0 32 32">
  <defs>
    <style>
      .cls-1 {
        fill: #2c2c2c;
      }
    </style>
  </defs>
  <path class="cls-1" d="m11.64,19.71c-2.54-1.75-3.89-4.13-3.77-7.2.08-2.2,1.01-4.05,2.64-5.55,3.3-3.03,8.38-2.82,11.5.52,1.69,1.81,2.38,4,2.06,6.45-.32,2.45-1.61,4.34-3.69,5.76.16.06.26.1.37.13,3.41,1.06,6.31,2.93,8.73,5.55.25.26.5.53.46.93-.04.5-.43.81-1.08.86-.11,0-.21,0-.32,0-8.36,0-16.73,0-25.09,0-.22,0-.45-.02-.66-.06-.72-.15-.98-.89-.5-1.45.82-.95,1.74-1.79,2.73-2.57,1.92-1.5,4.06-2.59,6.4-3.3.06-.02.12-.04.22-.08Zm2-7.94c-.93,1.35-2.18,2.25-3.72,2.73.45,2.31,3.21,5.13,7.06,4.56,1.63-.24,2.96-1.06,4.01-2.32.7-.83,1.05-1.82,1.27-2.95-3.25.82-6.06.01-8.63-2.03Z"/>
</svg>