<?xml version="1.0" encoding="UTF-8"?>
<svg id="_Слой_1" data-name="Слой 1" xmlns="http://www.w3.org/2000/svg" viewBox="0 0 32 32">
  <defs>
    <style>
      .cls-1 {
        fill: #fff;
      }
    </style>
  </defs>
  <path class="cls-1" d="m11.48,11.3c-.43-.08-.83-.16-1.23-.24-.14-.03-.29-.03-.42-.08-.22-.08-.35.01-.49.15-.64.63-1.29,1.25-1.92,1.88-.35.35-.74.56-1.26.49-.59-.09-1.09-.74-1.02-1.33.04-.36.19-.63.44-.88.87-.84,1.74-1.68,2.59-2.53.38-.38.79-.53,1.33-.41.94.2,1.88.36,2.83.53.3.06.61.08.89.18.39.14.76.32,1.14.5.55.27,1.1.53,1.63.85.36.22.67.51,1,.78.46.37.91.76,1.37,1.13.04.04.11.06.16.06.74,0,1.48,0,2.23,0,.02,0,.04-.01.08-.02v-7.47c.1,0,.17,0,.25,0,2.46,0,4.91,0,7.37,0,.19,0,.22.08.22.24-.01,3.28-.02,6.57-.02,9.85,0,3.84,0,7.69,0,11.53,0,.23,0,.46,0,.7-.11,0-.2.01-.29.01-2.41,0-4.83,0-7.24.01q-.26,0-.26-.26c0-3.12,0-6.23,0-9.35,0-.11,0-.21,0-.33.08,0,.14-.01.2-.01.72,0,1.43,0,2.15,0,.15,0,.2.05.2.2,0,.49,0,.98,0,1.48,0,.15-.04.36.14.4.11.03.28-.08.37-.17,1-.98,1.99-1.98,2.98-2.97.09-.09.08-.15,0-.23-1.01-1-2.02-2.01-3.03-3.01-.06-.06-.13-.11-.2-.13-.14-.05-.23.03-.24.16-.02.19-.02.38-.02.56,0,.4,0,.8,0,1.19,0,.14-.05.17-.18.17-1.79-.02-3.59-.03-5.38-.05-.29,0-.51-.17-.72-.34-.58-.47-1.16-.95-1.73-1.43-.02-.02-.04-.03-.09-.06-.05.08-.1.15-.14.22-.7,1.32-1.39,2.64-2.1,3.96-.08.15-.06.21.09.29,1.36.74,2.71,1.49,4.07,2.24.16.09.21.15.15.35-.52,1.76-1.02,3.53-1.53,5.3-.11.4-.24.79-.36,1.19-.17.52-.57.79-1.09.83-.49.03-.9-.18-1.17-.62-.19-.32-.2-.65-.1-.99.42-1.5.84-2.99,1.27-4.49.04-.16.02-.23-.13-.31-1.51-.84-3.01-1.68-4.51-2.52-.55-.31-.82-.78-.85-1.41-.03-.67.2-1.25.5-1.82.68-1.29,1.36-2.58,2.04-3.87.01-.02.02-.05.06-.11Z"/>
  <path class="cls-1" d="m8.24,18.8c.51.76,1.36,1.02,2.04,1.53-.19.41-.38.82-.57,1.23-.2.44-.41.87-.61,1.31-.06.13-.14.17-.28.18-.61.06-1.21.14-1.82.21-.41.05-.82.09-1.22.13-.32.03-.64.06-.96.1-.66.1-1.27-.27-1.44-.94-.14-.53.07-1.16.64-1.4.29-.12.62-.16.94-.2.74-.1,1.48-.17,2.22-.25.15-.02.2-.1.26-.22.23-.5.46-1,.7-1.5.02-.05.06-.1.1-.19Z"/>
  <path class="cls-1" d="m16.16,8.73c-1.09.13-2.12-.91-2.12-2.03,0-1.14.79-2.12,2.05-2.15,1.24-.03,2.1.86,2.17,1.99.08,1.15-.87,2.3-2.1,2.19Z"/>
</svg>