<?xml version="1.0" encoding="utf-8"?>
<!-- Generator: Adobe Illustrator 27.4.1, SVG Export Plug-In . SVG Version: 6.00 Build 0)  -->
<svg version="1.1" id="Слой_1" xmlns="http://www.w3.org/2000/svg" xmlns:xlink="http://www.w3.org/1999/xlink" x="0px" y="0px"
	 viewBox="0 0 85 85" style="enable-background:new 0 0 85 85;" xml:space="preserve">
<style type="text/css">
	.st0{fill:url(#SVGID_1_);}
	.st1{fill:url(#SVGID_00000166647803605414682220000017827613966255884183_);}
	.st2{fill:url(#SVGID_00000111872675830113367580000010478803460944045196_);}
	.st3{fill:url(#SVGID_00000170975867568169686680000007506145291555556794_);}
	.st4{fill:url(#SVGID_00000163063645656168747700000012745829179126450869_);}
	.st5{fill:url(#SVGID_00000075142038264012689690000011910730311010106273_);}
	.st6{fill:url(#SVGID_00000106867605544380145740000007143712591479344294_);}
	.st7{fill:url(#SVGID_00000093157592354579374480000009283243935364646042_);}
	.st8{fill:url(#SVGID_00000109745860074279748700000006615144030530864513_);}
	.st9{fill:url(#SVGID_00000095339492451397414540000005377106576194798755_);}
	.st10{fill:url(#SVGID_00000000203070513313751580000009337117180591198121_);}
	.st11{fill:url(#SVGID_00000142156888267403342040000007594777775082182066_);}
	.st12{fill:url(#SVGID_00000162353268292281359140000003513127445698501815_);}
	.st13{fill:url(#SVGID_00000110463394057717492150000009463907950947524495_);}
	.st14{fill:url(#SVGID_00000127756414870728313310000017627734379019470750_);}
	.st15{fill:url(#SVGID_00000093864270892190194650000015538552724914055046_);}
	.st16{fill:url(#SVGID_00000165222190774570448050000012192365809899109020_);}
	.st17{fill:url(#SVGID_00000094617837244431613120000014370432818653558924_);}
	.st18{fill:url(#SVGID_00000055690992629784536170000018364942031335512452_);}
	.st19{fill:url(#SVGID_00000097492512268874547410000008532920359864236991_);}
	.st20{fill:url(#SVGID_00000047040920330863779250000002861628084963827083_);}
	.st21{fill:url(#SVGID_00000089566742568315821710000007774802666070020534_);}
	.st22{fill:url(#SVGID_00000007387016872390205700000015248925065132065675_);}
	.st23{fill:url(#SVGID_00000049208044148963005450000014541123732283055262_);}
	.st24{fill:url(#SVGID_00000163792169914795690570000013958352641996914867_);}
	.st25{fill:url(#SVGID_00000122706181843158111950000013714614738789963435_);}
	.st26{fill:url(#SVGID_00000083069942257836478720000013030271433642224021_);}
	.st27{fill:url(#SVGID_00000063622547399265260200000015731164631217669802_);}
	.st28{fill:url(#SVGID_00000103230389073516340210000006730780649624449196_);}
	.st29{fill:url(#SVGID_00000058586544263502674410000011315072355799701166_);}
	.st30{fill:url(#SVGID_00000069394889342023047010000005044712059759451546_);}
	.st31{fill:url(#SVGID_00000020391592341890655090000000264419718845128583_);}
	.st32{fill:url(#SVGID_00000176037679433238279680000013026973837631882426_);}
	.st33{fill:url(#SVGID_00000116951079988329949780000002976007264299568800_);}
	.st34{fill:url(#SVGID_00000105406481940362221560000005670966814491579036_);}
	.st35{fill:url(#SVGID_00000145021651447244573140000007360223311914643616_);}
	.st36{fill:url(#SVGID_00000173129563852910369840000013966112642602103681_);}
	.st37{fill:url(#SVGID_00000086687844274753142950000016847518254477689234_);}
	.st38{fill:url(#SVGID_00000167361897792582531880000004813799453994657678_);}
	.st39{fill:url(#SVGID_00000013151749242001385740000018118926047024120716_);}
	.st40{fill:url(#SVGID_00000056405803874258362830000016518343451215168156_);}
	.st41{fill:url(#SVGID_00000161596266182528889600000007606811453045133501_);}
	.st42{fill:url(#SVGID_00000182526954407201827120000002778101699012324025_);}
	.st43{fill:url(#SVGID_00000141427821573617790600000001110859792974971570_);}
	.st44{fill:url(#SVGID_00000145036254074197401080000003744908020015109040_);}
	.st45{fill:#FFFFFF;}
</style>
<g>
	<path class="st45" d="M12.2,76.5c0.8-4.1,1.3-7.5,2.1-10.9c0.5-2,0.2-3.5-0.9-5.2C5.2,47.1,7,29.8,17.9,18.7
		C27.1,9.4,38.4,6.3,51,9.5C63.4,12.6,71.7,20.7,75.2,33c3.9,13.7,0.4,25.8-10.4,35.2c-10.9,9.5-23.4,11-36.6,5.3
		c-2.2-1-4-1.2-6.2-0.3C19,74.4,15.9,75.3,12.2,76.5z M22.5,64.9c1.2-0.4,1.9-0.5,2.5-0.8c3.6-1.6,6.9-1.8,10.9-0.3
		c8.8,3.4,18.7-0.3,24.5-8c5.6-7.5,6-17.7,0.9-25.6c-5.2-8-14.9-12-24-9.8c-14.6,3.5-21.8,19.5-14.6,32.8c0.9,1.7,1.4,3.3,0.8,5.2
		C23.1,60.4,23,62.4,22.5,64.9z"/>
	<path class="st45" d="M27.6,59.2c0.9-3.2-0.5-5.5-1.9-8c-4.3-8-2.1-18.1,5-23.6c7.3-5.7,17.7-5.3,24.5,0.9
		c6.8,6.1,8.2,16.4,3.2,24.3c-4.9,7.7-14.8,10.9-23.3,7.1C32.6,58.8,30.4,57.9,27.6,59.2z M45.8,48.1c-4.5-1.3-7.2-4-9.3-7.7
		c3.1-2.2,1.7-4.7,0.5-7.1c-1.2-2.6-3.3-2.8-5.2-0.7c-1.9,2.2-2.1,5.6-0.2,8.8c2.1,3.7,4.8,7,8.5,9.1c2.4,1.4,5.1,2.2,7.8,3
		c2.2,0.6,4.2-0.4,5.6-2c1.7-2,1.4-3.5-0.9-4.7c-1.3-0.7-2.7-1.2-4.4-2C47.4,46,46.5,47.1,45.8,48.1z"/>
</g>
</svg>
