<?xml version="1.0" encoding="utf-8"?>
<!-- Generator: Adobe Illustrator 27.4.1, SVG Export Plug-In . SVG Version: 6.00 Build 0)  -->
<svg version="1.1" id="Слой_1" xmlns="http://www.w3.org/2000/svg" xmlns:xlink="http://www.w3.org/1999/xlink" x="0px" y="0px"
	 viewBox="0 0 85 85" style="enable-background:new 0 0 85 85;" xml:space="preserve">
<style type="text/css">
	.st0{fill:url(#SVGID_1_);}
	.st1{fill:url(#SVGID_00000010278867029772303880000013045906236114764210_);}
	.st2{fill:url(#SVGID_00000044176101503953777120000012916566493481789628_);}
	.st3{fill:url(#SVGID_00000082367877280238318790000013112229495931381937_);}
	.st4{fill:url(#SVGID_00000137128696161612663460000006971541108902548877_);}
	.st5{fill:url(#SVGID_00000034797047702120962190000005184528713236999322_);}
	.st6{fill:url(#SVGID_00000093858387646686407700000013110802542768406159_);}
	.st7{fill:url(#SVGID_00000129914907646052845370000013051947018842468490_);}
	.st8{fill:url(#SVGID_00000059284059598348499530000015702749172433323945_);}
	.st9{fill:url(#SVGID_00000004504553548634318240000011447329221403463577_);}
	.st10{fill:url(#SVGID_00000091737555112224679650000014904110062052454051_);}
	.st11{fill:url(#SVGID_00000122711501977686544800000001015647900875747457_);}
	.st12{fill:url(#SVGID_00000148636681651166975080000013979434654127485588_);}
	.st13{fill:url(#SVGID_00000151522765053060065700000016467797788121952950_);}
	.st14{fill:url(#SVGID_00000174585109094664531290000010170692994925859500_);}
	.st15{fill:url(#SVGID_00000176019661496421688350000011136155551266307201_);}
	.st16{fill:url(#SVGID_00000008851998326011532880000008290746357697415611_);}
	.st17{fill:url(#SVGID_00000175315956087116640180000015803839017684028074_);}
	.st18{fill:url(#SVGID_00000000936667814090488910000004032027828960933561_);}
	.st19{fill:url(#SVGID_00000135691625927871032490000009185632441376214921_);}
	.st20{fill:url(#SVGID_00000140704006715875436510000016263381474378027937_);}
	.st21{fill:url(#SVGID_00000048461785741041267320000018018920650714273982_);}
	.st22{fill:url(#SVGID_00000039100371541845690510000010905780837130425244_);}
	.st23{fill:url(#SVGID_00000164494667766794243090000007811143967420961459_);}
	.st24{fill:url(#SVGID_00000129197132547934989080000001052712969055232691_);}
	.st25{fill:url(#SVGID_00000158711239485306777670000003796967077726033813_);}
	.st26{fill:url(#SVGID_00000048482963200846691560000007548299787263110065_);}
	.st27{fill:url(#SVGID_00000181798412954206806340000011538960808472793763_);}
	.st28{fill:url(#SVGID_00000145752299499678286340000005444489661567750813_);}
	.st29{fill:url(#SVGID_00000114779191535341189020000009073264213517705109_);}
	.st30{fill:url(#SVGID_00000121978783213316572220000014365625570822641559_);}
	.st31{fill:url(#SVGID_00000126283821727826784790000001509566472976702633_);}
	.st32{fill:url(#SVGID_00000042736496506942154700000013844546185912205997_);}
	.st33{fill:url(#SVGID_00000166649058893407100760000014574651552346675092_);}
	.st34{fill:url(#SVGID_00000158026375579882285420000003294175457550704262_);}
	.st35{fill:url(#SVGID_00000105403220656319828530000012173862163458434998_);}
	.st36{fill:url(#SVGID_00000022519053545916355560000004659365757519898293_);}
	.st37{fill:url(#SVGID_00000026125311972452411800000007737924804601411986_);}
	.st38{fill:url(#SVGID_00000013913644090673618970000008148015102941083830_);}
	.st39{fill:url(#SVGID_00000127003094969264558860000001214777614512197307_);}
	.st40{fill:url(#SVGID_00000077322830676255022010000015406758587825763775_);}
	.st41{fill:url(#SVGID_00000150796404837998557840000008805989447038213539_);}
	.st42{fill:url(#SVGID_00000029758008057566410410000004585063886669324164_);}
	.st43{fill:url(#SVGID_00000087372714547316857940000007963002163322010033_);}
	.st44{fill:url(#SVGID_00000032622358403721124390000000441361470193379231_);}
	.st45{fill:#FFFFFF;}
</style>
<path class="st45" d="M23.9,79.3c0-5.5,0-10.1,0-14.8c-1-0.4-1.8-0.8-2.6-1.1c-6.6-2.3-10.8-6.8-12.6-12.9c-2.9-10-2.7-20,0.3-30
	c1.9-6.2,6.3-10.5,13-12.4c3.9-1.2,8-2.3,12.1-2.4c7.5-0.2,15-0.2,22.4,0.8c13.9,1.9,19.6,7.8,21.3,20.5c0.9,7,0.7,14.1-0.7,21.1
	c-1.7,8.3-6.7,13.8-16,15.9c-6.8,1.5-13.7,2.4-20.7,2.1c-2.7-0.1-4.5,0.7-6.2,2.5C31.1,72.2,27.8,75.4,23.9,79.3z M55.2,58.5
	c4-0.6,6-3,7.9-5.6c1.3-1.8,1-3.5-0.8-4.8c-2.1-1.5-4.2-3.1-6.4-4.4c-3.6-2.1-4.8-2-7.4,1c-1.3,1.5-2.7,1.8-4.5,1.1
	c-4.5-1.6-7.9-4.5-10.3-8.3c-2.2-3.5-2-4.7,1.3-7.5c1.6-1.4,2.2-2.9,1-4.5c-1.9-2.6-3.9-5.3-6.2-7.6c-0.8-0.8-2.8-1.2-3.9-1
	c-5.5,1.3-7.8,5.7-5.7,10.5c6.2,14.2,17.1,24.2,32.5,30.3C53.4,58,54.5,58.3,55.2,58.5z M41.2,17.3c1.3,0.4,2,0.6,2.7,0.7
	c1.2,0.2,2.4,0.2,3.6,0.5c7.5,1.8,12.6,7.5,13.6,14.7c0.2,1.2-0.5,2.8,1.3,3.9C63.5,25.5,52.7,15.1,41.2,17.3z M56.9,34.8
	c0.7-3.9-0.8-7.2-3.9-9.9c-2.9-2.5-6.5-3.5-9.5-2.6C54.1,26.1,54.3,26.3,56.9,34.8z"/>
</svg>
