<?xml version="1.0" encoding="utf-8"?>
<!-- Generator: Adobe Illustrator 27.4.1, SVG Export Plug-In . SVG Version: 6.00 Build 0)  -->
<svg version="1.1" id="Слой_1" xmlns="http://www.w3.org/2000/svg" xmlns:xlink="http://www.w3.org/1999/xlink" x="0px" y="0px"
	 viewBox="0 0 85 85" style="enable-background:new 0 0 85 85;" xml:space="preserve">
<style type="text/css">
	.st0{fill:url(#SVGID_1_);}
	.st1{fill:url(#SVGID_00000033352410094899108470000004360628489741349272_);}
	.st2{fill:url(#SVGID_00000140701590875114113640000016928296405675890586_);}
	.st3{fill:url(#SVGID_00000029742066135715180900000000641946805070487481_);}
	.st4{fill:url(#SVGID_00000014601573289261320620000014816624669642956208_);}
	.st5{fill:url(#SVGID_00000143587672018499456170000017846527319183904389_);}
	.st6{fill:url(#SVGID_00000056404967559549503680000000200701257743631496_);}
	.st7{fill:url(#SVGID_00000010290237619076799240000018166502579175005628_);}
	.st8{fill:url(#SVGID_00000075141508203239849540000007670147769405832609_);}
	.st9{fill:url(#SVGID_00000083049526614899479410000011847643787592398213_);}
	.st10{fill:url(#SVGID_00000162333291393129714300000006168285988860314553_);}
	.st11{fill:url(#SVGID_00000037687021085085784590000003388935566461086890_);}
	.st12{fill:url(#SVGID_00000065036044088680196850000004441660359285166769_);}
	.st13{fill:url(#SVGID_00000170988890264718608120000001030170792395698616_);}
	.st14{fill:url(#SVGID_00000154385479399087787610000000344073634017805483_);}
	.st15{fill:url(#SVGID_00000074432321957569384400000012053729121167553959_);}
	.st16{fill:url(#SVGID_00000021091209369987007810000000597598798386945205_);}
	.st17{fill:url(#SVGID_00000028312400273510961140000009392308956110050489_);}
	.st18{fill:url(#SVGID_00000129168265197004196630000015554832490443919755_);}
	.st19{fill:url(#SVGID_00000010996555297672275600000001751895364753435044_);}
	.st20{fill:url(#SVGID_00000154395267335618314460000001665524097410051506_);}
	.st21{fill:url(#SVGID_00000101101987185970517950000011978364240331378850_);}
	.st22{fill:url(#SVGID_00000054982942029853792500000014441666688653045904_);}
	.st23{fill:url(#SVGID_00000092430617838661136370000014776790667556319678_);}
	.st24{fill:url(#SVGID_00000170967877305587503350000017363730458747499654_);}
	.st25{fill:url(#SVGID_00000094620468941722645680000005978482755671428497_);}
	.st26{fill:url(#SVGID_00000046309060499144334830000015275242865007847606_);}
	.st27{fill:url(#SVGID_00000060709455536226570200000005761670907294354098_);}
	.st28{fill:url(#SVGID_00000158004838709189852920000010886960502478275211_);}
	.st29{fill:url(#SVGID_00000068666452984457962620000007915459578345229471_);}
	.st30{fill:url(#SVGID_00000179648270388424918800000013181515030182223282_);}
	.st31{fill:url(#SVGID_00000044169579580133197190000010725645147211328180_);}
	.st32{fill:url(#SVGID_00000156557686039338316840000015288957999076621986_);}
	.st33{fill:url(#SVGID_00000152253632392984628580000011088155350716664718_);}
	.st34{fill:url(#SVGID_00000132784873219815911530000011982829379812690101_);}
	.st35{fill:url(#SVGID_00000019642646455486034910000002226579398807876226_);}
	.st36{fill:url(#SVGID_00000079458500956441966470000002788826033868578177_);}
	.st37{fill:url(#SVGID_00000101090366797951477690000014164606620668672703_);}
	.st38{fill:url(#SVGID_00000062151311992178978750000007192083395378840764_);}
	.st39{fill:url(#SVGID_00000144329510115778613130000014208342471630156454_);}
	.st40{fill:url(#SVGID_00000120527784804901676040000007925176472239645839_);}
	.st41{fill:url(#SVGID_00000024691297306277027140000002799781117729025169_);}
	.st42{fill:url(#SVGID_00000124127552988240742040000011232542483060158119_);}
	.st43{fill:url(#SVGID_00000103246061835833307640000014007928044866600367_);}
	.st44{fill:url(#SVGID_00000052818719616893352250000011843847971726999684_);}
	.st45{fill:#FFFFFF;}
</style>
<path class="st45" d="M42.6,8.3c6.4,0,12.7,0,19.1,0c8.9,0.1,15,6,15,14.9c0.1,12.8,0.1,25.7,0,38.5c-0.1,8.5-6,14.6-14.5,14.7
	c-13,0.2-26,0.2-38.9,0c-9.1-0.1-14.8-6-14.9-15.1c-0.1-12.6-0.2-25.2,0-37.8c0.1-9.5,6-15.2,15.5-15.3c0.3,0,0.5,0,0.8,0
	C30.7,8.3,36.6,8.3,42.6,8.3z M67.1,30.5c-2.1-0.8-9.5-1.5-10.3-0.6c-1.4,1.5-2.3,3.4-3.4,5.1c-1,1.7-2,3.4-3.1,5
	c-0.6,0.8-1.5,1.3-2.3,2c-0.4-0.6-0.8-0.9-0.8-1.3c-0.1-1.7-0.2-3.4-0.2-5.1c0.1-6,1.5-7.6-7.5-7.3c-1.7,0.1-3.7-0.3-4.8,1.7
	c3.1,2.6,3.6,7.9,1,12c-1-1.2-2.1-2.1-2.8-3.3c-1.4-2.2-2.5-4.7-3.8-6.9c-0.5-0.9-1.3-2.1-2-2.2c-2.9-0.3-6-0.9-9.2,0.7
	c3.5,8.1,7.2,15.8,13.7,21.7c3.5,3.2,7.7,4.4,12.5,4.1c1.9-0.1,2.9-0.7,3.1-2.7c0.1-1.3,0.8-2.5,1.5-4.2c1.5,1.3,2.6,1.9,3.2,2.8
	c3.3,5.1,8.2,4.6,13.2,4.1c2.2-0.2,2.8-1.4,1.6-3.3c-0.8-1.3-1.9-2.5-3-3.7c-5.5-5.6-5.5-4.2-0.7-10.8C64.5,36.2,66.7,34,67.1,30.5z
	"/>
</svg>
