<?xml version="1.0" encoding="utf-8"?>
<!-- Generator: Adobe Illustrator 27.4.1, SVG Export Plug-In . SVG Version: 6.00 Build 0)  -->
<svg version="1.1" id="_Слой_1" xmlns="http://www.w3.org/2000/svg" xmlns:xlink="http://www.w3.org/1999/xlink" x="0px"
	 y="0px" viewBox="0 0 351 351" style="enable-background:new 0 0 351 351;" xml:space="preserve">
<style type="text/css">
	.st0{fill:#FFFFFF;}
</style>
<path class="st0" d="M208.1,253.8c8.5-2,16.8-3.5,24.7-6c17.6-5.6,32.4-15.3,40.6-32.4c11.5-24.1,13.5-48.9,3.1-74
	c-1.8-4.3-4.4-8.2-7.1-12c-2.2-3.1-2.7-6.1-1.9-9.8c2.5-11.7,1.8-23.4-1.9-34.8c-1-3-2.7-4.2-5.8-4.2c-7.4,0.1-14.2,2.4-20.7,5.5
	c-6.6,3.1-12.9,6.8-19.3,10.2c-1.2,0.6-2.8,1.2-4,0.9c-8.5-2.5-17.1-3.5-25.9-3.7c-15.8-0.5-31.6-1.3-47.1,2.3
	c-6.5,1.5-11.6,0.8-17.1-2.8c-8.5-5.4-17.7-9.7-27.8-11.7c-0.6-0.1-1.1-0.2-1.7-0.3c-7.1-0.8-10.1,1-11.4,8.1c-2,10.9-2.8,22-0.2,33
	c0.3,1.5,0,3.3-0.5,4.8c-0.6,1.5-1.7,2.8-2.7,4.1c-6.7,8.4-10.6,17.8-11.2,28.6c-0.8,13.8-1.3,27.7,2.3,41.2
	c6.5,24.5,22.4,40.1,46.7,47.2c7.4,2.2,15.1,3.6,22.7,5.3c0.6,0.1,1.3,0.3,2.1,0.6c-0.5,0.8-0.9,1.5-1.2,2.1
	c-2.5,5-5.3,9.9-7.3,15.1c-1.5,3.9-3.4,6.6-7.8,7.1c-3.6,0.5-7.1,1.3-10.7,1.5c-8.2,0.5-15.7-1.6-21.6-7.7c-5-5.2-9.8-10.6-14.5-16
	c-4.8-5.5-10.3-9.7-17.6-11.3c-4.3-0.9-8.3-0.5-11.7,3.3c0.8,0.9,1.5,2,2.5,2.7c9.7,8.2,17.7,17.7,23.3,29.2
	c4.7,9.7,11.5,17.6,22.9,19.2c6.8,1,13.7,1.2,20.6,1.4c3.9,0.1,7.9-0.3,12.2-0.5c0,3.4,0,6.6,0,9.8c-0.1,6.6-0.4,13.2-0.2,19.9
	c0.2,6.5-5.7,10-11.5,8.1c-17.8-5.7-33.5-14.9-48.2-26.2c-34.2-26.4-55-61.1-62.8-103.5c-14-75.9,28.3-153.2,99.7-183.4
	c26.3-11.1,53.4-13.6,81.7-12c52.5,2.9,107.2,39.3,133,90.5c15.6,31.1,22,64,16.6,98.5c-10.2,65-46.7,109.6-107.4,134.6
	c-1.4,0.6-3,0.9-4.4,1.5c-4.4,2-7.7-0.5-10.9-2.9c-0.6-0.4-0.6-1.8-0.6-2.7c-0.4-20-0.7-40.1-1.1-60.1c0-1.7-0.6-3.4-1.3-4.9
	C213.3,262.8,210.7,258.4,208.1,253.8L208.1,253.8z"/>
</svg>
