<?xml version="1.0" encoding="utf-8"?>
<!-- Generator: Adobe Illustrator 27.4.1, SVG Export Plug-In . SVG Version: 6.00 Build 0)  -->
<svg version="1.1" id="Слой_1" xmlns="http://www.w3.org/2000/svg" xmlns:xlink="http://www.w3.org/1999/xlink" x="0px" y="0px"
	 viewBox="0 0 85 85" style="enable-background:new 0 0 85 85;" xml:space="preserve">
<style type="text/css">
	.st0{fill:url(#SVGID_1_);}
	.st1{fill:url(#SVGID_00000011002743600155215320000006987416870929101727_);}
	.st2{fill:url(#SVGID_00000014602451507492790880000011023245411356956566_);}
	.st3{fill:url(#SVGID_00000041285432346450642690000000355499217109548945_);}
	.st4{fill:url(#SVGID_00000157303222462223930620000009063118215676926603_);}
	.st5{fill:url(#SVGID_00000013164408597511213410000003206753509132643723_);}
	.st6{fill:url(#SVGID_00000089549477394393680210000010507118790837085091_);}
	.st7{fill:url(#SVGID_00000078025156697868364840000015508322289396639662_);}
	.st8{fill:url(#SVGID_00000096748429811888173130000004637512646648603831_);}
	.st9{fill:url(#SVGID_00000039828214393566261660000007905467906325319812_);}
	.st10{fill:url(#SVGID_00000000920531221344533180000006062027151270546851_);}
	.st11{fill:url(#SVGID_00000023993269881858485280000005161096615316360329_);}
	.st12{fill:url(#SVGID_00000028300631555777159360000009103865406479311008_);}
	.st13{fill:url(#SVGID_00000111183084287097617770000000070517898427871423_);}
	.st14{fill:url(#SVGID_00000141427253295232171910000009000454072098617511_);}
</style>
<linearGradient id="SVGID_1_" gradientUnits="userSpaceOnUse" x1="9.9374" y1="42.5197" x2="75.102" y2="42.5197">
	<stop  offset="0" style="stop-color:#6366F1"/>
	<stop  offset="1" style="stop-color:#8B5CF6"/>
</linearGradient>
<path class="st0" d="M42.5,70c-8.1,0-16.3,0-24.4,0c-4,0-7.1-2.5-7.9-6.3c-0.1-0.6-0.2-1.3-0.2-2c0-12.9,0-25.7,0-38.6
	c0-4.9,3.2-8.1,8.2-8.1c4.6,0,9.2,0,13.8,0c2.3,0,4,0.9,5.2,2.9c0.7,1.1,1.4,2.2,2.1,3.3c0.4,0.7,0.8,0.9,1.6,0.9
	c8.6,0,17.2,0,25.8,0c5.3,0,8.5,3.1,8.5,8.5c0,10.4,0,20.9,0,31.3c0,4.9-3.3,8.2-8.2,8.2C58.7,70,50.6,70,42.5,70z M42.4,64.6
	c8,0,16.1,0,24.1,0c2.2,0,3.2-1,3.2-3.2c0-10.2,0-20.4,0-30.6c0-2.5-0.9-3.4-3.4-3.4c-9.1,0-18.2,0-27.4,0c-1.4,0-2.4-0.5-3.1-1.7
	c-0.9-1.5-1.9-3-2.9-4.6c-0.4-0.6-0.9-0.9-1.7-0.9c-4.4,0-8.7,0-13.1,0.1c-2,0-3,1-3,3.1c0,12.6,0,25.2,0,37.8
	c0,2.5,0.9,3.4,3.4,3.4C26.6,64.6,34.5,64.6,42.4,64.6z"/>
</svg>
