<?xml version="1.0" encoding="utf-8"?>
<!-- Generator: Adobe Illustrator 27.4.1, SVG Export Plug-In . SVG Version: 6.00 Build 0)  -->
<svg version="1.1" id="Слой_1" xmlns="http://www.w3.org/2000/svg" xmlns:xlink="http://www.w3.org/1999/xlink" x="0px" y="0px"
	 viewBox="0 0 85 85" style="enable-background:new 0 0 85 85;" xml:space="preserve">
<style type="text/css">
	.st0{fill:url(#SVGID_1_);}
	.st1{fill:url(#SVGID_00000121259902556952953390000012961667094890037934_);}
	.st2{fill:url(#SVGID_00000103959414425367474790000016843977074945379983_);}
	.st3{fill:url(#SVGID_00000067235201099148365700000013376832264450217094_);}
	.st4{fill:url(#SVGID_00000041980601739967220320000006873598474537044353_);}
	.st5{fill:url(#SVGID_00000119811122538747561570000008863090384204439486_);}
	.st6{fill:url(#SVGID_00000039108745706284928470000016984808168892369577_);}
	.st7{fill:url(#SVGID_00000053530817659620409720000012597942237485014657_);}
	.st8{fill:url(#SVGID_00000163044552049081688720000005308815942831356088_);}
	.st9{fill:url(#SVGID_00000140724831136577301290000004810303889032328363_);}
	.st10{fill:url(#SVGID_00000127728890203689438150000001015366428547142565_);}
	.st11{fill:url(#SVGID_00000132794127562200650240000016153188458061239997_);}
	.st12{fill:url(#SVGID_00000134961573823042359060000015947095400774304899_);}
	.st13{fill:url(#SVGID_00000026875832956888489270000007557009771835571883_);}
	.st14{fill:url(#SVGID_00000031923692706021603120000007304262176905648050_);}
	.st15{fill:url(#SVGID_00000155844870442681427760000005523597379275298466_);}
	.st16{fill:url(#SVGID_00000112620587059214290970000013808418525815458222_);}
	.st17{fill:url(#SVGID_00000026873717943269738080000001968295033888776577_);}
	.st18{fill:url(#SVGID_00000124145110205850136540000014915707491510592905_);}
	.st19{fill:url(#SVGID_00000183223057086907338420000007937872871957399710_);}
	.st20{fill:url(#SVGID_00000013156201677026203320000017209296296776100267_);}
	.st21{fill:url(#SVGID_00000102510824142172576800000016946264224256585884_);}
	.st22{fill:url(#SVGID_00000161596544324899424980000004833803244799932576_);}
	.st23{fill:url(#SVGID_00000012451879095182640630000011366901182542869376_);}
	.st24{fill:url(#SVGID_00000096780970224328644460000014516688584692980144_);}
	.st25{fill:url(#SVGID_00000161601011896751540000000015570206040809097902_);}
	.st26{fill:url(#SVGID_00000071532559097131467670000017532526402764163970_);}
	.st27{fill:url(#SVGID_00000165954011040965806720000008525485071784496312_);}
	.st28{fill:url(#SVGID_00000060709304304049928310000001105610117650409874_);}
	.st29{fill:url(#SVGID_00000080929051918493591880000011586744534123549620_);}
	.st30{fill:url(#SVGID_00000012466954858117125630000009058620672529835438_);}
	.st31{fill:url(#SVGID_00000147218582369360251530000012333216266228402082_);}
	.st32{fill:url(#SVGID_00000018943895656298225170000007986864426563454364_);}
	.st33{fill:url(#SVGID_00000003081852696210692590000001234554645863972748_);}
	.st34{fill:url(#SVGID_00000101801401896069216710000017287022003665643404_);}
	.st35{fill:url(#SVGID_00000060727073513853663060000005741396620794448283_);}
	.st36{fill:url(#SVGID_00000147201807374815797530000001133519299378396052_);}
	.st37{fill:url(#SVGID_00000122709702129724958720000007813336152345341624_);}
	.st38{fill:url(#SVGID_00000017490517897839147570000012712898632471133847_);}
	.st39{fill:url(#SVGID_00000026846720436205686720000018367159039116662925_);}
	.st40{fill:url(#SVGID_00000067952843250349947730000018028084679314835081_);}
	.st41{fill:url(#SVGID_00000098203685815972157070000008795275614787577269_);}
	.st42{fill:url(#SVGID_00000111875131859821731970000002869786173763311258_);}
	.st43{fill:url(#SVGID_00000030479841481479854170000018291108879252763578_);}
	.st44{fill:url(#SVGID_00000113314199516705651130000018246654324977865886_);}
</style>
<linearGradient id="SVGID_1_" gradientUnits="userSpaceOnUse" x1="7.2308" y1="42.5197" x2="77.8086" y2="42.5197">
	<stop  offset="0" style="stop-color:#6366F1"/>
	<stop  offset="1" style="stop-color:#8B5CF6"/>
</linearGradient>
<path class="st0" d="M42.9,66.4c-0.8,0-1.7,0.2-2.5,0c-1.8-0.4-3.2,0.3-4.7,1.3c-3.8,2.5-7.7,4.9-11.6,7.4c-1.1,0.7-2.2,0.9-3.2,0.1
	c-1-0.7-1.2-1.8-1-3c0.6-3.2,1.1-6.5,1.7-9.7c0.2-1-0.1-1.6-0.9-2.1c-5.9-3.9-10.5-8.8-12.4-15.7c-2.7-9.8,0.3-18.1,7.4-25
	c6.5-6.3,14.6-9.3,23.5-9.9c10.5-0.7,20.1,1.5,28.4,8.3c7,5.7,10.9,12.9,10.2,22.1c-0.5,7.1-4.1,12.8-9.4,17.4
	C61,63.6,52.4,66.3,42.9,66.4z M47.1,37.9c0-2.5-2.1-4.6-4.6-4.6c-2.5,0-4.6,2.1-4.6,4.6c0,2.6,2.1,4.7,4.7,4.7
	C45,42.6,47.1,40.4,47.1,37.9z M22.1,37.9c0,2.6,2.1,4.7,4.6,4.7c2.5,0,4.5-2.1,4.5-4.6c0-2.5-2-4.6-4.5-4.7
	C24.2,33.2,22.1,35.3,22.1,37.9z M53.9,37.8c0,2.6,2,4.7,4.6,4.7c2.5,0,4.5-2.1,4.6-4.6c0-2.5-2.1-4.6-4.5-4.7
	C56,33.2,53.9,35.3,53.9,37.8z"/>
</svg>
