<?xml version="1.0" encoding="utf-8"?>
<!-- Generator: Adobe Illustrator 27.4.1, SVG Export Plug-In . SVG Version: 6.00 Build 0)  -->
<svg version="1.1" id="Слой_1" xmlns="http://www.w3.org/2000/svg" xmlns:xlink="http://www.w3.org/1999/xlink" x="0px" y="0px"
	 viewBox="0 0 85 85" style="enable-background:new 0 0 85 85;" xml:space="preserve">
<style type="text/css">
	.st0{fill:url(#SVGID_1_);}
	.st1{fill:url(#SVGID_00000163764715250003982500000011176396152687763381_);}
	.st2{fill:url(#SVGID_00000102544945120071132900000010627087922778462611_);}
	.st3{fill:url(#SVGID_00000155835201313673098520000018271421683950142848_);}
	.st4{fill:url(#SVGID_00000023967547010289139570000009628587910740976024_);}
	.st5{fill:url(#SVGID_00000139995300579752070390000012101632067775921054_);}
	.st6{fill:url(#SVGID_00000059996276234787851270000009860788618912443065_);}
	.st7{fill:url(#SVGID_00000067921636560919077350000010705094489666192522_);}
	.st8{fill:url(#SVGID_00000053544744393540702260000008300902905123365512_);}
	.st9{fill:url(#SVGID_00000061460679376563824850000014601057507438460581_);}
	.st10{fill:url(#SVGID_00000080896511013359901240000003858320089132159371_);}
	.st11{fill:url(#SVGID_00000167363469665432357030000009735575871475828612_);}
	.st12{fill:url(#SVGID_00000023981839980870153040000013206073146573000632_);}
	.st13{fill:url(#SVGID_00000031886282751391959580000001441369993612585366_);}
	.st14{fill:url(#SVGID_00000063592892137068159420000010327934518210780833_);}
</style>
<g>
	<linearGradient id="SVGID_1_" gradientUnits="userSpaceOnUse" x1="8.2815" y1="42.5197" x2="76.7578" y2="42.5197">
		<stop  offset="0" style="stop-color:#6366F1"/>
		<stop  offset="1" style="stop-color:#8B5CF6"/>
	</linearGradient>
	<path class="st0" d="M42.6,15c8.6,0,17.1,0.1,25.7,0c5-0.1,8.6,3.8,8.5,8.6c-0.1,12.6,0,25.3,0,37.9c0,5.2-3.4,8.6-8.5,8.6
		c-17.1,0-34.1,0-51.2,0c-5.5,0-8.8-3.3-8.8-8.8c0-12.6,0-25.3,0-37.9c0-4.1,2.3-7.2,6.1-8.1c0.8-0.2,1.6-0.2,2.4-0.2
		C25.4,15,34,15,42.6,15C42.6,15,42.6,15,42.6,15z M13.4,24.4c0,0.4-0.1,0.6-0.1,0.8c0,12.1,0,24.2,0,36.2c0,2.4,1.2,3.5,3.6,3.5
		c16.9,0,33.9,0,50.8,0c2.7,0,3.7-1,3.7-3.8c0-11.9,0-23.7,0-35.6c0-0.3,0-0.6,0-1.1c-0.4,0.4-0.6,0.6-0.9,0.8
		C63.6,32.1,56.4,39,49.3,45.9c-3.8,3.7-9.7,3.8-13.5,0.1c-2.7-2.6-5.5-5.3-8.2-8C22.9,33.6,18.3,29.1,13.4,24.4z M16.4,20.2
		c0.2,0.3,0.3,0.4,0.5,0.5c7.5,7.3,15,14.5,22.5,21.7c1.9,1.8,4.4,1.7,6.4-0.2c7.4-7.1,14.7-14.2,22.1-21.3c0.2-0.2,0.4-0.5,0.8-0.8
		C51.1,20.2,33.9,20.2,16.4,20.2z"/>
	
		<linearGradient id="SVGID_00000034078903710534460620000009562141280166516910_" gradientUnits="userSpaceOnUse" x1="34.1418" y1="57.4123" x2="50.8748" y2="57.4123">
		<stop  offset="0" style="stop-color:#6366F1"/>
		<stop  offset="1" style="stop-color:#8B5CF6"/>
	</linearGradient>
	<path style="fill:url(#SVGID_00000034078903710534460620000009562141280166516910_);" d="M42.5,60c-1.9,0-3.8,0-5.7,0
		c-1.6,0-2.7-1.1-2.7-2.5c0-1.5,1.1-2.5,2.6-2.6c3.8,0,7.6,0,11.4,0c1.7,0,2.7,1.1,2.7,2.6c0,1.5-1.1,2.5-2.7,2.5
		C46.3,60,44.4,60,42.5,60z"/>
</g>
</svg>
