<?xml version="1.0" encoding="utf-8"?>
<!-- Generator: Adobe Illustrator 27.4.1, SVG Export Plug-In . SVG Version: 6.00 Build 0)  -->
<svg version="1.1" id="Слой_1" xmlns="http://www.w3.org/2000/svg" xmlns:xlink="http://www.w3.org/1999/xlink" x="0px" y="0px"
	 viewBox="0 0 85 85" style="enable-background:new 0 0 85 85;" xml:space="preserve">
<style type="text/css">
	.st0{fill:url(#SVGID_1_);}
	.st1{fill:url(#SVGID_00000032617553159368243170000017350821027997135004_);}
	.st2{fill:url(#SVGID_00000137111194923132606550000001535996765180202377_);}
	.st3{fill:url(#SVGID_00000033349131328131765280000017866064270029077918_);}
	.st4{fill:url(#SVGID_00000160166921386451979950000004705875879608984228_);}
	.st5{fill:url(#SVGID_00000119089505231981247400000009101013882765812922_);}
	.st6{fill:url(#SVGID_00000024688856606616225310000007416052443667734169_);}
	.st7{fill:url(#SVGID_00000108307700176549244280000002012487030881861538_);}
	.st8{fill:url(#SVGID_00000009566585865763112810000010903208043060143784_);}
	.st9{fill:url(#SVGID_00000078023640331314193030000007214525912414051974_);}
	.st10{fill:url(#SVGID_00000134933780211373673300000006037308040957141427_);}
	.st11{fill:url(#SVGID_00000074408561343898436820000004300976357450936474_);}
	.st12{fill:url(#SVGID_00000060745851649343584060000013842708240704208019_);}
	.st13{fill:url(#SVGID_00000072242433972691664480000015425982004183465147_);}
	.st14{fill:url(#SVGID_00000087396738903904159150000001052107099453038986_);}
</style>
<g>
	<linearGradient id="SVGID_1_" gradientUnits="userSpaceOnUse" x1="15.5554" y1="42.5197" x2="69.484" y2="42.5197">
		<stop  offset="0" style="stop-color:#6366F1"/>
		<stop  offset="1" style="stop-color:#8B5CF6"/>
	</linearGradient>
	<path class="st0" d="M69.5,42.5c0,7.5,0,15.1,0,22.6c0,5.4-3.7,9.2-9.1,9.2c-11.9,0-23.9,0-35.8,0c-5.2,0-9-3.8-9-9.1
		c0-15.2,0-30.4,0-45.6c0-4.3,2.6-7.7,6.7-8.8c0.8-0.2,1.7-0.3,2.5-0.3c11.9,0,23.8,0,35.7,0c5.1,0,8.9,3.8,8.9,8.9
		C69.5,27.2,69.5,34.9,69.5,42.5C69.5,42.5,69.5,42.5,69.5,42.5z M57.1,15.9c0,0.1-0.1,0.3-0.1,0.4c-0.2,3.2-1.6,4.6-4.9,4.6
		c-2.7,0-5.4,0-8,0c-3.9,0-7.8,0-11.6,0c-2.7,0-4.3-1.5-4.5-4.3c0-0.2-0.1-0.5-0.1-0.7c-1.4,0-2.8-0.1-4.1,0c-1.5,0.2-2.7,1.4-3,2.9
		c-0.1,0.6-0.1,1.2-0.1,1.8c0,14.7,0,29.3,0,44c0,3.4,1.4,4.7,4.7,4.7c11.5,0,23,0,34.6,0.1c2.6,0,4.5-1.7,4.5-4.5
		c-0.1-14.8,0-29.6-0.1-44.4c0-0.4,0-0.8,0-1.3c-0.2-1.6-1.3-3-2.9-3.2C60.1,15.7,58.6,15.9,57.1,15.9z"/>
	
		<linearGradient id="SVGID_00000070081768131898434720000012135932088071792560_" gradientUnits="userSpaceOnUse" x1="35.4134" y1="49.6675" x2="59.4816" y2="49.6675">
		<stop  offset="0" style="stop-color:#6366F1"/>
		<stop  offset="1" style="stop-color:#8B5CF6"/>
	</linearGradient>
	<path style="fill:url(#SVGID_00000070081768131898434720000012135932088071792560_);" d="M47.5,47.1c3,0,6.1,0,9.1,0
		c1.7,0,2.9,1,2.9,2.5c0,1.5-1.1,2.5-2.8,2.5c-6.1,0-12.3,0-18.4,0c-1.7,0-2.9-1.1-2.9-2.6c0-1.5,1.1-2.5,2.9-2.5
		C41.4,47.1,44.5,47.1,47.5,47.1C47.5,47.1,47.5,47.1,47.5,47.1z"/>
	
		<linearGradient id="SVGID_00000146475768976396731790000015006987873831672216_" gradientUnits="userSpaceOnUse" x1="35.4246" y1="29.6492" x2="59.4824" y2="29.6492">
		<stop  offset="0" style="stop-color:#6366F1"/>
		<stop  offset="1" style="stop-color:#8B5CF6"/>
	</linearGradient>
	<path style="fill:url(#SVGID_00000146475768976396731790000015006987873831672216_);" d="M47.4,32.2c-3.1,0-6.1,0-9.2,0
		c-1.7,0-2.8-1-2.8-2.5c0-1.5,1.1-2.6,2.8-2.6c6.2,0,12.3,0,18.5,0c1.6,0,2.8,1.1,2.7,2.6c0,1.4-1.1,2.4-2.7,2.5
		C53.6,32.2,50.5,32.2,47.4,32.2z"/>
	
		<linearGradient id="SVGID_00000066484899576666918540000009251290528214082228_" gradientUnits="userSpaceOnUse" x1="35.4015" y1="59.6667" x2="59.4856" y2="59.6667">
		<stop  offset="0" style="stop-color:#6366F1"/>
		<stop  offset="1" style="stop-color:#8B5CF6"/>
	</linearGradient>
	<path style="fill:url(#SVGID_00000066484899576666918540000009251290528214082228_);" d="M47.4,62.2c-3.1,0-6.2,0-9.3,0
		c-2.1,0-3.4-1.9-2.4-3.7c0.5-0.9,1.3-1.3,2.2-1.3c6.3,0,12.7,0,19,0c1.4,0,2.5,1.1,2.5,2.5c0,1.4-1,2.5-2.6,2.5
		C53.8,62.2,50.6,62.2,47.4,62.2z"/>
	
		<linearGradient id="SVGID_00000056387508467296748960000005604714945840062655_" gradientUnits="userSpaceOnUse" x1="35.4193" y1="39.6426" x2="59.4836" y2="39.6426">
		<stop  offset="0" style="stop-color:#6366F1"/>
		<stop  offset="1" style="stop-color:#8B5CF6"/>
	</linearGradient>
	<path style="fill:url(#SVGID_00000056387508467296748960000005604714945840062655_);" d="M47.3,42.2c-3.1,0-6.3,0-9.4,0
		c-1.5,0-2.5-1.1-2.5-2.4c0-1.4,1-2.4,2.4-2.5c0.4,0,0.8,0,1.2,0c5.7,0,11.3,0,17,0c0.3,0,0.6,0,0.8,0c1.6,0.1,2.7,1.1,2.6,2.6
		c0,1.4-1.1,2.4-2.6,2.4C53.7,42.2,50.5,42.2,47.3,42.2z"/>
	
		<linearGradient id="SVGID_00000121975277674313513080000012226799313515908537_" gradientUnits="userSpaceOnUse" x1="25.5813" y1="59.7477" x2="31.7596" y2="59.7477">
		<stop  offset="0" style="stop-color:#6366F1"/>
		<stop  offset="1" style="stop-color:#8B5CF6"/>
	</linearGradient>
	<path style="fill:url(#SVGID_00000121975277674313513080000012226799313515908537_);" d="M28.6,62.4c-0.8-0.3-1.6-0.5-2.2-1
		c-1.1-0.9-1-2.7,0-3.6c1.1-1,3.5-1,4.5,0c0.8,0.7,1,1.8,0.7,2.8C31.2,61.7,30.3,62.2,28.6,62.4z"/>
	
		<linearGradient id="SVGID_00000033361694183688825450000001087477026592118975_" gradientUnits="userSpaceOnUse" x1="25.6041" y1="29.7067" x2="31.7599" y2="29.7067">
		<stop  offset="0" style="stop-color:#6366F1"/>
		<stop  offset="1" style="stop-color:#8B5CF6"/>
	</linearGradient>
	<path style="fill:url(#SVGID_00000033361694183688825450000001087477026592118975_);" d="M28.7,32.3c-0.7-0.2-1.5-0.3-2.1-0.7
		c-1.3-0.8-1.4-2.7-0.3-3.8c1-1,3.5-1.1,4.6-0.1c0.8,0.7,1,1.8,0.6,2.8C31,31.8,30,32.3,28.7,32.3z"/>
	
		<linearGradient id="SVGID_00000026137275608002774700000017977363626005020846_" gradientUnits="userSpaceOnUse" x1="25.6105" y1="49.6608" x2="31.7739" y2="49.6608">
		<stop  offset="0" style="stop-color:#6366F1"/>
		<stop  offset="1" style="stop-color:#8B5CF6"/>
	</linearGradient>
	<path style="fill:url(#SVGID_00000026137275608002774700000017977363626005020846_);" d="M28.7,47.1c2.2,0,3.5,1.5,2.9,3.4
		c-0.4,1.2-1.3,1.7-2.9,1.7c-1.5,0-2.6-0.6-2.9-1.7C25.3,49,26.1,47,28.7,47.1z"/>
	
		<linearGradient id="SVGID_00000168101831344675823670000010484801232711627417_" gradientUnits="userSpaceOnUse" x1="25.6227" y1="39.6141" x2="31.7764" y2="39.6141">
		<stop  offset="0" style="stop-color:#6366F1"/>
		<stop  offset="1" style="stop-color:#8B5CF6"/>
	</linearGradient>
	<path style="fill:url(#SVGID_00000168101831344675823670000010484801232711627417_);" d="M28.7,42.2c-2.1,0-3.3-1.1-3.1-2.8
		c0.1-1,0.7-1.8,1.6-2c1.3-0.4,2.7-0.5,3.8,0.6c0.7,0.7,0.9,1.6,0.6,2.6C31.2,41.7,30.3,42.2,28.7,42.2z"/>
</g>
</svg>
