<?xml version="1.0" encoding="utf-8"?>
<!-- Generator: Adobe Illustrator 27.4.1, SVG Export Plug-In . SVG Version: 6.00 Build 0)  -->
<svg version="1.1" id="Слой_1" xmlns="http://www.w3.org/2000/svg" xmlns:xlink="http://www.w3.org/1999/xlink" x="0px" y="0px"
	 viewBox="0 0 85 85" style="enable-background:new 0 0 85 85;" xml:space="preserve">
<style type="text/css">
	.st0{fill:url(#SVGID_1_);}
	.st1{fill:url(#SVGID_00000030453120003554439380000000253869210578066611_);}
	.st2{fill:url(#SVGID_00000091004229586210138180000000904919083457569706_);}
	.st3{fill:url(#SVGID_00000163060103951769770950000003226000097413571983_);}
	.st4{fill:url(#SVGID_00000156585928871019046450000013456791146562875778_);}
	.st5{fill:url(#SVGID_00000176024007354306011150000006108509089496393623_);}
	.st6{fill:url(#SVGID_00000052062631274902661850000014088615776926993580_);}
	.st7{fill:url(#SVGID_00000172430302086247696340000003049274482697902494_);}
	.st8{fill:url(#SVGID_00000023975570216262874130000008804217925283219122_);}
	.st9{fill:url(#SVGID_00000144298716294051318040000002042071919689658768_);}
	.st10{fill:url(#SVGID_00000073701563396485328480000001556856115744324790_);}
	.st11{fill:url(#SVGID_00000054231932944809809670000006528153177374089377_);}
	.st12{fill:url(#SVGID_00000109000595302765323900000005176280718728517515_);}
	.st13{fill:url(#SVGID_00000093865125637469893870000001709892125621864856_);}
	.st14{fill:url(#SVGID_00000004530527893197164890000012068922275112466335_);}
	.st15{fill:url(#SVGID_00000145053795054330060560000014393200824284148384_);}
	.st16{fill:url(#SVGID_00000045596869906308121920000011711346346429489341_);}
	.st17{fill:url(#SVGID_00000179608405193630939350000009799216594037026735_);}
	.st18{fill:url(#SVGID_00000026140052115407116830000002286770527686376380_);}
	.st19{fill:url(#SVGID_00000151519249471499914560000007541062337235840640_);}
	.st20{fill:url(#SVGID_00000135684977641685563030000001892622156796134539_);}
	.st21{fill:url(#SVGID_00000128478683127633506190000004272613572447103117_);}
	.st22{fill:url(#SVGID_00000136371552102700600260000018037452383187195532_);}
	.st23{fill:url(#SVGID_00000163784910930854295930000001145727332850263175_);}
	.st24{fill:url(#SVGID_00000150099653604787359460000013714599459305007523_);}
	.st25{fill:url(#SVGID_00000044873638306957705260000010752718466228167049_);}
	.st26{fill:url(#SVGID_00000000927782086941726200000007203230688023359932_);}
	.st27{fill:url(#SVGID_00000031181318111411086030000005099524937156566165_);}
	.st28{fill:url(#SVGID_00000122718392843353320800000007512386699463506092_);}
	.st29{fill:url(#SVGID_00000007389366950243693040000005189997756151902360_);}
	.st30{fill:url(#SVGID_00000169548362563764451930000007329035574287022501_);}
	.st31{fill:url(#SVGID_00000052789899988163367920000017677268300768797839_);}
	.st32{fill:url(#SVGID_00000075126570443254226300000005048288609145134215_);}
	.st33{fill:url(#SVGID_00000069394397454550287450000001921263318337498030_);}
	.st34{fill:url(#SVGID_00000018941673535536220050000015412541401287358116_);}
	.st35{fill:url(#SVGID_00000000186381615965743550000012063339340018779779_);}
	.st36{fill:url(#SVGID_00000165927125395109570210000018064713302174940845_);}
	.st37{fill:url(#SVGID_00000111893788428067948240000014084542867643691423_);}
	.st38{fill:url(#SVGID_00000178924465101759343500000000760623058348927630_);}
	.st39{fill:url(#SVGID_00000013913942142746278430000001484298252928253333_);}
	.st40{fill:url(#SVGID_00000003800462337349884480000012817493841791793819_);}
	.st41{fill:url(#SVGID_00000166674312687075129150000004401945215809553312_);}
	.st42{fill:url(#SVGID_00000023260937365014576150000000123792693870936704_);}
	.st43{fill:url(#SVGID_00000080923467878854356670000012030897308789491337_);}
	.st44{fill:url(#SVGID_00000090262601552552801870000014122015335731771837_);}
</style>
<linearGradient id="SVGID_1_" gradientUnits="userSpaceOnUse" x1="7.204" y1="42.5197" x2="77.8354" y2="42.5197">
	<stop  offset="0" style="stop-color:#6366F1"/>
	<stop  offset="1" style="stop-color:#8B5CF6"/>
</linearGradient>
<path class="st0" d="M28.7,20.9c0-1.2,0-2.2,0-3.2c0.1-4.4,3.2-7.7,7.6-7.8c4.1-0.1,8.3-0.1,12.4,0c4.3,0.1,7.5,3.3,7.6,7.7
	c0,1.1,0,2.1,0,3.4c1,0,1.9,0,2.9,0c3.1,0,6.1,0,9.2,0c5.5,0,9.2,3.5,9.3,9c0.1,3.4,0.1,6.8,0,10.2c0,0.8-0.1,1.8-0.6,2.4
	c-0.8,1.1-0.7,2.2-0.7,3.4c0,6.7,0,13.4,0,20.1c0,3.8-1.5,6.8-5.1,8.4c-1.1,0.5-2.4,0.8-3.6,0.8c-16.8,0.1-33.7,0.1-50.5,0
	c-4.9,0-8.6-3.7-8.7-8.5c-0.1-7.2,0-14.4-0.1-21.5c0-0.7-0.3-1.4-0.5-2.1c-0.2-0.9-0.7-1.9-0.7-2.8c-0.1-3.6-0.1-7.1,0-10.7
	c0.1-4.8,4-8.6,8.8-8.6C20.2,20.9,24.3,20.9,28.7,20.9z M13.2,46.5c0,0.6,0,1,0,1.5c0,5.8,0,11.6,0,17.4c0,3.8,1.4,5.1,5.1,5.1
	c16.2,0,32.4,0,48.7,0c3.5,0,4.9-1.4,4.9-4.9c0-5.9,0-11.9,0-17.8c0-0.4,0-0.8-0.1-1.4c-7.1,2.7-14.5,3.9-22,4.5c0,0.5,0,0.9,0,1.2
	c-0.1,3.2-2.1,5.4-5.2,5.7c-1.5,0.1-3,0.1-4.5-0.1c-2.5-0.3-4.2-2-4.7-4.5c-0.2-0.8-0.2-1.6-0.3-2.4C27.6,50.4,20.3,49.2,13.2,46.5z
	 M49.9,46.4c1.9-0.2,3.6-0.4,5.4-0.6c5.7-0.8,11.2-2,16.5-4.3c1-0.4,1.3-1,1.3-2c-0.1-3.1,0-6.1,0-9.2c0-3.1-1.6-4.7-4.7-4.7
	c-17.3,0-34.6,0-51.9,0c-2.9,0-4.7,1.7-4.7,4.6c0,2.9,0.1,5.8,0,8.7c-0.1,1.6,0.6,2.3,1.9,2.9c4.5,1.8,9.2,3,14,3.8
	c2.4,0.4,4.8,0.6,7.3,0.9c0-0.5,0.1-0.8,0.1-1c0.2-3,1.9-4.7,4.8-4.8c1.9-0.1,3.7-0.1,5.6,0c2.2,0.2,3.6,1.5,4.1,3.6
	C49.8,44.9,49.8,45.6,49.9,46.4z M33.4,20.8c6.1,0,12.2,0,18.3,0c0-0.5,0-0.9,0-1.3c0-0.7,0-1.3,0-2c-0.1-1.8-1.2-3-3-3
	c-4.1,0-8.3,0-12.4,0c-1.5,0-2.7,1.2-2.9,2.7C33.3,18.4,33.4,19.6,33.4,20.8z M39.8,45.3c0,1.6,0,3,0,4.4c0.1,4-0.7,3.8,4.1,3.7
	c0.1,0,0.3,0,0.4,0c0.3-0.3,0.9-0.6,0.9-1c0.1-2.3,0-4.7,0-7.1C43.4,45.3,41.7,45.3,39.8,45.3z"/>
</svg>
