<?xml version="1.0" encoding="utf-8"?>
<!-- Generator: Adobe Illustrator 27.4.1, SVG Export Plug-In . SVG Version: 6.00 Build 0)  -->
<svg version="1.1" id="Слой_1" xmlns="http://www.w3.org/2000/svg" xmlns:xlink="http://www.w3.org/1999/xlink" x="0px" y="0px"
	 viewBox="0 0 85 85" style="enable-background:new 0 0 85 85;" xml:space="preserve">
<style type="text/css">
	.st0{fill:url(#SVGID_1_);}
	.st1{fill:url(#SVGID_00000102516903791921055560000017109340228737871237_);}
	.st2{fill:url(#SVGID_00000037679988954385706340000007175742053973095069_);}
	.st3{fill:url(#SVGID_00000073690707910461071070000007003525820146374061_);}
	.st4{fill:url(#SVGID_00000137123871883132966470000018010555108292795829_);}
	.st5{fill:url(#SVGID_00000021839085029911504990000017018307585136290221_);}
	.st6{fill:url(#SVGID_00000181792175558416373520000008602108482143920275_);}
	.st7{fill:url(#SVGID_00000131341637983308405390000002220034359144141502_);}
	.st8{fill:url(#SVGID_00000113335164692709627200000003978531675603832216_);}
	.st9{fill:url(#SVGID_00000139267914477220865480000014056981424519258506_);}
	.st10{fill:url(#SVGID_00000127025389569663715510000000535988311082575544_);}
	.st11{fill:url(#SVGID_00000168820641223046669550000013992677477407615668_);}
	.st12{fill:url(#SVGID_00000062905924663830641030000006908630725588382892_);}
	.st13{fill:url(#SVGID_00000154393074787144799330000006060019319737780358_);}
	.st14{fill:url(#SVGID_00000038387440510147736310000002408022596655511682_);}
	.st15{fill:url(#SVGID_00000147936481893721126260000009578089500222158753_);}
	.st16{fill:url(#SVGID_00000145049219881122178180000000095041648181415556_);}
	.st17{fill:url(#SVGID_00000121275250549632893280000011008604897245012099_);}
	.st18{fill:url(#SVGID_00000010993258187302166550000000739310907284035238_);}
	.st19{fill:url(#SVGID_00000137116537045583834970000016255485243041436594_);}
	.st20{fill:url(#SVGID_00000023989372072623336930000005837224557537917117_);}
	.st21{fill:url(#SVGID_00000183941553439615330660000013720147406392259253_);}
	.st22{fill:url(#SVGID_00000042706977174639473590000009219542071011177864_);}
	.st23{fill:url(#SVGID_00000106864084726851069040000002420126717966160539_);}
	.st24{fill:url(#SVGID_00000148626262601235846250000002994809258464427188_);}
	.st25{fill:url(#SVGID_00000078744284347363440340000017135163360417946016_);}
	.st26{fill:url(#SVGID_00000095337211214179014220000017631242773220913832_);}
	.st27{fill:url(#SVGID_00000029768244855117103470000014786676232565869470_);}
	.st28{fill:url(#SVGID_00000163779488021628540490000011651777468029401017_);}
	.st29{fill:url(#SVGID_00000171714584713661297070000006886743541605403047_);}
	.st30{fill:url(#SVGID_00000068636094783208118680000009715561867591743915_);}
	.st31{fill:url(#SVGID_00000067926885837823301810000008717937576258492315_);}
	.st32{fill:url(#SVGID_00000153685000265669739970000009551664642117502883_);}
	.st33{fill:url(#SVGID_00000033370475129542089940000006060863894964244117_);}
	.st34{fill:url(#SVGID_00000111895283681047110450000007347003835992267951_);}
	.st35{fill:url(#SVGID_00000132770881115590469550000002288682468138133142_);}
	.st36{fill:url(#SVGID_00000180331429609159694770000007670058717312113571_);}
	.st37{fill:url(#SVGID_00000124120492575930064220000013542406652595043719_);}
	.st38{fill:url(#SVGID_00000058558555650534507490000014623312603020142481_);}
	.st39{fill:url(#SVGID_00000121248896423739467010000007590120763501770174_);}
	.st40{fill:url(#SVGID_00000011711849286070101520000009593635660728287165_);}
	.st41{fill:url(#SVGID_00000163788393420183864270000014668538467750490015_);}
	.st42{fill:url(#SVGID_00000141414953466151654700000012724974101986163075_);}
	.st43{fill:url(#SVGID_00000021831729668509337130000009812015601785891509_);}
	.st44{fill:url(#SVGID_00000054254321444631126430000007475467931559166346_);}
</style>
<g>
	<linearGradient id="SVGID_1_" gradientUnits="userSpaceOnUse" x1="0.3475" y1="42.5197" x2="78.541" y2="42.5197">
		<stop  offset="0" style="stop-color:#6366F1"/>
		<stop  offset="1" style="stop-color:#8B5CF6"/>
	</linearGradient>
	<path class="st0" d="M24.9,20.2c2.5,0.3,2.5,0.3,3.4-1.9c0.8-1.7,1.2-3.7,2.9-4.7c1.2-0.7,2.6-1.3,3.9-1.4
		c4.9-0.2,9.8-0.1,14.7-0.1c2.7,0,4.5,1.3,5.8,3.7c0.1,0.2,0.3,0.5,0.3,0.7c0.6,3.2,2.6,4.2,5.7,3.7c2-0.3,4-0.1,6-0.1
		c5.4,0.1,9.7,4.3,9.7,9.7c0,11.1,0,22.1,0,33.2c0,5.2-4.2,9.4-9.4,9.6c-3,0.1-6,0-9,0c-13.6,0-27.3,0-40.9,0
		c-6.6,0-10.6-4-10.6-10.6c0-10.5,0.1-21,0-31.4c-0.1-5.6,3.7-9.5,7.8-10.3c0.3-0.1,0.7-0.5,0.8-0.8c0.2-1.3,1-1.8,2.3-1.8
		c1.2,0,2.5,0,3.7,0C24.1,17.9,24.5,18.2,24.9,20.2z M42.4,68.2C42.4,68.2,42.4,68.2,42.4,68.2c8.2,0,16.5,0,24.7,0
		c3.6,0,5.7-2.1,5.8-5.7c0-10.6,0-21.2,0-31.8c0-3.6-2.1-5.7-5.7-5.7c-3,0-6.1,0-9.1,0c-2.4,0-4-1.1-4.9-3.2
		c-0.5-1.1-0.9-2.2-1.4-3.3c-0.4-1-1.1-1.6-2.3-1.6c-4.6,0-9.3,0-13.9,0c-1.1,0-1.8,0.5-2.3,1.5c-0.5,1.1-0.9,2.2-1.4,3.3
		C31,23.9,29.4,25,27,24.9c-2.9,0-5.9,0-8.8,0c-4,0-6,2-6,6c0,10.4,0,20.8,0,31.2c0,4.1,2,6.1,6.2,6.1
		C26.4,68.2,34.4,68.2,42.4,68.2z"/>
	
		<linearGradient id="SVGID_00000115493537638972904870000016374643760947280308_" gradientUnits="userSpaceOnUse" x1="0.3475" y1="45.7593" x2="78.541" y2="45.7593">
		<stop  offset="0" style="stop-color:#6366F1"/>
		<stop  offset="1" style="stop-color:#8B5CF6"/>
	</linearGradient>
	<path style="fill:url(#SVGID_00000115493537638972904870000016374643760947280308_);" d="M24.4,45.6c0.1-10.2,8.2-18.1,18.5-18
		c9.9,0.1,17.9,8.4,17.8,18.3C60.6,55.9,52.4,64,42.3,63.9C32.5,63.9,24.3,55.6,24.4,45.6z M42.5,59.3c7.2,0.1,13.5-5.9,13.6-13.2
		c0.1-7.6-5.8-13.8-13.3-13.9C35.4,32,29.1,38.1,29,45.5C28.9,53.1,34.9,59.2,42.5,59.3z"/>
	
		<linearGradient id="SVGID_00000181066512079575291210000003314776403373887147_" gradientUnits="userSpaceOnUse" x1="0.3475" y1="32.1565" x2="78.541" y2="32.1565">
		<stop  offset="0" style="stop-color:#6366F1"/>
		<stop  offset="1" style="stop-color:#8B5CF6"/>
	</linearGradient>
	<path style="fill:url(#SVGID_00000181066512079575291210000003314776403373887147_);" d="M65.6,35.6c-1.9,0-3.5-1.5-3.4-3.5
		c0-1.9,1.6-3.5,3.5-3.5c1.9,0,3.5,1.6,3.5,3.5C69.1,34.1,67.5,35.6,65.6,35.6z"/>
	
		<linearGradient id="SVGID_00000054957568668278393980000010314484629731126426_" gradientUnits="userSpaceOnUse" x1="0.3475" y1="45.7472" x2="78.541" y2="45.7472">
		<stop  offset="0" style="stop-color:#6366F1"/>
		<stop  offset="1" style="stop-color:#8B5CF6"/>
	</linearGradient>
	<path style="fill:url(#SVGID_00000054957568668278393980000010314484629731126426_);" d="M42.6,55.7c-5.5,0-9.9-4.4-9.9-10
		c0-5.5,4.4-9.9,9.8-9.9c5.5,0,10,4.4,10,10C52.4,51.2,48,55.7,42.6,55.7z M35.6,45.7c0.2,0.2,0.6,0.9,1.1,1
		c0.9,0.2,1.2-0.5,1.3-1.3c0.5-2.8,1.5-3.8,4.3-4.3c0.8-0.2,1.4-0.5,1.3-1.4c-0.1-0.9-0.8-1.1-1.6-1.1
		C38.7,38.9,35.8,41.9,35.6,45.7z"/>
</g>
</svg>
