<?xml version="1.0" encoding="utf-8"?>
<!-- Generator: Adobe Illustrator 27.4.1, SVG Export Plug-In . SVG Version: 6.00 Build 0)  -->
<svg version="1.1" id="Слой_1" xmlns="http://www.w3.org/2000/svg" xmlns:xlink="http://www.w3.org/1999/xlink" x="0px" y="0px"
	 viewBox="0 0 85 85" style="enable-background:new 0 0 85 85;" xml:space="preserve">
<style type="text/css">
	.st0{fill:url(#SVGID_1_);}
	.st1{fill:url(#SVGID_00000150814463736530035960000009872575117214943159_);}
	.st2{fill:url(#SVGID_00000181062277877616987250000008894585023694311044_);}
	.st3{fill:url(#SVGID_00000060729752934327437680000008526050540655635866_);}
	.st4{fill:url(#SVGID_00000075872673797815837980000008654723587163723165_);}
	.st5{fill:url(#SVGID_00000039834272570981237660000016634824060780022455_);}
	.st6{fill:url(#SVGID_00000005251758347540119150000007430189232894716059_);}
	.st7{fill:url(#SVGID_00000008869112720934170740000005088917886789776564_);}
	.st8{fill:url(#SVGID_00000098204733974293771290000000895067180893791133_);}
	.st9{fill:url(#SVGID_00000142175246806166462250000006359685892695562659_);}
	.st10{fill:url(#SVGID_00000010275977357395265680000000375667274193114259_);}
	.st11{fill:url(#SVGID_00000124158617111618884830000008894384601113464209_);}
	.st12{fill:url(#SVGID_00000080182444961779637330000005005635906140279691_);}
	.st13{fill:url(#SVGID_00000102544701170261729760000006279469968087190449_);}
	.st14{fill:url(#SVGID_00000140726867274279668810000012054995984551330727_);}
</style>
<g>
	<linearGradient id="SVGID_1_" gradientUnits="userSpaceOnUse" x1="6.7207" y1="42.5197" x2="78.3187" y2="42.5197">
		<stop  offset="0" style="stop-color:#6366F1"/>
		<stop  offset="1" style="stop-color:#8B5CF6"/>
	</linearGradient>
	<path class="st0" d="M42.2,77.5c-0.9,0-1.9,0-2.8,0c-3.2-0.1-5.2-1.9-5.6-5.1c-0.1-0.4-0.1-0.9-0.2-1.3c-0.1-1-0.3-2-0.4-3
		c-0.9-0.3-1.8-0.7-2.7-1.1c-1,0.8-2.2,1.7-3.6,2.7c-2.8,2-5.5,1.9-8-0.5c-1.4-1.3-2.7-2.7-4-3.9c-2.2-2.3-2.4-5.1-0.4-7.7
		c0.9-1.2,1.8-2.4,2.7-3.5c-0.2-0.4-0.3-0.8-0.5-1.2c-0.2-0.4-0.3-0.8-0.5-1.2c-0.9-0.1-1.8-0.2-2.8-0.4c-0.5-0.1-0.9-0.1-1.4-0.2
		c-3.5-0.5-5.4-2.6-5.4-6.1c0-1.7,0-3.5,0-5.2c0-3.2,2.1-5.5,5.3-5.9c0.4,0,0.7-0.1,1.1-0.1c1.1-0.1,2.1-0.2,3.2-0.4
		c0.2-0.3,0.3-0.7,0.5-1.1c0.2-0.4,0.4-0.9,0.6-1.3c-1-1.3-2-2.5-2.8-3.6c-1.9-2.5-1.7-5.3,0.4-7.5c1.4-1.5,2.9-3,4.5-4.4
		c2.1-2,5-2.1,7.4-0.3c1.1,0.8,2.3,1.7,3.7,2.8c0.9-0.4,1.8-0.8,2.8-1.1c0.2-1.4,0.4-2.8,0.6-4.3c0.4-3.1,2.6-5,5.7-5.1
		c2.2,0,4.2,0,6.1,0c3.1,0.1,5.2,1.9,5.7,5c0.1,0.8,0.2,1.5,0.3,2.3c0.1,0.7,0.2,1.4,0.3,2.1c0.9,0.4,1.8,0.8,2.7,1.1
		c0.6-0.4,1.2-0.9,1.8-1.4c0.5-0.4,1.1-0.8,1.6-1.2c2.8-2.1,5.7-2,8.2,0.5c0.3,0.3,0.6,0.5,0.9,0.8c1,0.9,1.9,1.9,2.9,2.9
		c0.6,0.7,1,1.5,1.4,2.1c0.1,0.2,0.3,0.5,0.4,0.7l0.8,1.3l-0.7,1.3c-0.1,0.2-0.2,0.5-0.3,0.7c-0.3,0.6-0.5,1.2-1,1.8
		c-0.9,1.2-1.8,2.4-2.7,3.4c0.2,0.4,0.4,0.9,0.5,1.3c0.2,0.4,0.3,0.7,0.4,1.1c1,0.1,2,0.3,3,0.4c0.4,0.1,0.9,0.1,1.3,0.2
		c3.2,0.4,5.1,2.6,5.2,5.7c0,1.7,0,3.6,0,5.7c0,3.2-1.9,5.3-5.1,5.7c-1.4,0.2-2.9,0.4-4.4,0.6c-0.3,0.8-0.6,1.6-1,2.4
		c0.9,1.1,1.8,2.2,2.7,3.4c2,2.6,1.8,5.5-0.5,7.8c-1.3,1.4-2.6,2.7-3.9,3.9c-2.4,2.3-5.2,2.5-7.9,0.5c-1.3-1-2.5-1.8-3.6-2.7
		c-1,0.5-1.9,0.8-2.8,1.1c-0.2,1.3-0.3,2.8-0.6,4.5c-0.4,3-2.4,4.8-5.4,4.8C44.6,77.5,43.4,77.5,42.2,77.5z M39.2,72
		c0.1,0,0.2,0,0.3,0c2,0,4,0,6.1,0c0.1,0,0.1,0,0.2,0c0-0.1,0-0.1,0-0.2c0.3-1.9,0.5-3.5,0.7-5c0.2-1.7,1.2-2.9,2.8-3.5
		c1-0.3,2.3-0.8,3.4-1.4c1.6-0.8,3.1-0.7,4.6,0.5c1.2,0.9,2.5,1.9,4,3c0.3,0.2,0.5,0.3,0.5,0.3c0.1,0,0.2-0.1,0.5-0.4
		c1.2-1.2,2.5-2.4,3.7-3.7c0.2-0.2,0.3-0.3,0.3-0.4c0-0.1-0.1-0.2-0.3-0.5c-1-1.3-2-2.6-3-3.8c-1.1-1.4-1.3-2.9-0.5-4.5
		c0.5-1,0.9-2.1,1.4-3.3c0.4-1.1,1.3-2.5,3.5-2.7c1.7-0.2,3.5-0.4,5-0.6c0.2,0,0.3-0.1,0.4-0.1c0-0.1,0-0.2,0-0.4c0-2,0-3.8,0-5.5
		c0-0.2,0-0.3,0-0.4c0,0-0.2-0.1-0.4-0.1c-0.4-0.1-0.9-0.1-1.3-0.2c-1.3-0.2-2.7-0.3-4-0.5c-1.2-0.2-2.4-1.1-3-2.2
		c-0.3-0.7-0.6-1.4-0.9-2.1c-0.3-0.6-0.5-1.2-0.8-1.8c-0.7-1.5-0.5-3,0.5-4.3c1-1.2,2.1-2.5,3-3.9c0.1-0.1,0.1-0.2,0.2-0.4
		c-0.2-0.3-0.3-0.5-0.4-0.7c-0.8-0.9-1.7-1.7-2.6-2.6c-0.3-0.3-0.6-0.6-0.9-0.8c-0.3-0.3-0.5-0.4-0.6-0.4c-0.1,0-0.3,0.1-0.6,0.4
		c-0.5,0.4-1,0.8-1.6,1.2c-0.8,0.7-1.7,1.3-2.6,2c-1,0.7-2.4,0.9-3.6,0.5c-1.6-0.6-3.1-1.2-4.5-1.8c-1-0.4-2.1-1.5-2.3-2.9
		c-0.2-1-0.3-2.1-0.5-3.1c-0.1-0.8-0.2-1.5-0.3-2.2c0-0.2-0.1-0.3-0.1-0.4c-0.1,0-0.2,0-0.4,0c-1.9,0-3.8,0-5.9,0
		c-0.2,0-0.3,0-0.3,0c0,0.1-0.1,0.2-0.1,0.4c-0.2,1.8-0.5,3.3-0.7,5c-0.1,1.2-0.7,2.7-2.8,3.4c-1.4,0.5-2.6,1-3.7,1.5
		c-1.5,0.7-3,0.5-4.2-0.5c-1.6-1.3-2.9-2.3-4.2-3.2c-0.2-0.1-0.3-0.2-0.3-0.2c0,0-0.1,0.1-0.2,0.1c-1.5,1.4-2.9,2.8-4.3,4.2
		c-0.1,0.1-0.1,0.2-0.2,0.2c0,0.1,0.1,0.2,0.2,0.3c0.9,1.2,2,2.6,3.2,4.1c1.4,1.6,1,3.2,0.5,4.3c-0.3,0.6-0.5,1.2-0.8,1.8
		c-0.3,0.6-0.5,1.3-0.9,2c-0.5,1.2-1.7,2.1-2.9,2.2c-1.4,0.2-2.8,0.4-4.2,0.5c-0.3,0-0.7,0.1-1,0.1c-0.3,0-0.4,0.1-0.5,0.1
		c0,0.1-0.1,0.2-0.1,0.5c0,1.7,0,3.5,0,5.1c0,0.3,0,0.5,0.1,0.6c0.1,0,0.3,0.1,0.6,0.1c0.4,0.1,0.9,0.1,1.3,0.2
		c1.2,0.2,2.5,0.3,3.8,0.5c1.2,0.2,2.4,1.1,2.9,2.2c0.3,0.7,0.6,1.4,0.9,2.1c0.3,0.6,0.5,1.2,0.8,1.8c0.7,1.5,0.5,2.9-0.5,4.2
		c-1.1,1.3-2.1,2.7-3.2,4.1c-0.1,0.2-0.2,0.3-0.2,0.3c0,0.1,0.1,0.2,0.2,0.3c1.2,1.2,2.5,2.5,3.8,3.8c0.2,0.2,0.4,0.3,0.5,0.4
		c0.1,0,0.3-0.1,0.6-0.3c1.7-1.2,3-2.2,4.1-3.1c0.9-0.7,2.3-1.3,4.1-0.4c1.3,0.6,2.6,1.1,3.8,1.6c1.6,0.6,2.5,1.8,2.7,3.5
		c0.1,1.2,0.3,2.4,0.4,3.6c0.1,0.5,0.1,0.9,0.2,1.4C39.2,71.9,39.2,72,39.2,72z M42.5,59c-4.4,0-8.5-1.7-11.7-4.7
		c-3.2-3.1-5-7.2-5-11.7l0,0c0-4.3,1.6-8.4,4.7-11.5c3.1-3.2,7.3-5,11.8-5c0,0,0.1,0,0.1,0c9.1,0,16.6,7.3,16.7,16.3
		c0,4.3-1.6,8.4-4.7,11.6c-3.1,3.2-7.3,5-11.8,5C42.6,59,42.6,59,42.5,59z M31.3,42.5c0,3,1.2,5.8,3.4,7.9c2.1,2.1,5,3.2,8,3.2
		c3,0,5.9-1.2,8-3.4c2.1-2.1,3.2-4.9,3.2-7.7c-0.1-6.1-5.1-11-11.3-11c0,0-0.1,0-0.1,0c-3,0-5.8,1.2-8,3.4
		C32.4,36.9,31.3,39.7,31.3,42.5L31.3,42.5z"/>
</g>
</svg>
