<?xml version="1.0" encoding="utf-8"?>
<!-- Generator: Adobe Illustrator 27.4.1, SVG Export Plug-In . SVG Version: 6.00 Build 0)  -->
<svg version="1.1" id="Слой_1" xmlns="http://www.w3.org/2000/svg" xmlns:xlink="http://www.w3.org/1999/xlink" x="0px" y="0px"
	 viewBox="0 0 85 85" style="enable-background:new 0 0 85 85;" xml:space="preserve">
<style type="text/css">
	.st0{fill:url(#SVGID_1_);}
	.st1{fill:url(#SVGID_00000097484859041792786400000013797822408830432905_);}
	.st2{fill:url(#SVGID_00000166654211267030680240000001174037897650083202_);}
	.st3{fill:url(#SVGID_00000056417354438155019900000005074557034852705934_);}
	.st4{fill:url(#SVGID_00000175289960400250864760000014259841832586600834_);}
	.st5{fill:url(#SVGID_00000147182586547397928300000006966396499751889322_);}
	.st6{fill:url(#SVGID_00000137097014263217358950000015327204800276028844_);}
	.st7{fill:url(#SVGID_00000050642555591083118570000006407342575398878891_);}
	.st8{fill:url(#SVGID_00000116205510255438543370000012284289630910625967_);}
	.st9{fill:url(#SVGID_00000124859823918967182960000009900616811019366322_);}
	.st10{fill:url(#SVGID_00000149383635212778830750000015400889148933174424_);}
	.st11{fill:url(#SVGID_00000137854779747173821570000010588240084638311864_);}
	.st12{fill:url(#SVGID_00000098181398714778640680000016249742172423270052_);}
	.st13{fill:url(#SVGID_00000149362643582990214450000008444927741848392328_);}
	.st14{fill:url(#SVGID_00000003074573127952168850000012959712756582380461_);}
</style>
<linearGradient id="SVGID_1_" gradientUnits="userSpaceOnUse" x1="9.4822" y1="42.5197" x2="75.5572" y2="42.5197">
	<stop  offset="0" style="stop-color:#6366F1"/>
	<stop  offset="1" style="stop-color:#8B5CF6"/>
</linearGradient>
<path class="st0" d="M37.1,37.2c0-0.5,0-0.9,0-1.4c0-6.6,0-13.3,0-19.9c0-2.2,1-3.8,3-4.8c2-1,4-0.8,5.8,0.5
	c1.5,1.1,2.1,2.6,2.1,4.4c0,6.6,0,13.1,0,19.7c0,0.4,0,0.8,0,1.4c0.5,0,0.9,0,1.3,0c6.8,0,13.7,0,20.5,0c3.4,0,5.8,2.3,5.8,5.5
	c0,3.2-2.4,5.5-5.9,5.5c-6.8,0-13.6,0-20.4,0c-0.4,0-0.8,0-1.4,0c0,0.5,0,0.9,0,1.3c0,6.5,0,13,0,19.5c0,3.9-3.6,6.4-7.2,5.2
	c-2.2-0.8-3.6-2.8-3.7-5.4c0-6,0-12,0-18c0-0.8,0-1.7,0-2.7c-0.5,0-0.9,0-1.3,0c-6.9,0-13.7,0-20.6,0c-2.9,0-5.1-1.8-5.5-4.5
	c-0.6-3.4,1.9-6.4,5.3-6.4c6.9,0,13.9,0,20.8,0C36.1,37.2,36.5,37.2,37.1,37.2z"/>
</svg>
