<?xml version="1.0" encoding="utf-8"?>
<!-- Generator: Adobe Illustrator 27.4.1, SVG Export Plug-In . SVG Version: 6.00 Build 0)  -->
<svg version="1.1" id="Слой_1" xmlns="http://www.w3.org/2000/svg" xmlns:xlink="http://www.w3.org/1999/xlink" x="0px" y="0px"
	 viewBox="0 0 85 85" style="enable-background:new 0 0 85 85;" xml:space="preserve">
<style type="text/css">
	.st0{fill:url(#SVGID_1_);}
	.st1{fill:url(#SVGID_00000180330695259053771760000001792458882657746596_);}
	.st2{fill:url(#SVGID_00000013166273438529961330000008759456085886196878_);}
	.st3{fill:url(#SVGID_00000147215000362015338720000011895426380958085560_);}
	.st4{fill:url(#SVGID_00000060717643598133301110000013124797213029850042_);}
	.st5{fill:url(#SVGID_00000001625154725074941720000009355919937948638110_);}
	.st6{fill:url(#SVGID_00000101086105265217200370000003136774203354940604_);}
	.st7{fill:url(#SVGID_00000157267813040795275940000004783068848849472399_);}
	.st8{fill:url(#SVGID_00000072238830507921556900000000216199315158083207_);}
	.st9{fill:url(#SVGID_00000166677111059029224900000008435554411596294806_);}
	.st10{fill:url(#SVGID_00000134222308042567760270000011140115572439495355_);}
	.st11{fill:url(#SVGID_00000103245768268253346970000005802730937708770226_);}
	.st12{fill:url(#SVGID_00000051365637001600383160000015824350939524065684_);}
	.st13{fill:url(#SVGID_00000170976434655823763690000016204090318752812210_);}
	.st14{fill:url(#SVGID_00000178165904156840463670000013824956837517512345_);}
	.st15{fill:url(#SVGID_00000064352247910508380370000010357339054420337317_);}
	.st16{fill:url(#SVGID_00000003089231926878062160000015055002095775504793_);}
	.st17{fill:url(#SVGID_00000129916310283828749770000000920283261780365503_);}
	.st18{fill:url(#SVGID_00000157280232480682285380000012418730865720024475_);}
	.st19{fill:url(#SVGID_00000032607114587459058500000002336300621319280824_);}
	.st20{fill:url(#SVGID_00000168820137280909304230000012993149737574295684_);}
	.st21{fill:url(#SVGID_00000140696228125893488980000001979950186349456547_);}
	.st22{fill:url(#SVGID_00000164488998328156497070000016692955997052816306_);}
	.st23{fill:url(#SVGID_00000170268050123043909580000009728776445227889052_);}
	.st24{fill:url(#SVGID_00000074405923085372865000000017341967795784122242_);}
	.st25{fill:url(#SVGID_00000097493232503811846920000012126427113793601713_);}
	.st26{fill:url(#SVGID_00000012434782189730946450000007562620210447833499_);}
	.st27{fill:url(#SVGID_00000046311136196282196270000004470460233365105080_);}
	.st28{fill:url(#SVGID_00000067955045381885558980000016035796717134013578_);}
	.st29{fill:url(#SVGID_00000143584421212139422950000007949784871017322886_);}
	.st30{fill:url(#SVGID_00000076606112857680288190000001753440251574125981_);}
	.st31{fill:url(#SVGID_00000123430230572399689570000004543145334108504502_);}
	.st32{fill:url(#SVGID_00000111176877450744056490000009336687109301727373_);}
	.st33{fill:url(#SVGID_00000113318879898342914940000010488020280985907890_);}
	.st34{fill:url(#SVGID_00000136408608086791778170000003196167806708366510_);}
	.st35{fill:url(#SVGID_00000102524104671283714070000004673944126589808534_);}
	.st36{fill:url(#SVGID_00000022526885858321202660000015519416905442232744_);}
	.st37{fill:url(#SVGID_00000130624534332400020540000000774497064114498471_);}
	.st38{fill:url(#SVGID_00000178180128269176501400000007322272231107973029_);}
	.st39{fill:url(#SVGID_00000150807593879037019310000000608749834533415071_);}
	.st40{fill:url(#SVGID_00000134218709186485918430000001974624779519265716_);}
	.st41{fill:url(#SVGID_00000091718284642090061060000015702843357762981559_);}
	.st42{fill:url(#SVGID_00000049912750887438323870000013940867633737198260_);}
	.st43{fill:url(#SVGID_00000072242622684392297110000003829644193317352364_);}
	.st44{fill:url(#SVGID_00000056396004379018855010000009410145101775100833_);}
</style>
<g>
	<linearGradient id="SVGID_1_" gradientUnits="userSpaceOnUse" x1="8.1084" y1="42.5197" x2="76.931" y2="42.5197">
		<stop  offset="0" style="stop-color:#6366F1"/>
		<stop  offset="1" style="stop-color:#8B5CF6"/>
	</linearGradient>
	<path class="st0" d="M76.9,24.7c-0.1,5.3-1.8,9.3-5.1,12.6C65,44,58.2,50.7,51.3,57.3c-2.4,2.3-4.7,4.6-7.1,6.9
		c-0.4,0.4-0.8,0.8-1.2,1.1c-1,0.7-2.3,0.6-3.1-0.2c-0.8-0.8-0.9-2.1-0.2-3.1c0.3-0.4,0.7-0.8,1.1-1.2C50,51.9,59.1,43,68.2,34.1
		c4-3.9,4.9-9.2,2.6-14c-3.5-7.2-12.8-8.9-18.7-3.4c-4.8,4.6-9.5,9.3-14.3,13.9c-7.1,6.9-14.3,13.8-21.3,20.9
		c-5.7,5.6-4.4,14.8,2.6,18.7c4.3,2.4,8.6,2,12.6-0.6c0.1-0.1,0.2-0.2,0.3-0.2c1.8-1.3,3.2-1.3,4.2,0c0.9,1.3,0.5,2.7-1.4,4
		c-5.7,3.9-11.8,4.5-17.9,1.3c-6.1-3.3-9-8.6-8.8-15.5c0.1-4.1,1.6-7.7,4.6-10.6c12-11.8,24.1-23.6,36.2-35.3c5.2-5,11.4-6,17.9-3.2
		C73.5,12.8,76.5,18.3,76.9,24.7z"/>
	
		<linearGradient id="SVGID_00000064338616277257672600000017202729521153347239_" gradientUnits="userSpaceOnUse" x1="23.4542" y1="42.6591" x2="61.3513" y2="42.6591">
		<stop  offset="0" style="stop-color:#6366F1"/>
		<stop  offset="1" style="stop-color:#8B5CF6"/>
	</linearGradient>
	<path style="fill:url(#SVGID_00000064338616277257672600000017202729521153347239_);" d="M61.4,32.4c0,2.8-0.8,4.9-2.5,6.6
		C52,45.7,45.2,52.4,38.3,59c-3.5,3.3-8.9,3.1-12.3-0.3c-3.3-3.4-3.4-8.7,0-12.1c6.8-6.8,13.6-13.4,20.6-20.1
		c2.8-2.6,6.1-3.3,9.6-1.6C59.6,26.4,61.1,29.2,61.4,32.4z M56.5,32.5c0-0.1-0.1-0.6-0.2-1c-1.1-2.8-4.4-3.4-6.6-1.2
		c-3.6,3.5-7.2,7-10.8,10.5c-3,2.9-5.9,5.8-8.9,8.7c-1.9,1.8-2,4.1-0.4,5.8c1.6,1.7,3.9,1.6,5.8-0.1c0.7-0.6,1.3-1.2,1.9-1.9
		c5.9-5.7,11.7-11.4,17.6-17C55.8,35.3,56.5,34.2,56.5,32.5z"/>
</g>
</svg>
