<?xml version="1.0" encoding="utf-8"?>
<!-- Generator: Adobe Illustrator 27.4.1, SVG Export Plug-In . SVG Version: 6.00 Build 0)  -->
<svg version="1.1" id="Слой_1" xmlns="http://www.w3.org/2000/svg" xmlns:xlink="http://www.w3.org/1999/xlink" x="0px" y="0px"
	 viewBox="0 0 85 85" style="enable-background:new 0 0 85 85;" xml:space="preserve">
<style type="text/css">
	.st0{fill:url(#SVGID_1_);}
	.st1{fill:url(#SVGID_00000148626517636646546470000017847133791790083466_);}
	.st2{fill:url(#SVGID_00000119812422716077382200000018381515707923504555_);}
	.st3{fill:url(#SVGID_00000171716669589849157830000002858970453953492354_);}
	.st4{fill:url(#SVGID_00000005254993902558379360000010299264695154592400_);}
	.st5{fill:url(#SVGID_00000092416095278917378580000007608344335157820822_);}
	.st6{fill:url(#SVGID_00000176737380654913222740000005235885786066266528_);}
	.st7{fill:url(#SVGID_00000051373809839406926320000010527229256516361122_);}
	.st8{fill:url(#SVGID_00000039129381217186122190000011025483052333079215_);}
	.st9{fill:url(#SVGID_00000053520617016218355420000016175213811988128447_);}
	.st10{fill:url(#SVGID_00000033333048448664190740000014646492240128595342_);}
	.st11{fill:url(#SVGID_00000029039446802631034110000016121985281637128583_);}
	.st12{fill:url(#SVGID_00000107590434024853512030000008038366198276665274_);}
	.st13{fill:url(#SVGID_00000022529586791656103550000010869786956060558519_);}
	.st14{fill:url(#SVGID_00000103230735444002458160000016466361429804015274_);}
	.st15{fill:url(#SVGID_00000073708238713160459430000001511423425837561018_);}
	.st16{fill:url(#SVGID_00000181086356803154963130000011079808728968689029_);}
	.st17{fill:url(#SVGID_00000049215538230353689300000018167138596264575878_);}
	.st18{fill:url(#SVGID_00000098192555737441504710000010967360530410264749_);}
	.st19{fill:url(#SVGID_00000094596408611624550560000009862509284504769413_);}
	.st20{fill:url(#SVGID_00000131365854865344128520000015947005212166495118_);}
	.st21{fill:url(#SVGID_00000119105380573560230460000002667407110457253279_);}
	.st22{fill:url(#SVGID_00000155113536739253638410000002250840722020703158_);}
	.st23{fill:url(#SVGID_00000049933972449583600300000005834303266477471376_);}
	.st24{fill:url(#SVGID_00000065792955639901526400000001274585558351651481_);}
	.st25{fill:url(#SVGID_00000067207362400839523660000002770615658999472803_);}
	.st26{fill:url(#SVGID_00000071553272565521934690000004638506916349943455_);}
	.st27{fill:url(#SVGID_00000124843198564558523760000005517146791376185262_);}
	.st28{fill:url(#SVGID_00000137112299429896962790000009529258477455378331_);}
	.st29{fill:url(#SVGID_00000164476526501639901560000017812735324041237159_);}
	.st30{fill:url(#SVGID_00000023990719001566443560000004882402922288172702_);}
	.st31{fill:url(#SVGID_00000109019744637885368880000012805337708111385766_);}
	.st32{fill:url(#SVGID_00000081645247764106726010000008934198950190705599_);}
	.st33{fill:url(#SVGID_00000092449985149668007560000010991361128439368868_);}
	.st34{fill:url(#SVGID_00000016035211308366628810000004792833987770783363_);}
	.st35{fill:url(#SVGID_00000078021640937739650290000004712304094304272031_);}
	.st36{fill:url(#SVGID_00000109714946713497952450000007810909224706360989_);}
	.st37{fill:url(#SVGID_00000083080737442140516650000015292590706300102050_);}
	.st38{fill:url(#SVGID_00000181775401502934898170000006676717772146852245_);}
	.st39{fill:url(#SVGID_00000154410419625410025180000011594399264047909520_);}
	.st40{fill:url(#SVGID_00000059273780455624018620000009973792425960049314_);}
	.st41{fill:url(#SVGID_00000044169799919827311250000001185213058881595062_);}
	.st42{fill:url(#SVGID_00000176036226116429652870000000736867424061623480_);}
	.st43{fill:url(#SVGID_00000037672703684804745000000008573586018807736496_);}
	.st44{fill:url(#SVGID_00000179633304290054881700000017555162804190378121_);}
</style>
<g>
	<linearGradient id="SVGID_1_" gradientUnits="userSpaceOnUse" x1="-2.7169" y1="41.0139" x2="81.6702" y2="37.9171">
		<stop  offset="0" style="stop-color:#6366F1"/>
		<stop  offset="1" style="stop-color:#8B5CF6"/>
	</linearGradient>
	<path class="st0" d="M71.2,38.7c0,8.3,0,16.7,0,25c0,2.3-0.5,2.7-2.7,2.8c-1.7,0-3.4,0-5.1,0c-2.2,0-2.6-0.5-2.6-2.7c0-5,0-10,0-15
		c0-11.7,0-23.4,0-35c0-2.8,0.4-3.2,3.2-3.2c1.5,0,3,0,4.5,0c2.1,0,2.7,0.7,2.7,2.7C71.2,21.7,71.2,30.2,71.2,38.7
		C71.2,38.7,71.2,38.7,71.2,38.7z"/>
	
		<linearGradient id="SVGID_00000000213431143191518440000007275319182161335982_" gradientUnits="userSpaceOnUse" x1="-2.5258" y1="46.2216" x2="81.8613" y2="43.1248">
		<stop  offset="0" style="stop-color:#6366F1"/>
		<stop  offset="1" style="stop-color:#8B5CF6"/>
	</linearGradient>
	<path style="fill:url(#SVGID_00000000213431143191518440000007275319182161335982_);" d="M39.9,45c0,6,0,11.9,0,17.9
		c0,3.3-0.2,3.5-3.5,3.5c-1.5,0-2.9,0-4.4,0c-2,0-2.6-0.6-2.6-2.6c0-11.3,0-22.7,0-34c0-1.4,0-2.8,0-4.1c0-1.8,0.7-2.4,2.4-2.4
		c1.7,0,3.5,0,5.2,0c2.3,0,2.8,0.5,2.8,2.9C39.9,32.4,39.9,38.7,39.9,45z"/>
	
		<linearGradient id="SVGID_00000044141898528848113600000004270404869043573166_" gradientUnits="userSpaceOnUse" x1="-2.3756" y1="50.3158" x2="82.0115" y2="47.2191">
		<stop  offset="0" style="stop-color:#6366F1"/>
		<stop  offset="1" style="stop-color:#8B5CF6"/>
	</linearGradient>
	<path style="fill:url(#SVGID_00000044141898528848113600000004270404869043573166_);" d="M45.1,48.3c0-5.1,0-10.3,0-15.4
		c0-2,0.6-2.6,2.6-2.7c1.8,0,3.7,0,5.5,0c1.7,0,2.3,0.7,2.3,2.4c0,10.5,0,21,0,31.6c0,1.6-0.6,2.2-2.2,2.2c-2,0-3.9,0-5.9,0
		c-1.8,0-2.4-0.6-2.4-2.4C45.1,58.8,45.1,53.6,45.1,48.3C45.1,48.3,45.1,48.3,45.1,48.3z"/>
	
		<linearGradient id="SVGID_00000091712278984928380000000013134886293305582737_" gradientUnits="userSpaceOnUse" x1="-1.5191" y1="73.6561" x2="82.868" y2="70.5594">
		<stop  offset="0" style="stop-color:#6366F1"/>
		<stop  offset="1" style="stop-color:#8B5CF6"/>
	</linearGradient>
	<path style="fill:url(#SVGID_00000091712278984928380000000013134886293305582737_);" d="M42.5,74.5c-10.4,0-20.9,0-31.3,0
		c-0.5,0-1.1,0-1.6-0.1c-1.1-0.2-1.9-1.2-1.9-2.4c0-1.3,0.9-2.2,2.1-2.4c0.3,0,0.6,0,0.9,0c21.2,0,42.3,0,63.5,0
		c2,0,3.2,1.4,2.9,2.9c-0.2,1.1-0.9,1.8-2,2c-0.5,0.1-1.1,0-1.6,0C63.2,74.5,52.9,74.5,42.5,74.5C42.5,74.5,42.5,74.5,42.5,74.5z"/>
	
		<linearGradient id="SVGID_00000047038810227359864060000011028769044523702200_" gradientUnits="userSpaceOnUse" x1="-2.2476" y1="53.8026" x2="82.1395" y2="50.7058">
		<stop  offset="0" style="stop-color:#6366F1"/>
		<stop  offset="1" style="stop-color:#8B5CF6"/>
	</linearGradient>
	<path style="fill:url(#SVGID_00000047038810227359864060000011028769044523702200_);" d="M24.2,53.1c0,3.7,0,7.3,0,11
		c0,1.8-0.5,2.3-2.3,2.3c-2,0-3.9,0-5.9,0c-1.6,0-2.2-0.6-2.2-2.2c0-7.4,0-14.9,0-22.3c0-1.6,0.7-2.3,2.3-2.3c2,0,3.9,0,5.9,0
		c1.6,0,2.3,0.7,2.3,2.3C24.2,45.6,24.2,49.4,24.2,53.1C24.2,53.1,24.2,53.1,24.2,53.1z"/>
</g>
</svg>
