<?xml version="1.0" encoding="utf-8"?>
<!-- Generator: Adobe Illustrator 27.4.1, SVG Export Plug-In . SVG Version: 6.00 Build 0)  -->
<svg version="1.1" id="Слой_1" xmlns="http://www.w3.org/2000/svg" xmlns:xlink="http://www.w3.org/1999/xlink" x="0px" y="0px"
	 viewBox="0 0 85 85" style="enable-background:new 0 0 85 85;" xml:space="preserve">
<style type="text/css">
	.st0{fill:url(#SVGID_1_);}
	.st1{fill:url(#SVGID_00000180330719335478369920000008921943649413860742_);}
	.st2{fill:url(#SVGID_00000104705050934406123630000009173572593650465673_);}
	.st3{fill:url(#SVGID_00000044872868787603932940000009383525447017719693_);}
	.st4{fill:url(#SVGID_00000157290658475454280050000001019205566839773599_);}
	.st5{fill:url(#SVGID_00000052807467153781621870000005649934923840246164_);}
	.st6{fill:url(#SVGID_00000119099019570460956770000015896482017968800647_);}
	.st7{fill:url(#SVGID_00000183930267134789435820000013644031760778556325_);}
	.st8{fill:url(#SVGID_00000010302331704016006070000013179088999148774529_);}
	.st9{fill:url(#SVGID_00000163785753938672096000000016043717624852740519_);}
	.st10{fill:url(#SVGID_00000029739778293006423660000012393279259105733289_);}
	.st11{fill:url(#SVGID_00000002347053072768019710000005122121429878366097_);}
	.st12{fill:url(#SVGID_00000081606660659384125030000005486613280732492164_);}
	.st13{fill:url(#SVGID_00000163044991537807622680000006560658423386960549_);}
	.st14{fill:url(#SVGID_00000039091807864344302950000008527942584191293593_);}
	.st15{fill:url(#SVGID_00000033362252814365709930000008955130221787800714_);}
	.st16{fill:url(#SVGID_00000150820788594532232270000014542586070069376387_);}
	.st17{fill:url(#SVGID_00000025408654315605104200000015471771871507544459_);}
	.st18{fill:url(#SVGID_00000035496950014489190310000006527278426326746285_);}
	.st19{fill:url(#SVGID_00000005229869816728465990000004160685999612925884_);}
	.st20{fill:url(#SVGID_00000023996266962319646380000008212342498817456050_);}
	.st21{fill:url(#SVGID_00000021812759680891394770000005825908869607119010_);}
	.st22{fill:url(#SVGID_00000003803128224196312310000011315407644892882842_);}
	.st23{fill:url(#SVGID_00000089552823166760381440000003387822237193305770_);}
	.st24{fill:url(#SVGID_00000024693981675384319630000013346675208008369047_);}
	.st25{fill:url(#SVGID_00000108273258368740678210000004176684543179809468_);}
	.st26{fill:url(#SVGID_00000076590592909825809050000008370848717348933816_);}
	.st27{fill:url(#SVGID_00000083058021847751583390000001282377491051391918_);}
	.st28{fill:url(#SVGID_00000104700284613323138510000009820287613235067062_);}
	.st29{fill:url(#SVGID_00000065757412711499942580000013109692478017522339_);}
	.st30{fill:url(#SVGID_00000126317312268293005110000003248349983882841996_);}
	.st31{fill:url(#SVGID_00000013157705274117641470000014481645359860518835_);}
	.st32{fill:url(#SVGID_00000028302995626871989220000013557173969930870170_);}
	.st33{fill:url(#SVGID_00000008866105447223002350000015766853904509742996_);}
	.st34{fill:url(#SVGID_00000070826789857877278110000007064511820613977742_);}
	.st35{fill:url(#SVGID_00000083054081694746975490000006275919497770803887_);}
	.st36{fill:url(#SVGID_00000162322017235067260120000016323037476718460586_);}
	.st37{fill:url(#SVGID_00000143600792343599381350000014942467357337332098_);}
	.st38{fill:url(#SVGID_00000015329664958890450340000008084350084480039843_);}
	.st39{fill:url(#SVGID_00000079478911525303404970000016478510882701427847_);}
	.st40{fill:url(#SVGID_00000145023383138953137420000000797083245934799269_);}
	.st41{fill:url(#SVGID_00000105385900928452488890000009562235804924762013_);}
	.st42{fill:url(#SVGID_00000147203974353496117580000013134509072979625864_);}
	.st43{fill:url(#SVGID_00000181805119903803255880000011337247604847019684_);}
	.st44{fill:url(#SVGID_00000028323153313517131580000002580582662582999707_);}
</style>
<linearGradient id="SVGID_1_" gradientUnits="userSpaceOnUse" x1="7.5411" y1="42.5197" x2="77.4983" y2="42.5197">
	<stop  offset="0" style="stop-color:#6366F1"/>
	<stop  offset="1" style="stop-color:#8B5CF6"/>
</linearGradient>
<path class="st0" d="M14.9,18.2c0-0.8,0.1-1.4,0.1-2.1c0.3-2.7,2.1-4.6,4.8-4.6c6.4,0.1,12.7,1.1,18.6,3.7c1.5,0.7,2.8,1.7,4.2,2.6
	c4.7-4,10.6-5,16.6-5.9c1.6-0.2,3.3-0.3,4.9-0.4c3.8-0.2,5.9,1.7,5.9,5.5c0,0.3,0,0.6,0,1.1c0.5,0,1,0.1,1.6,0.1
	c3.6,0.2,5.8,2.4,5.8,6c0,13.2,0,26.3,0,39.5c0,1.3-0.4,2.7-1,3.8c-1,1.8-2.8,2.5-4.9,2.5c-6.7,0-13.5,0-20.2,0
	c-1,0-1.8,0.2-2.5,1.1c-3,3.3-9.7,3.3-12.7,0c-0.7-0.8-1.5-1.1-2.6-1.1c-6.6,0-13.1,0-19.7,0c-4.2,0-6.4-2.2-6.4-6.4
	c0-12.9,0-25.8,0-38.7c0-4.4,2-6.5,6.4-6.6C14.2,18.3,14.4,18.2,14.9,18.2z M40.5,63.3c0-0.7,0-1.1,0-1.5c0-12.4-0.1-24.9,0.1-37.3
	c0-2.6-1-4.1-3.1-5.1c-0.7-0.4-1.4-0.7-2.2-1c-4.7-1.8-9.5-2.5-14.5-2.7c-1.1,0-1.7,0.3-1.6,1.5c0,0.6,0,1.2,0,1.7
	c0,12.4,0,24.9,0,37.3c0,2.3,0,2.2,2.2,2.3c2.4,0.1,4.7,0.3,7,0.7C32.5,59.8,36.6,61,40.5,63.3z M44.6,63.2c1.4-0.7,2.6-1.3,3.8-1.7
	c5.1-1.9,10.4-2.8,15.8-2.9c1.6,0,1.8-0.2,1.8-1.8c0-4.9,0-9.8,0-14.7c0-8.1,0-16.2,0-24.3c0-2.1,0-2.2-2.1-2
	c-2.7,0.3-5.5,0.4-8.2,1.1c-2.9,0.7-5.7,1.8-8.4,2.9c-1.9,0.8-2.7,2.2-2.7,4.5c0.1,12.2,0,24.5,0,36.8
	C44.6,61.6,44.6,62.3,44.6,63.2z M70.1,22.6c0,0.8,0,1.5,0,2.2c0,10.8,0,21.6,0,32.3c0,3.6-1.9,5.4-5.4,5.6
	c-2.5,0.1-5.1,0.3-7.6,0.7c-2.6,0.4-5.2,1.3-7.8,1.9c0,0.2,0.1,0.3,0.1,0.5c0.5,0,1,0,1.4,0c6.6,0,13.3,0,19.9,0
	c2.3,0,2.5-0.3,2.5-2.5c0-12.7,0-25.5,0-38.2C73.3,22.6,72.8,22.2,70.1,22.6z M35.6,65.7c0-0.1,0-0.2,0-0.3
	c-0.4-0.2-0.9-0.4-1.3-0.5c-4.4-1.6-9-2.2-13.6-2.3c-4,0-5.8-1.9-5.8-5.9c0-11,0-22,0-33c0-0.4,0-0.9-0.1-1.3
	c-2.8-0.3-3.1,0-3.1,2.7c0,7.6,0,15.2,0,22.7c0,5.3,0,10.6,0,15.9c0,1.2,0.4,1.9,1.6,1.9C20.8,65.8,28.2,65.7,35.6,65.7z"/>
</svg>
