<?xml version="1.0" encoding="utf-8"?>
<!-- Generator: Adobe Illustrator 27.4.1, SVG Export Plug-In . SVG Version: 6.00 Build 0)  -->
<svg version="1.1" id="Слой_1" xmlns="http://www.w3.org/2000/svg" xmlns:xlink="http://www.w3.org/1999/xlink" x="0px" y="0px"
	 viewBox="0 0 85 85" style="enable-background:new 0 0 85 85;" xml:space="preserve">
<style type="text/css">
	.st0{fill:url(#SVGID_1_);}
	.st1{fill:url(#SVGID_00000008857841506318056660000004317814862158279574_);}
	.st2{fill:url(#SVGID_00000121270649308431177880000004560269505872535705_);}
	.st3{fill:url(#SVGID_00000110449378290279414640000014443375476633059516_);}
	.st4{fill:url(#SVGID_00000044875318250860411680000007119515577148658061_);}
	.st5{fill:url(#SVGID_00000160898347975422386970000013337740940758992271_);}
	.st6{fill:url(#SVGID_00000137812087379059082920000013579942071474102454_);}
	.st7{fill:url(#SVGID_00000152246685295166421200000012086620537933150648_);}
	.st8{fill:url(#SVGID_00000155137446489291665300000009235047355255443874_);}
	.st9{fill:url(#SVGID_00000029042049154168335710000005484241591682494613_);}
	.st10{fill:url(#SVGID_00000152259189675536313160000001780574789822260157_);}
	.st11{fill:url(#SVGID_00000072985303384619440200000003769388864076942515_);}
	.st12{fill:url(#SVGID_00000119835106127893066080000007209362214139582602_);}
	.st13{fill:url(#SVGID_00000083083690941502001350000009613103966979576212_);}
	.st14{fill:url(#SVGID_00000080175787007628272860000007999714802505119360_);}
</style>
<linearGradient id="SVGID_1_" gradientUnits="userSpaceOnUse" x1="9.9042" y1="42.5197" x2="75.1352" y2="42.5197">
	<stop  offset="0" style="stop-color:#6366F1"/>
	<stop  offset="1" style="stop-color:#8B5CF6"/>
</linearGradient>
<path class="st0" d="M61.9,36.5c0,4.7-1.2,9.1-3.6,13.1c-0.5,0.8-0.1,1.1,0.4,1.5c4.9,4.6,9.7,9.3,14.6,13.9
	c2.3,2.2,2.5,5.4,0.4,7.7c-2,2.3-5.3,2.4-7.5,0.2c-3.6-3.4-7.1-6.8-10.7-10.3c-1.4-1.3-2.8-2.7-4.2-4.1c-0.6-0.6-1-0.7-1.9-0.2
	c-7.9,4.7-16.1,5.2-24.5,1.4C14.9,55.4,8.7,44.3,10.1,33.6C11.5,22.1,19.9,13,31.2,11C47.2,8,62,20.3,61.9,36.5z M35.9,17.1
	c-10.6,0-19.3,8.7-19.3,19.2c0,10.5,8.8,19.3,19.2,19.3c10.6,0,19.4-8.7,19.4-19.2C55.3,25.8,46.6,17.1,35.9,17.1z"/>
</svg>
