<?xml version="1.0" encoding="utf-8"?>
<!-- Generator: Adobe Illustrator 27.4.1, SVG Export Plug-In . SVG Version: 6.00 Build 0)  -->
<svg version="1.1" id="Слой_1" xmlns="http://www.w3.org/2000/svg" xmlns:xlink="http://www.w3.org/1999/xlink" x="0px" y="0px"
	 viewBox="0 0 85 85" style="enable-background:new 0 0 85 85;" xml:space="preserve">
<style type="text/css">
	.st0{fill:url(#SVGID_1_);}
	.st1{fill:url(#SVGID_00000048461854119688344510000010371074166571026336_);}
	.st2{fill:url(#SVGID_00000142867297484781916710000005460443438859560864_);}
	.st3{fill:url(#SVGID_00000140698717576349437420000007348564864972491651_);}
	.st4{fill:url(#SVGID_00000074426607001202466060000018384941639871450257_);}
	.st5{fill:url(#SVGID_00000047772143943830052290000010361209111267953819_);}
	.st6{fill:url(#SVGID_00000097473418303944303670000003087516238935247004_);}
	.st7{fill:url(#SVGID_00000161633000964934953100000007797033254782028733_);}
	.st8{fill:url(#SVGID_00000174602299179391886130000014035329305216546750_);}
	.st9{fill:url(#SVGID_00000170989495609640044550000013799528187738054589_);}
	.st10{fill:url(#SVGID_00000150096355220405412620000009002024017283745431_);}
	.st11{fill:url(#SVGID_00000077316781906457401740000005051681966794142100_);}
	.st12{fill:url(#SVGID_00000147901072790494786360000004663435406437888419_);}
	.st13{fill:url(#SVGID_00000083775048586644590220000006997683563106698653_);}
	.st14{fill:url(#SVGID_00000071517282498522442460000006792137022373973688_);}
	.st15{fill:url(#SVGID_00000139975273402127217660000000392278464023200170_);}
	.st16{fill:url(#SVGID_00000076597250182702095070000018003641282010686853_);}
	.st17{fill:url(#SVGID_00000034074803767791993280000000674345577871056575_);}
	.st18{fill:url(#SVGID_00000150097969707988918220000013643178051530621831_);}
	.st19{fill:url(#SVGID_00000142877969904753254220000014953310878729198505_);}
	.st20{fill:url(#SVGID_00000150065653248539270780000005707627809064616104_);}
	.st21{fill:url(#SVGID_00000001630729584502959660000004716092685431107488_);}
	.st22{fill:url(#SVGID_00000073708112273322457080000010932340479917173153_);}
	.st23{fill:url(#SVGID_00000034777852983632282810000007334481204654600116_);}
	.st24{fill:url(#SVGID_00000005975976489990662090000012803881802436811449_);}
	.st25{fill:url(#SVGID_00000150813728609827684950000003180410293240045455_);}
	.st26{fill:url(#SVGID_00000083767200914263110630000016384607690282382500_);}
	.st27{fill:url(#SVGID_00000091712960101942277460000013399882040527284112_);}
	.st28{fill:url(#SVGID_00000103960391500602563200000011245766315424742824_);}
	.st29{fill:url(#SVGID_00000055694770809130150000000004157253811683429254_);}
	.st30{fill:url(#SVGID_00000152265147433037878180000012490650843128793475_);}
	.st31{fill:url(#SVGID_00000036945608358922453520000017089126601005992836_);}
	.st32{fill:url(#SVGID_00000118357170765845083440000004564959874953457581_);}
	.st33{fill:url(#SVGID_00000132053378759146852910000010329162368235193756_);}
	.st34{fill:url(#SVGID_00000088114741281496832230000006304648995007835806_);}
	.st35{fill:url(#SVGID_00000147185989695517093140000012845490559651385504_);}
	.st36{fill:url(#SVGID_00000013168671437473927800000010243243807748231337_);}
	.st37{fill:url(#SVGID_00000157280459667495446100000012818567097616748479_);}
	.st38{fill:url(#SVGID_00000165206984859204166020000008029289206425965464_);}
	.st39{fill:url(#SVGID_00000079445631568665015490000013340550064426931850_);}
	.st40{fill:url(#SVGID_00000067940603583965993320000008980757511659085989_);}
	.st41{fill:url(#SVGID_00000016790294983175617410000009915379402402942101_);}
	.st42{fill:url(#SVGID_00000141426398660164570410000007371993150967068804_);}
	.st43{fill:url(#SVGID_00000124867195679646170440000013780228692369975224_);}
	.st44{fill:url(#SVGID_00000029764986608418977690000017839494026911828101_);}
</style>
<g>
	<linearGradient id="SVGID_1_" gradientUnits="userSpaceOnUse" x1="-7.4928" y1="46.4945" x2="78.4427" y2="46.4945">
		<stop  offset="0" style="stop-color:#6366F1"/>
		<stop  offset="1" style="stop-color:#8B5CF6"/>
	</linearGradient>
	<path class="st0" d="M45.3,82.3c-19.6,0-35.8-16.1-35.8-35.9c0-19.8,16-35.8,35.8-35.8c19.9,0,35.9,15.8,35.9,35.6
		C81.2,66.2,65.2,82.3,45.3,82.3z M14.5,46.4c0.1,17.2,13.9,31,31.1,31c16.8-0.1,30.7-14.2,30.7-31c-0.1-17.1-14-30.9-30.9-30.8
		C28.1,15.6,14.4,29.4,14.5,46.4z"/>
	
		<linearGradient id="SVGID_00000007394451908177439580000013631259643265005705_" gradientUnits="userSpaceOnUse" x1="-7.4928" y1="43.5808" x2="78.4427" y2="43.5808">
		<stop  offset="0" style="stop-color:#6366F1"/>
		<stop  offset="1" style="stop-color:#8B5CF6"/>
	</linearGradient>
	<path style="fill:url(#SVGID_00000007394451908177439580000013631259643265005705_);" d="M47.1,36c0,1.6,0,3.2,0,4.8
		c0,1.3-0.2,2.7,1.1,3.6c0.4,0.3,0.6,1,0.6,1.4c-0.1,1.2,0.5,1.9,1.3,2.6c2.5,2.4,4.9,4.9,7.4,7.3c0.4,0.4,0.9,0.8,0.9,1.2
		c0,0.7-0.3,1.6-0.8,2c-0.8,0.7-1.7,0.2-2.4-0.5c-2.6-2.6-5.2-5.1-7.8-7.7c-0.7-0.7-1.3-1.2-2.4-1.1c-1.4,0.1-2.3-0.8-2.9-2
		c-0.6-1.3-0.4-2.7,0.6-3.7c0.7-0.7,0.9-1.4,0.9-2.4c0-4,0-8,0-12c0-0.6,0.5-1.4,1-1.8c0.3-0.3,1.3-0.2,1.7,0.1
		c0.4,0.4,0.7,1.1,0.7,1.7C47.1,31.8,47.1,33.9,47.1,36C47.1,36,47.1,36,47.1,36z"/>
	
		<linearGradient id="SVGID_00000082345831922296281660000017343124332341512595_" gradientUnits="userSpaceOnUse" x1="-7.4928" y1="46.4149" x2="78.4427" y2="46.4149">
		<stop  offset="0" style="stop-color:#6366F1"/>
		<stop  offset="1" style="stop-color:#8B5CF6"/>
	</linearGradient>
	<path style="fill:url(#SVGID_00000082345831922296281660000017343124332341512595_);" d="M20,48.3c-0.5,0-1.1,0-1.6-0.1
		c-1-0.1-1.6-0.8-1.6-1.8c0-1,0.5-1.8,1.5-1.9c1.2-0.1,2.4-0.1,3.6,0c1,0.1,1.5,0.9,1.5,1.9c0,1-0.6,1.6-1.6,1.7
		C21.1,48.3,20.5,48.2,20,48.3C20,48.3,20,48.3,20,48.3z"/>
	
		<linearGradient id="SVGID_00000148622671776441480170000008356926418852184211_" gradientUnits="userSpaceOnUse" x1="-7.4928" y1="46.4166" x2="78.4427" y2="46.4166">
		<stop  offset="0" style="stop-color:#6366F1"/>
		<stop  offset="1" style="stop-color:#8B5CF6"/>
	</linearGradient>
	<path style="fill:url(#SVGID_00000148622671776441480170000008356926418852184211_);" d="M70.6,48.3c-0.5,0-1.1,0-1.6,0
		c-1.1-0.1-1.7-0.8-1.6-1.7c0.1-0.7,0.8-1.7,1.3-1.8c1.2-0.3,2.5-0.2,3.8-0.1c1,0.1,1.5,0.9,1.4,2c-0.1,1-0.6,1.5-1.6,1.6
		C71.7,48.3,71.2,48.3,70.6,48.3C70.6,48.3,70.6,48.3,70.6,48.3z"/>
	
		<linearGradient id="SVGID_00000021079347208403119160000016488258438347445930_" gradientUnits="userSpaceOnUse" x1="-7.4928" y1="71.742" x2="78.4427" y2="71.742">
		<stop  offset="0" style="stop-color:#6366F1"/>
		<stop  offset="1" style="stop-color:#8B5CF6"/>
	</linearGradient>
	<path style="fill:url(#SVGID_00000021079347208403119160000016488258438347445930_);" d="M47.2,71.8c0,0.5,0,1.1,0,1.6
		c-0.1,1-0.7,1.6-1.7,1.6c-1,0-1.8-0.5-1.9-1.5c-0.1-1.2-0.1-2.4,0-3.6c0.1-1,0.9-1.5,1.9-1.5c1,0.1,1.6,0.7,1.7,1.7
		C47.2,70.7,47.2,71.2,47.2,71.8z"/>
	
		<linearGradient id="SVGID_00000141449430457542288020000010505464488326285203_" gradientUnits="userSpaceOnUse" x1="-7.4928" y1="21.0992" x2="78.4427" y2="21.0992">
		<stop  offset="0" style="stop-color:#6366F1"/>
		<stop  offset="1" style="stop-color:#8B5CF6"/>
	</linearGradient>
	<path style="fill:url(#SVGID_00000141449430457542288020000010505464488326285203_);" d="M47.2,21.2c0,0.5,0,1,0,1.5
		c-0.1,1-0.7,1.6-1.6,1.7c-1,0.1-1.8-0.4-2-1.4c-0.2-1.2-0.2-2.4,0-3.6c0.1-1,0.9-1.5,1.9-1.5c1,0.1,1.6,0.7,1.7,1.7
		C47.2,20.1,47.2,20.6,47.2,21.2C47.2,21.2,47.2,21.2,47.2,21.2z"/>
	
		<linearGradient id="SVGID_00000102545251910778716030000015965902657319514271_" gradientUnits="userSpaceOnUse" x1="-7.4928" y1="59.2371" x2="78.4427" y2="59.2371">
		<stop  offset="0" style="stop-color:#6366F1"/>
		<stop  offset="1" style="stop-color:#8B5CF6"/>
	</linearGradient>
	<path style="fill:url(#SVGID_00000102545251910778716030000015965902657319514271_);" d="M69.9,59.6c0,1.3-1,1.9-1.9,1.5
		c-0.9-0.4-1.9-0.9-2.6-1.6c-0.4-0.4-0.6-1.3-0.4-1.8c0.1-0.3,1.2-0.6,1.6-0.5c0.9,0.3,1.7,0.9,2.5,1.4
		C69.6,58.9,69.8,59.5,69.9,59.6z"/>
	
		<linearGradient id="SVGID_00000000218008084390064970000010664417060497560487_" gradientUnits="userSpaceOnUse" x1="-7.4928" y1="33.8907" x2="78.4427" y2="33.8907">
		<stop  offset="0" style="stop-color:#6366F1"/>
		<stop  offset="1" style="stop-color:#8B5CF6"/>
	</linearGradient>
	<path style="fill:url(#SVGID_00000000218008084390064970000010664417060497560487_);" d="M24.5,36.1c-1.3-0.9-2.5-1.7-3.6-2.6
		c-0.2-0.2-0.1-1.1,0.2-1.4c0.3-0.3,1-0.6,1.4-0.4c1,0.5,2,1,2.9,1.8c0.3,0.3,0.5,1.1,0.3,1.5C25.6,35.4,25,35.7,24.5,36.1z"/>
	
		<linearGradient id="SVGID_00000114761217074547511000000014152855170482184333_" gradientUnits="userSpaceOnUse" x1="-7.4928" y1="68.5412" x2="78.4427" y2="68.5412">
		<stop  offset="0" style="stop-color:#6366F1"/>
		<stop  offset="1" style="stop-color:#8B5CF6"/>
	</linearGradient>
	<path style="fill:url(#SVGID_00000114761217074547511000000014152855170482184333_);" d="M58.6,71.1c-0.2-0.1-0.6-0.1-0.8-0.4
		c-0.7-1-1.3-2.1-1.8-3.2c-0.1-0.3,0.3-1.1,0.6-1.3c0.4-0.2,1.3-0.2,1.5,0.1c0.7,1,1.4,2.1,1.9,3.2C60.4,70.2,59.7,71,58.6,71.1z"/>
	
		<linearGradient id="SVGID_00000179604267805900135460000015859030611910412979_" gradientUnits="userSpaceOnUse" x1="-7.4928" y1="59.0589" x2="78.4427" y2="59.0589">
		<stop  offset="0" style="stop-color:#6366F1"/>
		<stop  offset="1" style="stop-color:#8B5CF6"/>
	</linearGradient>
	<path style="fill:url(#SVGID_00000179604267805900135460000015859030611910412979_);" d="M25.9,58.7c-0.1,0.2-0.2,0.6-0.5,0.8
		c-0.9,0.6-1.8,1.2-2.8,1.6c-0.4,0.2-1.4-0.1-1.6-0.4c-0.2-0.4-0.1-1.4,0.2-1.7c0.8-0.7,1.8-1.3,2.8-1.7
		C24.9,56.7,25.9,57.5,25.9,58.7z"/>
	
		<linearGradient id="SVGID_00000103223057519184007930000013126911723652483240_" gradientUnits="userSpaceOnUse" x1="-7.4928" y1="24.3565" x2="78.4427" y2="24.3565">
		<stop  offset="0" style="stop-color:#6366F1"/>
		<stop  offset="1" style="stop-color:#8B5CF6"/>
	</linearGradient>
	<path style="fill:url(#SVGID_00000103223057519184007930000013126911723652483240_);" d="M60.3,23.3c-0.8,1.2-1.4,2.4-2.2,3.4
		c-0.2,0.3-1.1,0.2-1.5,0c-0.3-0.2-0.7-1-0.5-1.3c0.5-1.1,1.1-2.2,1.9-3.2c0.2-0.3,1-0.3,1.4-0.1C59.8,22.2,60,22.8,60.3,23.3z"/>
	
		<linearGradient id="SVGID_00000047044597605355070490000006355755063752686755_" gradientUnits="userSpaceOnUse" x1="-7.4928" y1="33.6269" x2="78.4427" y2="33.6269">
		<stop  offset="0" style="stop-color:#6366F1"/>
		<stop  offset="1" style="stop-color:#8B5CF6"/>
	</linearGradient>
	<path style="fill:url(#SVGID_00000047044597605355070490000006355755063752686755_);" d="M70,33.1c-0.1,0.2-0.2,0.7-0.5,0.9
		c-0.9,0.6-1.9,1.3-2.9,1.7c-0.4,0.2-1.3-0.2-1.6-0.5c-0.2-0.3-0.2-1.3,0.1-1.5c1-0.8,2-1.5,3.2-1.9C69.2,31.3,69.8,32,70,33.1z"/>
	
		<linearGradient id="SVGID_00000093169362590887152080000002707807712455263111_" gradientUnits="userSpaceOnUse" x1="-7.4928" y1="68.4501" x2="78.4427" y2="68.4501">
		<stop  offset="0" style="stop-color:#6366F1"/>
		<stop  offset="1" style="stop-color:#8B5CF6"/>
	</linearGradient>
	<path style="fill:url(#SVGID_00000093169362590887152080000002707807712455263111_);" d="M34.9,67.3c-0.8,1.2-1.3,2.4-2.1,3.4
		c-0.2,0.3-1.2,0.3-1.5,0.1c-0.4-0.2-0.7-1.1-0.6-1.4c0.5-1.1,1.1-2.1,1.8-3.1c0.2-0.3,1-0.4,1.4-0.2C34.3,66.2,34.5,66.9,34.9,67.3
		z"/>
	
		<linearGradient id="SVGID_00000000916625459177210580000001480448380468475042_" gradientUnits="userSpaceOnUse" x1="-7.4928" y1="24.3482" x2="78.4427" y2="24.3482">
		<stop  offset="0" style="stop-color:#6366F1"/>
		<stop  offset="1" style="stop-color:#8B5CF6"/>
	</linearGradient>
	<path style="fill:url(#SVGID_00000000916625459177210580000001480448380468475042_);" d="M35,25.6c-0.5,0.5-0.8,1.1-1.2,1.2
		c-0.5,0.1-1.2,0-1.5-0.4c-0.7-0.9-1.2-1.8-1.6-2.9c-0.2-0.4,0.1-1.2,0.5-1.5c0.3-0.3,1.2-0.3,1.4-0.1C33.4,23.1,34.1,24.3,35,25.6z
		"/>
</g>
</svg>
