<?xml version="1.0" encoding="utf-8"?>
<!-- Generator: Adobe Illustrator 27.4.1, SVG Export Plug-In . SVG Version: 6.00 Build 0)  -->
<svg version="1.1" id="Слой_1" xmlns="http://www.w3.org/2000/svg" xmlns:xlink="http://www.w3.org/1999/xlink" x="0px" y="0px"
	 viewBox="0 0 85 85" style="enable-background:new 0 0 85 85;" xml:space="preserve">
<style type="text/css">
	.st0{fill:url(#SVGID_1_);}
	.st1{fill:url(#SVGID_00000125571883185935220800000007800034268170854585_);}
	.st2{fill:url(#SVGID_00000141445237655374660900000015298198355988694158_);}
	.st3{fill:url(#SVGID_00000065756225547356333250000004525498175939332482_);}
	.st4{fill:url(#SVGID_00000183226260461197489340000004646849313179231883_);}
	.st5{fill:url(#SVGID_00000034778657271358650690000007158861360450696848_);}
	.st6{fill:url(#SVGID_00000049935176117091950320000013677460784387573394_);}
	.st7{fill:url(#SVGID_00000135654023760154322300000014615492993499127480_);}
	.st8{fill:url(#SVGID_00000015332736785226597890000012543009000671549609_);}
	.st9{fill:url(#SVGID_00000147202359775195089060000012122702130621139123_);}
	.st10{fill:url(#SVGID_00000093147543964651387060000009339460470233844151_);}
	.st11{fill:url(#SVGID_00000112633113935219344000000013460497100136911522_);}
	.st12{fill:url(#SVGID_00000062904780416329463840000003274532711928547488_);}
	.st13{fill:url(#SVGID_00000020358027079438976620000013824319119666206119_);}
	.st14{fill:url(#SVGID_00000101781600770113893610000007670253919861848507_);}
	.st15{fill:url(#SVGID_00000025409945199655242220000003528771596481997451_);}
	.st16{fill:url(#SVGID_00000051357518485675675480000002074630742826424713_);}
	.st17{fill:url(#SVGID_00000001628076549253390320000000104263611313110959_);}
	.st18{fill:url(#SVGID_00000178198171252972804780000002863954002956497537_);}
	.st19{fill:url(#SVGID_00000046330190793978338750000010241462349093365173_);}
	.st20{fill:url(#SVGID_00000047755904191241032350000012278816431491511174_);}
	.st21{fill:url(#SVGID_00000010306375774376816440000018099114045854152860_);}
	.st22{fill:url(#SVGID_00000045590008668095074350000000560907177777634181_);}
	.st23{fill:url(#SVGID_00000109729696193962168960000009920476103038193794_);}
	.st24{fill:url(#SVGID_00000085971123506203981130000004890281937650367422_);}
	.st25{fill:url(#SVGID_00000142877308683245489580000014077576368220147894_);}
	.st26{fill:url(#SVGID_00000063598007620965046760000003994909008569579395_);}
	.st27{fill:url(#SVGID_00000109018562234010495710000006172002469970303132_);}
	.st28{fill:url(#SVGID_00000075137665203896506010000005524330034602766733_);}
	.st29{fill:url(#SVGID_00000033347628260468468630000009983463997521903518_);}
	.st30{fill:url(#SVGID_00000120537805000951256590000008608051803062917773_);}
	.st31{fill:url(#SVGID_00000126322877361938860680000016368033876151689134_);}
	.st32{fill:url(#SVGID_00000163777521448075557070000000888647384587170735_);}
	.st33{fill:url(#SVGID_00000165210883540911527320000013253097155706704292_);}
	.st34{fill:url(#SVGID_00000176736075844483399230000014216903422291713930_);}
	.st35{fill:url(#SVGID_00000173876357000282406080000001962142031822929292_);}
	.st36{fill:url(#SVGID_00000017509836301737493110000004511939656989614005_);}
	.st37{fill:url(#SVGID_00000179626174094107576050000006039903127268106139_);}
	.st38{fill:url(#SVGID_00000085964246031614292370000016150798698812212123_);}
	.st39{fill:url(#SVGID_00000096047587867570882750000000849358383113798827_);}
	.st40{fill:url(#SVGID_00000031905240379110159340000003110907368453775020_);}
	.st41{fill:url(#SVGID_00000157310239812556358480000012492352693796677798_);}
	.st42{fill:url(#SVGID_00000110446177383387523610000014372831466501255331_);}
	.st43{fill:url(#SVGID_00000148630627102007697200000001724568714459729537_);}
	.st44{fill:url(#SVGID_00000000944866097360791970000016609984051900863114_);}
</style>
<g>
	<linearGradient id="SVGID_1_" gradientUnits="userSpaceOnUse" x1="5.4945" y1="42.5197" x2="84.4623" y2="42.5197">
		<stop  offset="0" style="stop-color:#6366F1"/>
		<stop  offset="1" style="stop-color:#8B5CF6"/>
	</linearGradient>
	<path class="st0" d="M23.1,32.5c0-2.4-0.1-4.7,0-7c0.3-7.7,3.6-13.6,10.4-17.2c6.8-3.6,13.6-3.1,20,1.2c5.3,3.6,8,8.9,8.3,15.3
		c0.1,2.5,0,5.1,0,7.5c1.4,0.5,2.9,0.8,4.1,1.5c3.4,1.9,5.2,4.8,5.2,8.7c0.1,8.8,0.1,17.6,0,26.3c0,5.7-4.3,10.1-10.1,10.1
		c-12.3,0-24.7,0-37,0c-6,0-10.3-4.3-10.3-10.3c0-8.7,0-17.4,0-26.1C13.8,37.4,17.2,33.8,23.1,32.5z M42.5,37.5
		c-6.1,0-12.1,0-18.2,0c-3.4,0-5.6,2.1-5.6,5.5c0,8.6,0,17.1,0,25.7c0,3.4,2.2,5.5,5.6,5.5c12.1,0,24.3,0,36.4,0
		c3.5,0,5.6-2.1,5.7-5.5c0-8.5,0-16.9,0-25.4c0-3.6-2.2-5.7-5.8-5.7C54.5,37.5,48.5,37.5,42.5,37.5z M55,32.6c0-2.6,0.1-5.1,0-7.6
		c-0.2-6-5.2-11.3-11.1-11.8c-6.4-0.6-12.3,3.5-13.5,9.7c-0.6,3.2-0.4,6.4-0.5,9.8C38.4,32.6,46.6,32.6,55,32.6z"/>
	
		<linearGradient id="SVGID_00000178917669955793909050000017964155939947861934_" gradientUnits="userSpaceOnUse" x1="5.4945" y1="55.8353" x2="84.4623" y2="55.8353">
		<stop  offset="0" style="stop-color:#6366F1"/>
		<stop  offset="1" style="stop-color:#8B5CF6"/>
	</linearGradient>
	<path style="fill:url(#SVGID_00000178917669955793909050000017964155939947861934_);" d="M42.5,66.2c-0.9,0-1.9,0-2.8,0
		c-1.4,0-1.8-0.6-1.6-2c0.4-2.1,0.7-4.3,1.2-6.4c0.2-0.9,0.1-1.5-0.7-2.2c-2.5-2.3-2.5-6-0.2-8.3c2.4-2.4,6.1-2.4,8.4,0.1
		c2.2,2.4,2,6.2-0.5,8.5c-0.4,0.3-0.6,1.1-0.6,1.5c0.3,2.2,0.8,4.5,1.1,6.7c0.3,1.7-0.1,2.1-1.8,2.1C44.2,66.2,43.4,66.2,42.5,66.2
		C42.5,66.2,42.5,66.2,42.5,66.2z"/>
</g>
</svg>
