<?xml version="1.0" encoding="utf-8"?>
<!-- Generator: Adobe Illustrator 27.4.1, SVG Export Plug-In . SVG Version: 6.00 Build 0)  -->
<svg version="1.1" id="Слой_1" xmlns="http://www.w3.org/2000/svg" xmlns:xlink="http://www.w3.org/1999/xlink" x="0px" y="0px"
	 viewBox="0 0 85 85" style="enable-background:new 0 0 85 85;" xml:space="preserve">
<style type="text/css">
	.st0{fill:url(#SVGID_1_);}
	.st1{fill:url(#SVGID_00000070117889350520047440000002122558201469807764_);}
	.st2{fill:url(#SVGID_00000096777572119746830020000004437508911855222458_);}
	.st3{fill:url(#SVGID_00000073720153432581171240000000675492648449925817_);}
	.st4{fill:url(#SVGID_00000114772808802185987610000004457779800105938071_);}
	.st5{fill:url(#SVGID_00000031168185403453548920000010976387917688783293_);}
	.st6{fill:url(#SVGID_00000044160424512636468030000000153765315557094054_);}
	.st7{fill:url(#SVGID_00000106857601339432900220000001325163512704223131_);}
	.st8{fill:url(#SVGID_00000040550664960831644930000008924232656890450307_);}
	.st9{fill:url(#SVGID_00000165225090020465393510000001301426837938818454_);}
	.st10{fill:url(#SVGID_00000168106778142277506660000002601766094856618374_);}
	.st11{fill:url(#SVGID_00000178910454884486849400000018056509386460868276_);}
	.st12{fill:url(#SVGID_00000150062381948879329020000000360533558102512266_);}
	.st13{fill:url(#SVGID_00000005243249084070010460000017888978039871486903_);}
	.st14{fill:url(#SVGID_00000013188442965953489220000012090906437031062204_);}
	.st15{fill:url(#SVGID_00000087409834422230202680000005699861119943317915_);}
	.st16{fill:url(#SVGID_00000137094517459616050080000003365851317092136854_);}
	.st17{fill:url(#SVGID_00000165918098157162355560000014022757067123305381_);}
	.st18{fill:url(#SVGID_00000008840178561275575190000002132344097793157789_);}
	.st19{fill:url(#SVGID_00000052105993278848083330000002893877307325190847_);}
	.st20{fill:url(#SVGID_00000109708105011138143010000015363482766553736365_);}
	.st21{fill:url(#SVGID_00000034771889704377310310000016789256400566685847_);}
	.st22{fill:url(#SVGID_00000127014455733212219920000011555249448271419324_);}
	.st23{fill:url(#SVGID_00000034062379669320491570000003411701098885485956_);}
	.st24{fill:url(#SVGID_00000106127381583253645390000011788440578646916778_);}
	.st25{fill:url(#SVGID_00000163771717156719992440000006722262605870193593_);}
	.st26{fill:url(#SVGID_00000028282890109034402460000011678116316786925192_);}
	.st27{fill:url(#SVGID_00000009586910087707263060000017423963239252891824_);}
	.st28{fill:url(#SVGID_00000049939766962404058740000006536887492558748584_);}
	.st29{fill:url(#SVGID_00000021835383295094402520000014496156914878753677_);}
	.st30{fill:url(#SVGID_00000180326779335500344490000014504162707700856731_);}
	.st31{fill:url(#SVGID_00000057109508905270666100000001428346328326931644_);}
	.st32{fill:url(#SVGID_00000103970385088871361900000011518914086383503544_);}
	.st33{fill:url(#SVGID_00000139987588889757596420000005743364625377925265_);}
	.st34{fill:url(#SVGID_00000151503378432390133550000007732668471873329293_);}
	.st35{fill:url(#SVGID_00000043422165038417335860000002153437812419366588_);}
	.st36{fill:url(#SVGID_00000016775417881643952160000006162965566169961380_);}
	.st37{fill:url(#SVGID_00000053538509251425565290000013778869584484071835_);}
	.st38{fill:url(#SVGID_00000055705967469199950090000011462522616478428570_);}
	.st39{fill:url(#SVGID_00000097498601771216792020000016418378916165268368_);}
	.st40{fill:url(#SVGID_00000144304103993588316480000001710222485593807540_);}
	.st41{fill:url(#SVGID_00000094607872436321158610000014512683544789892266_);}
	.st42{fill:url(#SVGID_00000125580083328997604040000010126190299030405547_);}
	.st43{fill:url(#SVGID_00000104672038978680044490000010906695639548161709_);}
	.st44{fill:url(#SVGID_00000060736929792017066240000011578206514180459681_);}
	.st45{fill:#FFFFFF;}
	.st46{fill:url(#SVGID_00000009555572236105864460000006160903515806779805_);}
</style>
<g>
	<g>
		<linearGradient id="SVGID_1_" gradientUnits="userSpaceOnUse" x1="4.9267" y1="42.5197" x2="80.1126" y2="42.5197">
			<stop  offset="0" style="stop-color:#6366F1"/>
			<stop  offset="1" style="stop-color:#8B5CF6"/>
		</linearGradient>
		<path class="st0" d="M42.5,5c21.4,0.1,38,17.5,37.6,38.3C79.7,64.1,62.4,80.5,41.6,80C21.4,79.5,4.5,63,4.9,41.8
			C5.3,21.2,22.2,5.1,42.5,5z M42.5,8.5c-3,0-5.5,0.4-8,0.9c-3.5,0.8-6.7,2.2-9.8,4c-2.9,1.7-5.4,3.9-7.6,6.3
			c-2.8,3.1-4.9,6.6-6.4,10.5c-1.8,4.6-2.5,9.4-2.2,14.3c0.2,2.8,0.6,5.4,1.5,8.1c1.3,4.2,3.4,8,6.2,11.4c0.4,0.4,0.7,0.8,1.1,1.3
			c0.1,0.1,0.2,0.2,0.4,0c1.2-1.2,2.7-1.9,4.3-2.3c1.9-0.5,3.8-0.9,5.7-1.3c1.5-0.4,3.1-0.7,4.5-1.5c0.2-0.1,0.3-0.2,0.3-0.4
			c0-0.9-0.1-1.8,0-2.6c0-0.6,0-1.2-0.5-1.6c-0.1,0-0.1-0.1-0.1-0.2c-0.7-1-1.2-2.2-1.6-3.4c-0.5-1.5-1.3-2.9-2.4-4.2
			c-0.5-0.5-0.9-1.2-1.2-1.9c-0.5-1.1-0.9-2.3-1-3.5c-0.2-1.2-0.1-2.3,0.4-3.3c0.5-1,0.7-2.1,0.6-3.2c-0.1-1.3-0.2-2.5,0.1-3.8
			c0.5-2.8,1.5-5.4,3.3-7.6c3.2-3.9,7.2-6.2,12.3-6.2c1.8,0,3.6,0,5.4,0.6c3.1,1,5.8,2.6,7.9,5.1c1.8,2.1,2.8,4.5,3.4,7.2
			c0.4,1.6,0.6,3.1,0.4,4.7c-0.2,1.3,0,2.5,0.7,3.6c0.2,0.3,0.3,0.6,0.3,0.9c0.2,1.3,0,2.5-0.3,3.7c-0.6,2.1-1.7,3.9-3.2,5.4
			c-0.1,0.1-0.2,0.3-0.3,0.5c-0.2,0.5-0.3,1-0.5,1.5c-0.6,1.5-1.5,2.9-2.4,4.3c-0.1,0.2-0.2,0.5-0.3,0.8c0,1,0,2,0,3
			c0,0.3,0.1,0.4,0.3,0.5c1.1,0.6,2.3,1.1,3.6,1.4c1.8,0.4,3.6,0.8,5.4,1.2c1.7,0.4,3.4,1,4.8,2.1c0.5,0.4,0.5,0.3,0.8-0.1
			c1.8-2.1,3.4-4.4,4.6-6.8c1.2-2.4,2.2-4.9,2.8-7.6c0.4-1.9,0.7-3.7,0.8-5.6c0.1-1.8,0.1-3.6-0.1-5.4c-0.3-3.4-1.2-6.8-2.5-9.9
			c-1.4-3.5-3.4-6.6-5.9-9.4c-2-2.3-4.3-4.3-6.8-6c-3-2-6.2-3.4-9.7-4.4C48.5,8.8,45.3,8.4,42.5,8.5z M29.7,39.8
			c-0.3,0.1-0.5,0.1-0.7,0.2c-0.5,0.2-0.6,0.3-0.6,0.8c0.1,0.9,0.1,1.8,0.2,2.7c0.3,1.8,1,3.3,2.7,4.1c0.1,0.1,0.2,0.2,0.3,0.4
			c0.3,0.9,0.5,1.9,0.9,2.8c0.9,2.4,2.3,4.6,4.4,6.3c2.9,2.3,6.2,2.6,9.6,1.3c1.7-0.7,3.1-1.9,4.2-3.4c1.6-2,2.6-4.3,3.2-6.8
			c0.1-0.3,0.2-0.5,0.5-0.7c0.3-0.2,0.7-0.4,0.9-0.7c0.7-0.7,1.1-1.6,1.4-2.5c0.4-1.2,0.4-2.3,0.3-3.5c0-0.6,0-0.6-0.6-0.8
			c-0.6-0.1-0.6-0.1-0.5-0.8c0.3-1.9,0.4-3.9,0.2-5.8c-0.5-3.4-1.8-6.3-4.3-8.7c-2-1.9-4.3-3-7.1-3.2c-1.6-0.1-3.2,0-4.8,0.2
			c-3.5,0.6-6.4,2.3-8.3,5.4c-1.6,2.6-2.2,5.4-2.3,8.3C29.4,36.9,29.5,38.3,29.7,39.8z M19.5,67.7c8.3,7.2,17.7,10.1,28.5,8.4
			c6.8-1.1,12.7-4,17.8-8.8c-0.8-0.3-1.4-0.7-2-0.9c-2.6-1-5.3-1.5-7.9-2.2c-1.3-0.3-2.5-0.7-3.7-1.4c-1.1-0.6-1.8-1.5-1.9-2.8
			c0-0.3,0-0.6-0.1-0.9c-0.1,0.1-0.2,0.1-0.3,0.2c-0.8,0.5-1.5,1.1-2.4,1.4c-2,0.9-4.1,1.2-6.4,0.9c-1.5-0.2-3-0.6-4.2-1.6
			c-0.4-0.3-0.9-0.6-1.5-0.6c0,0.1-0.1,0.1-0.1,0.1c0,0.1,0,0.2,0,0.3c0,1.3-0.6,2.4-1.8,3c-0.9,0.5-1.8,0.9-2.7,1.1
			c-2.2,0.6-4.4,1.1-6.6,1.6C22.7,66.1,21.1,66.6,19.5,67.7z"/>
	</g>
</g>
</svg>
