<?xml version="1.0" encoding="utf-8"?>
<!-- Generator: Adobe Illustrator 27.4.1, SVG Export Plug-In . SVG Version: 6.00 Build 0)  -->
<svg version="1.1" id="Слой_1" xmlns="http://www.w3.org/2000/svg" xmlns:xlink="http://www.w3.org/1999/xlink" x="0px" y="0px"
	 viewBox="0 0 85 85" style="enable-background:new 0 0 85 85;" xml:space="preserve">
<style type="text/css">
	.st0{fill:url(#SVGID_1_);}
	.st1{fill:url(#SVGID_00000101068467037607848250000005043665793237176491_);}
	.st2{fill:url(#SVGID_00000062159908709029181050000011991376587344309133_);}
	.st3{fill:url(#SVGID_00000007389464915589492680000003669429793123014547_);}
	.st4{fill:url(#SVGID_00000083075206515538344360000016023189572311012786_);}
	.st5{fill:url(#SVGID_00000124148431632893136070000008569620412105032582_);}
	.st6{fill:url(#SVGID_00000036951821732616664190000015980286919810783663_);}
	.st7{fill:url(#SVGID_00000003101159587943565970000016098767962403098774_);}
	.st8{fill:url(#SVGID_00000049921191688463588890000018233544042712013213_);}
	.st9{fill:url(#SVGID_00000008827890566731291000000016986274058805980589_);}
	.st10{fill:url(#SVGID_00000096778131659685868410000016088864047962907530_);}
	.st11{fill:url(#SVGID_00000168821401756209820770000017753893456775023285_);}
	.st12{fill:url(#SVGID_00000024719308153747300060000007236344787827197093_);}
	.st13{fill:url(#SVGID_00000134947861799244095000000014394794697597418926_);}
	.st14{fill:url(#SVGID_00000137094852796743902120000014051753326715641738_);}
	.st15{fill:url(#SVGID_00000079458638778441106430000001298192703745515143_);}
	.st16{fill:url(#SVGID_00000041279712694677133380000014559373589155641763_);}
	.st17{fill:url(#SVGID_00000152231888727007855850000000772709335537920656_);}
	.st18{fill:url(#SVGID_00000130645255104582370210000010125513213937082781_);}
	.st19{fill:url(#SVGID_00000147919359549051279450000015519418405472646017_);}
	.st20{fill:url(#SVGID_00000091011463544420730460000002617558792978990260_);}
	.st21{fill:url(#SVGID_00000096035868152351372970000006602744132986493369_);}
	.st22{fill:url(#SVGID_00000102521605885737245860000007483840354277387943_);}
	.st23{fill:url(#SVGID_00000160165031409479995960000015794789291746889631_);}
	.st24{fill:url(#SVGID_00000181781989262415177950000001588680739853211027_);}
	.st25{fill:url(#SVGID_00000131325020796030988220000006064354360036197029_);}
	.st26{fill:url(#SVGID_00000144331644605790712240000008684189608783121287_);}
	.st27{fill:url(#SVGID_00000088852871340788932950000001600608142727991471_);}
	.st28{fill:url(#SVGID_00000069398684819881390900000006652128020198533551_);}
	.st29{fill:url(#SVGID_00000065037249918679986840000014845038590808049825_);}
	.st30{fill:url(#SVGID_00000132809529589953855100000015567550682898370472_);}
	.st31{fill:url(#SVGID_00000136408070245360786390000007622858526686401184_);}
	.st32{fill:url(#SVGID_00000168111065942160612280000009370125925144981911_);}
	.st33{fill:url(#SVGID_00000127044814024311535480000010724285820567579556_);}
	.st34{fill:url(#SVGID_00000028303043299154168290000005469143255442857653_);}
	.st35{fill:url(#SVGID_00000069363463839423727290000000991176223584815264_);}
	.st36{fill:url(#SVGID_00000164498114048678010000000003725866209828669879_);}
	.st37{fill:url(#SVGID_00000006675624582684673790000000786287539682951316_);}
	.st38{fill:url(#SVGID_00000079463487698462360670000014514952732067261570_);}
	.st39{fill:url(#SVGID_00000056427962569725898180000005396981557066432146_);}
	.st40{fill:url(#SVGID_00000083775718539647615250000016545279982972905395_);}
	.st41{fill:url(#SVGID_00000081619997546132937320000016735398719070563491_);}
	.st42{fill:url(#SVGID_00000118386082693690413260000015852016647036446870_);}
	.st43{fill:url(#SVGID_00000000221344559320772250000004361912104270336909_);}
	.st44{fill:url(#SVGID_00000068651086312767464250000011352214584344915328_);}
	.st45{fill:#FFFFFF;}
</style>
<path class="st45" d="M23.9,79.3c0-5.5,0-10.1,0-14.8c-1-0.4-1.8-0.8-2.6-1.1c-6.6-2.3-10.8-6.8-12.6-12.9c-2.9-10-2.7-20,0.3-30
	c1.9-6.2,6.3-10.5,13-12.4c3.9-1.2,8-2.3,12.1-2.4c7.5-0.2,15-0.2,22.4,0.8c13.9,1.9,19.6,7.8,21.3,20.5c0.9,7,0.7,14.1-0.7,21.1
	c-1.7,8.3-6.7,13.8-16,15.9c-6.8,1.5-13.7,2.4-20.7,2.1c-2.7-0.1-4.5,0.7-6.2,2.5C31.1,72.2,27.8,75.4,23.9,79.3z M55.2,58.5
	c4-0.6,6-3,7.9-5.6c1.3-1.8,1-3.5-0.8-4.8c-2.1-1.5-4.2-3.1-6.4-4.4c-3.6-2.1-4.8-2-7.4,1c-1.3,1.5-2.7,1.8-4.5,1.1
	c-4.5-1.6-7.9-4.5-10.3-8.3c-2.2-3.5-2-4.7,1.3-7.5c1.6-1.4,2.2-2.9,1-4.5c-1.9-2.6-3.9-5.3-6.2-7.6c-0.8-0.8-2.8-1.2-3.9-1
	c-5.5,1.3-7.8,5.7-5.7,10.5c6.2,14.2,17.1,24.2,32.5,30.3C53.4,58,54.5,58.3,55.2,58.5z M41.2,17.3c1.3,0.4,2,0.6,2.7,0.7
	c1.2,0.2,2.4,0.2,3.6,0.5c7.5,1.8,12.6,7.5,13.6,14.7c0.2,1.2-0.5,2.8,1.3,3.9C63.5,25.5,52.7,15.1,41.2,17.3z M56.9,34.8
	c0.7-3.9-0.8-7.2-3.9-9.9c-2.9-2.5-6.5-3.5-9.5-2.6C54.1,26.1,54.3,26.3,56.9,34.8z"/>
</svg>
