<?xml version="1.0" encoding="utf-8"?>
<!-- Generator: Adobe Illustrator 27.4.1, SVG Export Plug-In . SVG Version: 6.00 Build 0)  -->
<svg version="1.1" id="_Слой_1" xmlns="http://www.w3.org/2000/svg" xmlns:xlink="http://www.w3.org/1999/xlink" x="0px"
	 y="0px" viewBox="0 0 320 320" style="enable-background:new 0 0 320 320;" xml:space="preserve">
<style type="text/css">
	.st0{fill:url(#SVGID_1_);}
	.st1{fill:url(#SVGID_00000009566074788710048130000012805202216940443780_);}
	.st2{fill:url(#SVGID_00000183228039309224791870000008504966301029395354_);}
	.st3{fill:url(#SVGID_00000010276434772889608270000009557990909291392427_);}
	.st4{fill:url(#SVGID_00000109714638747004405220000007638407745196631993_);}
	.st5{fill:url(#SVGID_00000059299808917963785220000001523970170950084526_);}
	.st6{fill:url(#SVGID_00000031923286242911491360000002728044454778948272_);}
	.st7{fill:url(#SVGID_00000119083981598287585570000003917248220955835780_);}
	.st8{fill:url(#SVGID_00000180360660394090028840000012718572085114059424_);}
</style>
<linearGradient id="SVGID_1_" gradientUnits="userSpaceOnUse" x1="33.5636" y1="190.3416" x2="280.5636" y2="194.3416">
	<stop  offset="0" style="stop-color:#6366F1"/>
	<stop  offset="1" style="stop-color:#8B5CF6"/>
</linearGradient>
<path class="st0" d="M62.3,276.2c-0.2-0.1-0.3-0.4-0.5-0.4c-3.4-1-5.5-3.8-5.6-7.3c0-0.3,0-0.7,0-1c0-48.6,0-97.1,0-145.7
	c0-0.3,0-0.7,0-1.1H71v140.5c0.7,0,1.2,0,1.8,0c26.2,0,52.4,0,78.6,0c0.7,0,1.1,0,1.1-1c0-41.7,0-83.4-0.1-125.1
	c0-8.9,0-17.7,0-26.6c0-1.7,0-1.4,1.4-1.4c4.2,0,8.4,0,12.5,0c0.6,0,0.9,0,0.9,0.8c0,13.5-0.1,27.1-0.1,40.6c0,36.4,0,72.7,0,109.1
	c0,1,0,1.9-0.1,2.9c0,0.5,0.1,0.7,0.6,0.7s1,0,1.4,0c26,0,52,0,78,0c1.5,0,1.5,0,1.5-1.5c0-14.9,0-29.9,0-44.8c0-30.6,0-61.3,0-91.9
	c0-0.8,0-1.5,0-2.3h15v0.9c0,48.5,0,96.9,0,145.4c0,1.2,0,2.4-0.3,3.5c-0.6,2.5-2.3,4.2-4.8,5.1c-0.3,0.1-0.6,0.3-0.9,0.5
	L62.3,276.2L62.3,276.2z"/>
<linearGradient id="SVGID_00000155862380428255497170000002075590557452117921_" gradientUnits="userSpaceOnUse" x1="35.5968" y1="64.7937" x2="282.5968" y2="68.7937">
	<stop  offset="0" style="stop-color:#6366F1"/>
	<stop  offset="1" style="stop-color:#8B5CF6"/>
</linearGradient>
<path style="fill:url(#SVGID_00000155862380428255497170000002075590557452117921_);" d="M276.2,83.5c-0.1,0.4-0.3,0.8-0.4,1.2
	c-0.9,2.9-3.7,5.1-6.8,5.2c-1.7,0.1-3.4,0-5.1,0c-69.8,0-139.6,0-209.4,0c-1.1,0-2.2,0.1-3.4,0c-3.4-0.1-6.1-2.3-7.1-5.5
	c-0.1-0.2-0.2-0.5-0.3-0.7c0-11.3,0-22.6,0-34c0.2-0.3,0.4-0.5,0.5-0.9c0.6-1.9,1.8-3.3,3.6-4.2c0.8-0.4,1.6-0.6,2.4-0.9
	c73.1,0,146.3,0,219.4,0c0.2,0.1,0.4,0.2,0.6,0.3c2.7,0.6,4.5,2.3,5.5,5c0.1,0.3,0.3,0.5,0.4,0.8L276.2,83.5L276.2,83.5z M58.6,74.9
	h202.7c0-0.4,0-0.7,0-1c0-4.4,0-8.7,0-13.1c0-2.2,0-2.2-2.3-2.2c-58.6,0-117.1,0-175.7,0c-7.9,0-15.8,0-23.7,0
	c-0.8,0-1.1,0.2-1.1,1.1c0,4,0,8,0,12C58.6,72.7,58.6,73.8,58.6,74.9L58.6,74.9z"/>
<linearGradient id="SVGID_00000070113394152857337350000000309338179409367432_" gradientUnits="userSpaceOnUse" x1="35.8911" y1="46.6193" x2="282.8911" y2="50.6193">
	<stop  offset="0" style="stop-color:#6366F1"/>
	<stop  offset="1" style="stop-color:#8B5CF6"/>
</linearGradient>
<path style="fill:url(#SVGID_00000070113394152857337350000000309338179409367432_);" d="M50.3,43.8c-0.8,0.3-1.6,0.6-2.4,0.9
	c-1.8,0.8-3,2.3-3.6,4.2c-0.1,0.3-0.3,0.6-0.5,0.9c0-2,0-4,0-6C45.9,43.8,48.1,43.8,50.3,43.8z"/>
<linearGradient id="SVGID_00000001665567304603428160000013715608046131755436_" gradientUnits="userSpaceOnUse" x1="35.9536" y1="42.7594" x2="282.9536" y2="46.7594">
	<stop  offset="0" style="stop-color:#6366F1"/>
	<stop  offset="1" style="stop-color:#8B5CF6"/>
</linearGradient>
<path style="fill:url(#SVGID_00000001665567304603428160000013715608046131755436_);" d="M276.2,49.7c-0.1-0.2-0.3-0.5-0.4-0.8
	c-0.9-2.7-2.7-4.3-5.5-5c-0.2,0-0.4-0.2-0.6-0.3c2.2,0,4.3,0,6.5,0V49.7L276.2,49.7z"/>
<linearGradient id="SVGID_00000117654936251877473010000011271158099581076106_" gradientUnits="userSpaceOnUse" x1="34.4704" y1="134.3438" x2="281.4705" y2="138.3438">
	<stop  offset="0" style="stop-color:#6366F1"/>
	<stop  offset="1" style="stop-color:#8B5CF6"/>
</linearGradient>
<path style="fill:url(#SVGID_00000117654936251877473010000011271158099581076106_);" d="M207.9,166.9c-7.4,0-14.9,0-22.3,0
	c-3.4,0-6.2-2-7.2-5c-0.3-0.9-0.4-1.9-0.4-2.9c0-14.6,0-29.3,0-43.9c0-4.5,3.2-7.7,7.8-7.7c8.2,0,16.4,0,24.6,0c6.5,0,13,0,19.5,0
	c2.6,0,4.6,1,6.2,3c1,1.3,1.5,2.7,1.5,4.3c0,14.9,0,29.8,0,44.7c0,4.4-3.2,7.6-7.7,7.6C222.5,166.9,215.2,166.9,207.9,166.9
	L207.9,166.9L207.9,166.9z M192.8,151.9h30.3c0-0.1,0.1-0.2,0.1-0.3c0-4.1,0-8.2-0.1-12.4c0-5.3,0-10.5,0-15.8c0-1.2,0-1.2-1.2-1.2
	c-9.4,0-18.9,0-28.3,0c-0.3,0-0.5,0-0.8,0.1V151.9L192.8,151.9z"/>
<linearGradient id="SVGID_00000059999170055260622040000012414151627086621849_" gradientUnits="userSpaceOnUse" x1="34.4445" y1="135.9439" x2="281.4445" y2="139.9439">
	<stop  offset="0" style="stop-color:#6366F1"/>
	<stop  offset="1" style="stop-color:#8B5CF6"/>
</linearGradient>
<path style="fill:url(#SVGID_00000059999170055260622040000012414151627086621849_);" d="M82,137.2c0-7.4,0-14.8,0-22.2
	c0-3.4,1.9-6,5.1-7.2c0.8-0.3,1.7-0.4,2.5-0.4c14.7,0,29.4,0,44.1,0c4.7,0,7.9,3.1,7.9,7.8c0,14.7,0,29.5,0,44.2
	c0,4.4-3.2,7.6-7.6,7.6c-14.5,0-29.1,0-43.6,0c-1.7,0-3.3-0.2-4.8-1.1c-2.2-1.3-3.5-3.2-3.6-5.7c-0.1-2.4-0.1-4.9-0.1-7.4
	C82,147.6,82,142.4,82,137.2L82,137.2L82,137.2z M96.9,122.3V152h30.3v-29.7H96.9z"/>
<linearGradient id="SVGID_00000126291288498526963720000002350696309437441968_" gradientUnits="userSpaceOnUse" x1="33.2083" y1="212.2798" x2="280.2083" y2="216.2798">
	<stop  offset="0" style="stop-color:#6366F1"/>
	<stop  offset="1" style="stop-color:#8B5CF6"/>
</linearGradient>
<path style="fill:url(#SVGID_00000126291288498526963720000002350696309437441968_);" d="M82,213.5c0-7.4,0-14.8,0-22.2
	c0-4.3,3.3-7.5,7.6-7.5c14.7,0,29.3,0,43.9,0c4.8,0,8,3.2,8,7.9c0,14.4,0,28.8,0,43.2c0,1.6-0.1,3.1-0.9,4.5c-1.6,3-4.3,4-7.5,4
	c-7.2,0-14.5,0-21.7,0s-14.4,0-21.6-0.1c-4.9,0-7.9-3.1-7.9-8.1C82,228.1,82,220.8,82,213.5L82,213.5L82,213.5z M127.2,229
	c0-0.2,0-0.4,0-0.5c0-4.5-0.1-8.9-0.1-13.4c0-5.2,0-10.5,0-15.7c0-0.8-0.5-0.6-0.9-0.6c-9.6,0-19.1,0-28.7,0c-0.6,0-0.8,0.1-0.8,0.8
	c0,9.6,0,19.2,0.1,28.9c0,0.2,0,0.4,0.1,0.6L127.2,229L127.2,229z"/>
<linearGradient id="SVGID_00000035495601032131112880000016019039080278403261_" gradientUnits="userSpaceOnUse" x1="34.9948" y1="101.9661" x2="281.9948" y2="105.9661">
	<stop  offset="0" style="stop-color:#6366F1"/>
	<stop  offset="1" style="stop-color:#8B5CF6"/>
</linearGradient>
<path style="fill:url(#SVGID_00000035495601032131112880000016019039080278403261_);" d="M256.3,111.8c-2.2,0-4.4,0-6.6,0
	c-0.7,0-0.9-0.2-0.9-0.9c0-3.6,0-7.2,0-10.9c0-0.8,0.5-0.7,1-0.7c2,0,3.9,0,5.9,0c2.4,0,4.8,0,7.2,0c0.8,0,1,0.2,1,1.1
	c0,3.5,0,7,0,10.4c0,0.8-0.2,1-1,1C260.7,111.8,258.5,111.8,256.3,111.8L256.3,111.8L256.3,111.8z"/>
<linearGradient id="SVGID_00000017494236300270066370000005874966697473643964_" gradientUnits="userSpaceOnUse" x1="34.945" y1="105.042" x2="281.945" y2="109.042">
	<stop  offset="0" style="stop-color:#6366F1"/>
	<stop  offset="1" style="stop-color:#8B5CF6"/>
</linearGradient>
<path style="fill:url(#SVGID_00000017494236300270066370000005874966697473643964_);" d="M56.2,99.4c0.4,0,0.8-0.1,1.3-0.1
	c4.2,0,8.5,0,12.7,0c0.8,0,1,0.2,1,1c0,3.5,0,7.1,0,10.6c0,0.5-0.1,0.9-0.7,0.9c-4.7,0-9.3,0-14-0.1c0,0-0.1,0-0.2-0.1L56.2,99.4
	L56.2,99.4z"/>
</svg>
