<?xml version="1.0" encoding="utf-8"?>
<!-- Generator: Adobe Illustrator 27.4.1, SVG Export Plug-In . SVG Version: 6.00 Build 0)  -->
<svg version="1.1" id="Слой_1" xmlns="http://www.w3.org/2000/svg" xmlns:xlink="http://www.w3.org/1999/xlink" x="0px" y="0px"
	 viewBox="0 0 35.2 60.2" style="enable-background:new 0 0 35.2 60.2;" xml:space="preserve">
<style type="text/css">
	.st0{fill:url(#SVGID_1_);}
	.st1{fill:url(#SVGID_00000047776285166651546160000007221628792713872275_);}
	.st2{fill:url(#SVGID_00000080892954933243774390000007703155029254568105_);}
	.st3{fill:url(#SVGID_00000022552728600799393870000007847210143573497760_);}
	.st4{fill:url(#SVGID_00000002371024387005775410000004426318317261456793_);}
	.st5{fill:url(#SVGID_00000169536514260928282580000008348903551506918537_);}
	.st6{fill:url(#SVGID_00000036943532689556495450000013837993484244816514_);}
	.st7{fill:url(#SVGID_00000012432427466317630520000006564737900174431117_);}
	.st8{fill:url(#SVGID_00000069388681050042050770000005486920758652333969_);}
	.st9{fill:url(#SVGID_00000108296165355114786870000007667135462800618375_);}
	.st10{fill:url(#SVGID_00000169521542842559449060000006473181653444914608_);}
</style>
<g>
	<linearGradient id="SVGID_1_" gradientUnits="userSpaceOnUse" x1="7.753480e-03" y1="33.5665" x2="18.2973" y2="33.5665">
		<stop  offset="0" style="stop-color:#6366F1"/>
		<stop  offset="1" style="stop-color:#8B5CF6"/>
	</linearGradient>
	<path class="st0" d="M17.5,60.1c-4.4-0.9-8.7-4.5-12-10.2c-3.1-5.2-4.9-11-5.4-17c-0.4-5.8,1-11.6,4-16.5c1.8-3,4.5-5.4,7.6-7
		c1.8-0.9,3.7-1.7,5.7-2.4l1,2.8c-1.8,0.6-3.5,1.4-5.2,2.2c-2.2,1.1-4.1,2.7-5.6,4.6c-1.7,2.5-2.9,5.3-3.7,8.2
		c-2,6.1-0.1,16,4.3,23.6c2.9,4.9,6.5,8.1,10,8.8L17.5,60.1z"/>
	
		<linearGradient id="SVGID_00000021805270395766264980000017000942584848568708_" gradientUnits="userSpaceOnUse" x1="15.8052" y1="33.5516" x2="35.2222" y2="33.5516">
		<stop  offset="0" style="stop-color:#6366F1"/>
		<stop  offset="1" style="stop-color:#8B5CF6"/>
	</linearGradient>
	<path style="fill:url(#SVGID_00000021805270395766264980000017000942584848568708_);" d="M17.5,60.2c-0.8,0.1-1.6-0.5-1.6-1.4
		s0.5-1.6,1.4-1.6c3.6-0.7,7.1-3.8,10-8.8c4.5-7.6,6.3-17.6,4.3-23.6c-0.8-2.9-2-5.7-3.7-8.2c-1.5-1.9-3.5-3.5-5.6-4.6
		c-1.7-0.8-3.4-1.5-5.2-2.2c-0.8-0.3-1.2-1.1-0.9-1.9C16.3,7.1,17.2,6.7,18,7c1.9,0.7,3.8,1.5,5.7,2.4c2.5,1.3,4.8,3.1,6.5,5.4
		c1.7,2.4,3,5.1,3.9,7.9c1.9,6,1.4,12.2-0.3,18.1c-0.9,3.2-2.2,6.3-3.9,9.2c-3.3,5.7-7.6,9.3-12,10.2C17.7,60.2,17.6,60.2,17.5,60.2
		z"/>
	
		<linearGradient id="SVGID_00000023971272308075548910000000540266851167151745_" gradientUnits="userSpaceOnUse" x1="3.8273" y1="16.237" x2="24.8273" y2="16.237">
		<stop  offset="0" style="stop-color:#6366F1"/>
		<stop  offset="1" style="stop-color:#8B5CF6"/>
	</linearGradient>
	<path style="fill:url(#SVGID_00000023971272308075548910000000540266851167151745_);" d="M6.3,21.4c-0.8,0-1.7-0.1-2.5-0.3l0.8-2.9
		c4.9,1.3,15.7-3.6,17.5-7.2l2.7,1.4C22.4,16.9,12.7,21.4,6.3,21.4z"/>
	
		<linearGradient id="SVGID_00000104665493772713313310000012851060955980389548_" gradientUnits="userSpaceOnUse" x1="13.2873" y1="23.7265" x2="33.2273" y2="23.7265">
		<stop  offset="0" style="stop-color:#6366F1"/>
		<stop  offset="1" style="stop-color:#8B5CF6"/>
	</linearGradient>
	<path style="fill:url(#SVGID_00000104665493772713313310000012851060955980389548_);" d="M32.7,30.2c-4.8-0.7-18.4-5-19.5-12.5
		l3-0.4c0.6,4.6,10.6,9,16.9,9.9L32.7,30.2z"/>
	
		<linearGradient id="SVGID_00000124146700207439794870000008543174982371449021_" gradientUnits="userSpaceOnUse" x1="0.9073" y1="30.7214" x2="23.3273" y2="30.7214">
		<stop  offset="0" style="stop-color:#6366F1"/>
		<stop  offset="1" style="stop-color:#8B5CF6"/>
	</linearGradient>
	<path style="fill:url(#SVGID_00000124146700207439794870000008543174982371449021_);" d="M1.3,37.4l-0.4-3
		c6.8-0.8,18.8-6.1,19.5-10.3l2.9,0.5C22.2,31.4,7.4,36.6,1.3,37.4z"/>
	
		<linearGradient id="SVGID_00000120524277626345712910000016651813679800741311_" gradientUnits="userSpaceOnUse" x1="15.1673" y1="36.5265" x2="32.0373" y2="36.5265">
		<stop  offset="0" style="stop-color:#6366F1"/>
		<stop  offset="1" style="stop-color:#8B5CF6"/>
	</linearGradient>
	<path style="fill:url(#SVGID_00000120524277626345712910000016651813679800741311_);" d="M31.5,43.1c-5.2-0.9-15.6-6.5-16.3-12.8
		l3-0.4c0.5,4.4,9.5,9.5,13.9,10.2L31.5,43.1z"/>
	
		<linearGradient id="SVGID_00000135673595503112403480000016686568143434702980_" gradientUnits="userSpaceOnUse" x1="16.6573" y1="46.1215" x2="28.1373" y2="46.1215">
		<stop  offset="0" style="stop-color:#6366F1"/>
		<stop  offset="1" style="stop-color:#8B5CF6"/>
	</linearGradient>
	<path style="fill:url(#SVGID_00000135673595503112403480000016686568143434702980_);" d="M27.4,52c-3.4-0.8-10.3-5.9-10.8-11.5
		l3-0.3c0.3,4,6.1,8.3,8.5,8.8L27.4,52z"/>
	
		<linearGradient id="SVGID_00000067935337432327728710000010617051336290178209_" gradientUnits="userSpaceOnUse" x1="15.4673" y1="54.1515" x2="23.2973" y2="54.1515">
		<stop  offset="0" style="stop-color:#6366F1"/>
		<stop  offset="1" style="stop-color:#8B5CF6"/>
	</linearGradient>
	<path style="fill:url(#SVGID_00000067935337432327728710000010617051336290178209_);" d="M22.6,57.9c-2.3-0.5-6.8-3.6-7.2-7.2
		l3-0.3c0.2,1.9,3.4,4.2,4.8,4.5L22.6,57.9z"/>
	
		<linearGradient id="SVGID_00000170979282172252050210000016339060258899266438_" gradientUnits="userSpaceOnUse" x1="5.4573" y1="42.4664" x2="22.2173" y2="42.4664">
		<stop  offset="0" style="stop-color:#6366F1"/>
		<stop  offset="1" style="stop-color:#8B5CF6"/>
	</linearGradient>
	<path style="fill:url(#SVGID_00000170979282172252050210000016339060258899266438_);" d="M5.9,49l-0.5-3
		c4.3-0.7,13.2-5.7,13.8-10.1l3,0.4C21.4,42.5,11.1,48.1,5.9,49z"/>
	
		<linearGradient id="SVGID_00000176001483633548060990000015628407582453104030_" gradientUnits="userSpaceOnUse" x1="9.8873" y1="50.1865" x2="21.7673" y2="50.1865">
		<stop  offset="0" style="stop-color:#6366F1"/>
		<stop  offset="1" style="stop-color:#8B5CF6"/>
	</linearGradient>
	<path style="fill:url(#SVGID_00000176001483633548060990000015628407582453104030_);" d="M10.3,54.7l-0.5-2.9c3-0.5,8.6-3.6,8.9-6
		l3,0.4C21.1,50.7,13.5,54.2,10.3,54.7z"/>
	
		<linearGradient id="SVGID_00000001637173589331718440000003251973777060894116_" gradientUnits="userSpaceOnUse" x1="7.8273" y1="5.2715" x2="18.8495" y2="5.2715">
		<stop  offset="0" style="stop-color:#6366F1"/>
		<stop  offset="1" style="stop-color:#8B5CF6"/>
	</linearGradient>
	<path style="fill:url(#SVGID_00000001637173589331718440000003251973777060894116_);" d="M18.8,10.5l-3-0.1c0.4-6.9-7.6-5.4-8-5.5
		l0.5-5C12.2,0.4,19.3,3.2,18.8,10.5z"/>
</g>
</svg>
