<?xml version="1.0" encoding="UTF-8"?>
<svg id="_Слой_1" data-name="Слой 1" xmlns="http://www.w3.org/2000/svg" viewBox="0 0 320 320">
  <defs>
    <style>
      .cls-1 {
        fill: #c4c294;
      }

      .cls-2 {
        fill: #4caf50;
      }
    </style>
  </defs>
  <path class="cls-2" d="m108.29,156.99c0,.48-.31.96-.9,1.56-21.62,23.32-43.13,46.51-64.63,69.83-.48.48-.72,1.21-1.09,1.81-.24-.12-.48-.36-.85-.48.24.24.6.36.85.6.36-.6.6-1.33,1.09-1.81,21.5-23.32,43.13-46.63,64.63-69.83.61-.67.91-1.19.9-1.68Z"/>
  <path class="cls-2" d="m117.41,165.44c-22.71,24.65-45.3,49.05-68.38,73.94h.12c23.05-24.87,45.51-49.25,68.32-73.87-.02-.02-.04-.04-.06-.06Z"/>
  <path class="cls-2" d="m208.75,153.96c18-16.55,35.88-33.1,53.76-49.53,5.07-4.71,10.15-9.3,15.22-14.01.04-.08.09-.15.14-.21-.05.03-.09.06-.14.09-5.07,4.71-10.15,9.3-15.22,14.01-17.88,16.55-35.76,33.1-53.76,49.53-.37.37-.64.7-.82,1,.19-.27.46-.56.82-.88Z"/>
  <path class="cls-2" d="m161.15,181.26c-4.23,3.87-6.77,3.87-10.87-.24l-.1-.1c.07.07.15.15.22.22,4.11,4.11,6.64,4.11,10.87.24,33.34-30.81,66.69-61.61,100.03-92.3,2.78-2.66,5.56-5.32,8.82-8.34-3.26,3.02-6.04,5.68-8.94,8.22-33.34,30.81-66.69,61.61-100.03,92.3Z"/>
  <path class="cls-1" d="m51.45,82.68c-.45-.45-.92-1.03-1.78-1.9.83.94,1.31,1.54,1.9,2.02,10.75,10.75,21.62,21.5,32.5,32.26.03.03.07.07.1.1-.07-.07-.15-.15-.22-.22-10.75-10.75-21.62-21.5-32.5-32.26Z"/>
  <path class="cls-2" d="m194.85,166.89c2.79-2.61,2.9-3.34,4.37-1.95-1.48-1.48-1.58-.7-4.49,1.95-8.7,7.97-17.28,15.95-25.97,23.92-2.5,2.32-5.21,3.9-7.99,4.76,2.84-.85,5.59-2.43,8.11-4.76,8.58-7.97,17.28-16.07,25.97-23.92Z"/>
  <path class="cls-2" d="m49.67,80.78c.86.87,1.33,1.44,1.78,1.9,10.87,10.75,21.75,21.5,32.5,32.26.07.07.15.15.22.22,22,21.88,44,43.76,66,65.76l.1.1c4.11,4.11,6.64,4.11,10.87.24,33.34-30.69,66.69-61.49,100.03-92.3,2.9-2.54,5.68-5.19,8.94-8.22H49.64s.02.02.03.03Z"/>
  <path class="cls-2" d="m49.64,80.75h220.48c-73.69,0-146.78,0-220.6-.12.06.06.1.1.15.16-.01-.01-.02-.02-.03-.03Z"/>
  <path class="cls-2" d="m150.17,180.92c-22-22-44-43.88-66-65.76,22,22,44,43.88,66,65.76Z"/>
  <path class="cls-2" d="m256.59,224.75c-18.48-19.21-36.85-38.42-55.33-57.63-.92-.98-1.55-1.7-2.03-2.19-1.47-1.39-1.58-.66-4.37,1.95-8.7,7.85-17.4,15.95-25.97,23.92-2.52,2.33-5.27,3.91-8.11,4.76-6.21,1.92-12.76.22-18.1-5.12-5.68-5.68-11.36-11.36-17.15-17.03-2.64-2.64-5.28-5.16-8.03-7.91-22.81,24.62-45.27,49.01-68.32,73.87h221.32c-.72-.85-1.21-1.45-1.69-1.93-4.11-4.23-8.09-8.46-12.2-12.68Z"/>
  <path class="cls-2" d="m256.71,224.75c-18.48-19.21-36.85-38.42-55.33-57.63-.99-.99-1.65-1.71-2.15-2.19.48.48,1.11,1.21,2.03,2.19,18.48,19.21,36.85,38.42,55.33,57.63,4.11,4.23,8.09,8.46,12.2,12.68.48.48.97,1.09,1.69,1.93-.72-.85-1.09-1.45-1.57-1.93-4.11-4.23-8.09-8.46-12.2-12.68Z"/>
  <path class="cls-2" d="m142.66,190.44c5.34,5.34,11.89,7.05,18.1,5.12-6.16,1.84-12.69.17-17.98-5.12-5.8-5.68-11.48-11.36-17.15-17.03-2.54-2.66-5.19-5.19-8.09-7.97-.02.02-.04.04-.06.06,2.76,2.75,5.39,5.27,8.03,7.91,5.8,5.68,11.48,11.36,17.15,17.03Z"/>
  <path class="cls-2" d="m277.73,90.41c-5.07,4.71-10.15,9.3-15.22,14.01-17.88,16.43-35.76,32.98-53.76,49.53-.35.32-.62.61-.82.88-.45.79-.26,1.46.7,2.5,22.95,23.8,45.79,47.6,68.74,71.4.48.48.97.85,1.81,1.57,0-11.78,0-23.54,0-35.28,0-35.24,0-70.4,0-105.82-.63.53-.99.78-1.31.99-.05.07-.1.13-.14.21Z"/>
  <path class="cls-2" d="m277.37,228.74c-22.95-23.8-45.79-47.6-68.74-71.4-.96-1.04-1.15-1.71-.7-2.5-.6.84-.4,1.52.7,2.62,22.95,23.8,45.79,47.6,68.74,71.4.48.48.97.85,1.81,1.57v-35.4c0,11.75,0,23.5,0,35.28-.85-.72-1.33-1.09-1.81-1.57Z"/>
  <path class="cls-2" d="m277.87,90.2c.32-.22.68-.47,1.31-.99-.71.4-1.07.65-1.31.99Z"/>
  <path class="cls-2" d="m42.75,228.38c21.5-23.32,43.01-46.51,64.63-69.83.6-.6.9-1.08.9-1.56,0-.48-.31-.93-.9-1.46-21.62-21.38-43.25-42.89-64.75-64.27-.48-.48-.97-.72-1.81-1.33v139.78c.36.12.6.36.85.48.36-.6.6-1.33,1.09-1.81Z"/>
  <path class="cls-2" d="m107.39,155.53c.6.54.9.99.9,1.46,0-.49-.29-.98-.9-1.59-21.62-21.38-43.13-42.89-64.75-64.27-.48-.36-.97-.72-1.81-1.33v.12c.85.6,1.33.85,1.81,1.33,21.5,21.38,43.13,42.89,64.75,64.27Z"/>
</svg>