<?xml version="1.0" encoding="utf-8"?>
<!-- Generator: Adobe Illustrator 27.4.1, SVG Export Plug-In . SVG Version: 6.00 Build 0)  -->
<svg version="1.1" id="_Слой_1" xmlns="http://www.w3.org/2000/svg" xmlns:xlink="http://www.w3.org/1999/xlink" x="0px"
	 y="0px" viewBox="0 0 32 32" style="enable-background:new 0 0 32 32;" xml:space="preserve">
<style type="text/css">
	.st0{fill:url(#SVGID_1_);}
</style>
<linearGradient id="SVGID_1_" gradientUnits="userSpaceOnUse" x1="4.06" y1="15.9978" x2="27.9417" y2="15.9978">
	<stop  offset="0" style="stop-color:#6366F1"/>
	<stop  offset="1" style="stop-color:#8B5CF6"/>
</linearGradient>
<path class="st0" d="M15.2,25c-3.1,0-6.3,0-9.4,0c-1,0-1.7-0.7-1.7-1.7c0-4.3,0-8.5,0-12.8c0-1,0.6-1.6,1.6-1.7c0.2,0,0.3,0,0.5,0
	c0.2,0,0.4-0.1,0.5-0.3C7,8.2,7.3,7.8,7.6,7.4C7.8,7.1,8.2,7,8.5,7c0.9,0,1.9,0,2.8,0c0.7,0,1.2,0.4,1.6,1c0.1,0.2,0.2,0.4,0.3,0.6
	c0.1,0.2,0.2,0.2,0.4,0.2c3.4,0,6.9,0,10.3,0c0.6,0,1.1,0.1,1.4,0.6c0.2,0.2,0.2,0.5,0.3,0.8c0,0.2,0,0.5,0,0.7
	c0,0.2,0.1,0.3,0.3,0.3c0.4,0,0.8,0,1.2,0c0.5,0,0.8,0.4,0.8,0.9c-0.1,0.9-0.3,1.8-0.5,2.7c-0.2,1.1-0.4,2.2-0.6,3.3
	c-0.2,1.2-0.4,2.4-0.6,3.6c-0.1,0.8-0.3,1.5-0.4,2.3c-0.1,0.6-0.6,1-1.2,1C21.5,25,18.3,25,15.2,25L15.2,25z M5.3,21.1
	C5.3,21.1,5.4,21.1,5.3,21.1c0.1-0.3,0.2-0.6,0.2-0.9C5.8,19,6,17.8,6.2,16.6c0.3-1.5,0.5-2.9,0.8-4.3c0.1-0.5,0.3-0.8,0.8-0.9
	c0.2-0.1,0.5-0.1,0.8-0.1c2.1,0,4.2,0,6.3,0c2.1,0,4.2,0,6.4,0c1,0,2,0,3.1,0c0.2,0,0.2-0.1,0.2-0.2c0-0.1,0-0.3,0-0.4
	c0-0.4-0.1-0.5-0.5-0.5c-3.5,0-6.9,0-10.3,0c-0.7,0-1.1-0.3-1.4-0.9C12,9,11.9,8.8,11.8,8.5c-0.1-0.2-0.3-0.3-0.6-0.3
	c-0.8,0-1.6,0-2.4,0c-0.2,0-0.4,0.1-0.5,0.2C8.1,8.8,7.9,9,7.7,9.3C7.5,9.7,7.2,9.9,6.8,10c-0.2,0-0.4,0-0.6,0
	c-0.9,0-0.8,0.1-0.8,0.8c0,3.3,0,6.6,0,9.9C5.3,20.9,5.3,21,5.3,21.1L5.3,21.1z"/>
</svg>
