<?xml version="1.0" encoding="UTF-8"?>
<svg id="_Слой_1" data-name="Слой 1" xmlns="http://www.w3.org/2000/svg" viewBox="0 0 32 32">
  <defs>
    <style>
      .cls-1 {
        fill: #fff;
      }
    </style>
  </defs>
  <path class="cls-1" d="m23.94,10.08c-3.45,0-6.89,0-10.34,0-.68,0-1.13-.29-1.43-.87-.12-.22-.25-.44-.39-.66-.13-.2-.3-.31-.56-.31-.82,0-1.63,0-2.45,0-.22,0-.4.07-.52.25-.19.27-.37.55-.56.83-.23.34-.51.63-.93.71-.2.04-.42.04-.62.04-.87-.01-.82.06-.82.8,0,3.3,0,6.6,0,9.9v.28s.04,0,.06.01c.06-.31.12-.61.17-.92.21-1.18.41-2.36.62-3.54.26-1.45.52-2.89.78-4.34.08-.46.34-.79.78-.93.24-.07.52-.06.78-.06,2.1,0,4.2,0,6.3,0,2.12,0,4.23,0,6.35,0,1.02,0,2.04,0,3.06,0,.19,0,.25-.07.25-.24,0-.15,0-.3,0-.44,0-.44-.08-.52-.53-.52Z"/>
  <path class="cls-1" d="m27.18,11.29c-.39,0-.78-.01-1.17,0-.23,0-.31-.09-.3-.3,0-.24.04-.49-.01-.72-.06-.28-.15-.57-.31-.8-.33-.49-.85-.63-1.42-.63-3.44,0-6.88,0-10.31,0-.21,0-.33-.07-.42-.25-.1-.21-.21-.41-.34-.61-.37-.57-.86-.96-1.57-.98-.93-.02-1.87,0-2.8,0-.37,0-.72.1-.96.39-.32.38-.6.78-.88,1.19-.13.19-.26.29-.49.27-.17-.02-.34,0-.51,0-.99.03-1.63.68-1.63,1.67,0,4.27,0,8.54,0,12.81,0,1,.7,1.69,1.7,1.69,3.13,0,6.27,0,9.4,0s6.32,0,9.47,0c.63,0,1.12-.42,1.22-1.03.12-.75.25-1.51.39-2.26.21-1.19.43-2.39.64-3.58.2-1.1.4-2.2.6-3.31.16-.89.31-1.78.46-2.67.08-.48-.26-.87-.75-.87Zm-5.64,6.57s-.03,0-.04,0c-.19,0-.38,0-.58,0-.64,0-1.28,0-1.92,0-.02,0-.05,0-.07,0-.01.14-.03.28-.04.42-.06.63-.25,1.23-.53,1.8-.23.45-.51.86-.86,1.22-.25.25-.5.49-.79.69-.46.32-.96.57-1.5.73-.32.1-.65.17-.98.2-.08,0-.16.01-.25.02h-.52s-.05,0-.08,0c-.09,0-.19,0-.28-.02-.36-.04-.72-.13-1.07-.24-.13-.04-.26-.1-.39-.16-.08-.04-.08-.08-.01-.14.03-.03.07-.05.11-.07.17-.1.35-.2.53-.31.53-.33.99-.75,1.37-1.25.4-.51.69-1.08.87-1.7.09-.3.15-.61.19-.92.01-.09.01-.18.02-.27h-.07c-.44,0-.89,0-1.33,0-.39,0-.78,0-1.17-.01-.02,0-.04-.02-.06-.02.01-.02.02-.05.03-.07.08-.08.16-.17.24-.25.63-.64,1.26-1.28,1.9-1.91.47-.47.95-.95,1.42-1.42.33-.33.65-.65.98-.98.06-.06.12-.12.18-.19h.02s.02.03.04.05c.55.55,1.11,1.1,1.66,1.66.6.6,1.2,1.2,1.8,1.8.35.35.7.71,1.05,1.06.06.06.12.13.18.2.03.03.02.06-.02.07Zm2.93-6.81c0,.17-.07.24-.25.24-1.02,0-2.04,0-3.06,0-2.12,0-4.23,0-6.35,0-2.1,0-4.2,0-6.3,0-.26,0-.54-.01-.78.06-.44.13-.7.47-.78.93-.26,1.45-.52,2.89-.78,4.34-.21,1.18-.41,2.36-.62,3.54-.05.31-.11.61-.17.92-.02,0-.04,0-.06-.01v-.28c0-3.3,0-6.6,0-9.9,0-.74-.06-.81.82-.8.21,0,.42,0,.62-.04.42-.08.7-.37.93-.71.19-.27.36-.55.56-.83.12-.18.3-.25.52-.25.82,0,1.63,0,2.45,0,.26,0,.43.11.56.31.14.21.27.43.39.66.31.57.75.87,1.43.87,3.45-.01,6.89,0,10.34,0,.45,0,.53.08.53.52,0,.15,0,.3,0,.44Z"/>
</svg>