<?xml version="1.0" encoding="UTF-8"?>
<svg id="_Слой_1" data-name="Слой 1" xmlns="http://www.w3.org/2000/svg" viewBox="0 0 32 32">
  <defs>
    <style>
      .cls-1 {
        fill: #10b981;
      }
    </style>
  </defs>
  <path class="cls-1" d="m10.67,13.78c.97,0,1.95,0,2.92,0,.15,0,.21-.05.25-.18.58-1.81,1.17-3.62,1.76-5.43.01-.04.03-.09.04-.13.05-.18.16-.29.35-.3.2,0,.31.12.37.3.6,1.84,1.2,3.68,1.79,5.53.05.16.12.21.29.21,1.89,0,3.79,0,5.68,0,.21,0,.44-.02.53.25.08.26-.1.39-.28.52-1.54,1.11-3.07,2.23-4.61,3.34-.13.09-.16.16-.11.32.6,1.83,1.19,3.66,1.79,5.48.06.19.09.37-.09.51-.14.11-.31.09-.53-.06-1.55-1.13-3.1-2.25-4.65-3.39-.13-.09-.21-.11-.34,0-1.54,1.13-3.09,2.25-4.64,3.38-.02.01-.03.02-.05.03-.15.12-.32.17-.5.05-.18-.12-.17-.3-.11-.48.16-.48.31-.96.47-1.44.44-1.36.88-2.72,1.33-4.08.05-.14.02-.22-.1-.31-1.57-1.13-3.13-2.27-4.69-3.4-.2-.15-.27-.29-.2-.47.07-.21.24-.24.44-.24.96,0,1.92,0,2.88,0Zm9.74,9.15s.02-.02.03-.03c-.02-.06-.04-.13-.06-.19-.5-1.54-1-3.09-1.5-4.63-.09-.28-.06-.39.16-.55,1.28-.93,2.55-1.86,3.83-2.78.1-.07.19-.15.29-.22,0-.01-.01-.03-.02-.04-.07,0-.14,0-.21,0-1.62,0-3.24,0-4.86,0-.29,0-.38-.06-.46-.33-.51-1.56-1.01-3.11-1.52-4.67-.02-.06-.04-.11-.08-.21-.04.11-.06.16-.07.21-.5,1.54-1,3.08-1.5,4.61-.12.35-.17.4-.54.4-1.61,0-3.21,0-4.82,0-.07,0-.14,0-.21,0,.05.09.12.14.19.19,1.28.93,2.55,1.86,3.83,2.78.34.25.36.31.23.7-.49,1.51-.98,3.02-1.47,4.54-.02.07-.04.14-.08.26.11-.07.16-.11.21-.15,1.31-.95,2.62-1.9,3.93-2.85.25-.18.37-.18.61,0,.87.63,1.75,1.27,2.62,1.9.49.36.99.72,1.48,1.08Z"/>
  <path class="cls-1" d="m16.36,26.77c0,.28,0,.56,0,.84,0,.24-.14.39-.35.4-.22,0-.37-.15-.37-.4,0-.57,0-1.15,0-1.72,0-.24.15-.39.36-.39.21,0,.36.15.36.39,0,.29,0,.59,0,.88Z"/>
  <path class="cls-1" d="m5.24,15.64c.29,0,.57,0,.86,0,.26,0,.41.15.4.37,0,.22-.15.35-.4.35-.57,0-1.15,0-1.72,0-.24,0-.39-.15-.39-.36,0-.21.15-.36.39-.36.29,0,.57,0,.86,0Z"/>
  <path class="cls-1" d="m26.75,16.36c-.28,0-.56,0-.84,0-.26,0-.41-.14-.41-.36,0-.22.15-.36.41-.36.56,0,1.12,0,1.68,0,.27,0,.43.14.42.37,0,.22-.16.35-.42.35-.28,0-.56,0-.84,0Z"/>
  <path class="cls-1" d="m16.36,5.25c0,.28,0,.56,0,.84,0,.26-.14.41-.36.41-.22,0-.36-.15-.36-.41,0-.56,0-1.12,0-1.68,0-.26.14-.41.35-.42.23,0,.37.15.37.42,0,.28,0,.56,0,.84Z"/>
  <path class="cls-1" d="m22.93,9.42c-.09-.08-.23-.14-.27-.25-.04-.11-.03-.29.04-.37.43-.46.87-.9,1.32-1.33.14-.13.34-.11.47.02.14.13.16.35.02.49-.43.44-.87.88-1.31,1.31-.06.06-.15.07-.27.12Z"/>
  <path class="cls-1" d="m9.42,9.06c-.08.1-.14.24-.24.28-.11.04-.3.03-.38-.04-.45-.42-.89-.86-1.32-1.31-.14-.14-.12-.35.02-.49.13-.13.35-.15.49-.01.44.43.87.86,1.3,1.3.06.06.08.15.13.27Z"/>
  <path class="cls-1" d="m7.72,24.64c-.09-.08-.21-.14-.28-.23-.09-.12-.07-.28.03-.39.44-.45.88-.89,1.33-1.33.13-.13.35-.1.47.02.13.13.15.35.02.49-.43.44-.87.88-1.31,1.31-.06.06-.15.07-.26.12Z"/>
  <path class="cls-1" d="m24.64,24.28c-.08.09-.15.23-.25.27-.1.04-.29.03-.36-.04-.46-.43-.9-.87-1.33-1.32-.13-.13-.1-.34.02-.47.13-.13.35-.16.49-.02.44.43.88.87,1.31,1.31.06.06.07.15.13.27Z"/>
  <path class="cls-1" d="m16.36,23.58c0,.19,0,.39,0,.58,0,.24-.15.4-.35.4-.21,0-.37-.16-.37-.41,0-.41,0-.81,0-1.22,0-.24.15-.39.36-.39.21,0,.36.15.36.39,0,.21,0,.43,0,.64Z"/>
  <path class="cls-1" d="m11.51,11.15c-.07.09-.13.21-.23.28-.12.09-.28.07-.39-.03-.33-.32-.66-.64-.97-.97-.13-.14-.11-.36.03-.49.13-.12.34-.14.47,0,.33.31.65.64.96.96.06.06.07.15.13.26Z"/>
  <path class="cls-1" d="m22.21,10.17c-.07.12-.11.23-.18.3-.29.3-.58.59-.87.88-.16.16-.37.17-.52.03-.16-.15-.16-.36.01-.53.29-.3.59-.6.89-.89.12-.12.27-.17.42-.07.1.07.17.19.26.29Z"/>
  <path class="cls-1" d="m8.41,19.49c-.17,0-.29-.08-.33-.25-.04-.17,0-.33.17-.41.43-.19.86-.37,1.29-.53.17-.06.31.02.4.18.08.15.05.38-.1.44-.45.2-.91.38-1.36.57-.02,0-.04,0-.07,0Z"/>
  <path class="cls-1" d="m23.56,19.53c-.48-.21-.96-.41-1.43-.64-.15-.08-.15-.28-.06-.43.09-.15.23-.22.39-.16.43.17.86.35,1.29.53.17.08.21.24.16.41-.04.17-.17.25-.36.29Z"/>
  <path class="cls-1" d="m7.28,12.2c-.04.27-.25.45-.48.37-.31-.11-.62-.24-.92-.38-.17-.08-.22-.29-.14-.45.07-.16.25-.26.43-.19.3.11.61.23.9.38.1.05.15.18.22.27Z"/>
  <path class="cls-1" d="m19.79,7.29c-.27-.05-.44-.26-.36-.48.11-.31.24-.62.38-.92.08-.17.28-.22.45-.15.17.07.26.25.2.43-.11.31-.23.61-.38.9-.05.1-.19.16-.29.23Z"/>
  <path class="cls-1" d="m24.71,19.81c.04-.27.24-.45.47-.37.32.1.63.24.94.38.17.08.22.29.14.45-.07.16-.25.25-.43.19-.3-.11-.6-.23-.88-.37-.1-.05-.16-.18-.24-.28Z"/>
  <path class="cls-1" d="m12.21,24.71c.27.05.43.26.35.49-.11.31-.24.62-.38.92-.08.17-.28.22-.45.15-.17-.07-.26-.25-.19-.43.11-.3.23-.61.38-.9.05-.1.19-.15.29-.23Z"/>
  <path class="cls-1" d="m19.81,24.71c.09.08.23.14.28.24.14.28.25.57.36.86.07.19-.01.37-.18.45-.18.08-.38.01-.47-.18-.13-.28-.25-.56-.35-.85-.09-.26.07-.49.36-.53Z"/>
  <path class="cls-1" d="m26.33,11.93c-.08.09-.15.22-.25.27-.27.13-.55.24-.82.35-.21.08-.41-.01-.48-.19-.07-.19.01-.38.22-.47.27-.12.54-.23.81-.33.26-.1.5.08.53.38Z"/>
  <path class="cls-1" d="m7.28,19.82c-.08.09-.14.22-.23.26-.28.14-.57.25-.86.36-.2.07-.39-.02-.46-.2-.07-.18,0-.37.18-.45.28-.13.57-.25.87-.36.26-.09.48.09.5.38Z"/>
  <path class="cls-1" d="m12.18,7.29c-.1-.09-.23-.16-.28-.26-.13-.27-.24-.55-.35-.83-.08-.2,0-.39.19-.47.19-.08.38,0,.48.2.12.27.24.54.34.81.1.27-.06.5-.37.55Z"/>
</svg>