<?xml version="1.0" encoding="utf-8"?>
<!-- Generator: Adobe Illustrator 27.4.1, SVG Export Plug-In . SVG Version: 6.00 Build 0)  -->
<svg version="1.1" id="_Слой_1" xmlns="http://www.w3.org/2000/svg" xmlns:xlink="http://www.w3.org/1999/xlink" x="0px"
	 y="0px" viewBox="0 0 32 32" style="enable-background:new 0 0 32 32;" xml:space="preserve">
<style type="text/css">
	.st0{fill:url(#SVGID_1_);}
	.st1{fill:url(#SVGID_00000171704037771565611390000006986925092936433332_);}
</style>
<linearGradient id="SVGID_1_" gradientUnits="userSpaceOnUse" x1="8.205" y1="20.2108" x2="25.0173" y2="20.2108">
	<stop  offset="0" style="stop-color:#6366F1"/>
	<stop  offset="1" style="stop-color:#8B5CF6"/>
</linearGradient>
<path class="st0" d="M16.6,11.8c2.5,0,5.1,0,7.6,0c0.7,0,0.9,0.2,0.8,0.9c-0.4,4.8-0.7,9.5-1.1,14.3c-0.1,0.8-0.7,1.5-1.6,1.6
	c-0.1,0-0.3,0-0.4,0c-3.5,0-7,0-10.5,0c-0.4,0-0.9-0.1-1.2-0.3c-0.5-0.2-0.8-0.7-0.8-1.3c-0.2-2.7-0.4-5.3-0.6-8c-0.1-2-0.3-4-0.5-6
	c-0.1-0.9-0.1-1.2,1.1-1.2C11.7,11.8,14.2,11.8,16.6,11.8z M16,20.5c0,1.6,0,3.3,0,4.9c0,0.1,0,0.3,0,0.4c0.1,0.3,0.3,0.4,0.6,0.4
	c0.3,0,0.5-0.2,0.5-0.4c0-0.1,0-0.3,0-0.4c0-3.2,0-6.5,0-9.7c0-0.1,0-0.3,0-0.4c-0.1-0.4-0.7-0.6-1-0.2c-0.1,0.1-0.2,0.4-0.2,0.6
	C16,17.2,16,18.9,16,20.5L16,20.5z M13.9,20.6L13.9,20.6c0-0.7-0.1-1.4-0.1-2.1c-0.1-1-0.1-2.1-0.2-3.1c0-0.4-0.3-0.6-0.6-0.6
	c-0.4,0-0.6,0.3-0.6,0.7c0,0.2,0,0.3,0,0.5c0.1,1.9,0.2,3.9,0.3,5.8c0.1,1.2,0.1,2.5,0.2,3.7c0,0.2,0.1,0.5,0.2,0.6
	c0.1,0.1,0.4,0.1,0.6,0.1c0.3-0.1,0.4-0.4,0.4-0.6C14.1,23.9,14,22.2,13.9,20.6L13.9,20.6z M20.5,20.5L20.5,20.5
	c0-0.8,0.1-1.6,0.1-2.5c0-0.9,0.1-1.7,0.1-2.5c0-0.3-0.1-0.5-0.4-0.6c-0.3-0.1-0.5,0-0.7,0.2c-0.1,0.1-0.1,0.3-0.1,0.5
	c-0.2,3.3-0.4,6.6-0.6,9.9c0,0.5,0.2,0.7,0.5,0.8c0.4,0,0.6-0.2,0.6-0.7C20.3,23.9,20.4,22.2,20.5,20.5L20.5,20.5z"/>
<linearGradient id="SVGID_00000114071801409760307100000000683505364437820323_" gradientUnits="userSpaceOnUse" x1="6.962" y1="7.34" x2="24.6241" y2="7.34">
	<stop  offset="0" style="stop-color:#6366F1"/>
	<stop  offset="1" style="stop-color:#8B5CF6"/>
</linearGradient>
<path style="fill:url(#SVGID_00000114071801409760307100000000683505364437820323_);" d="M11.8,7.2c-0.1-0.2-0.1-0.4-0.2-0.6
	c-0.2-0.9,0.3-1.8,1.2-2.1c1.2-0.3,2.4-0.7,3.6-1c1-0.2,1.9,0.3,2.1,1.3c0.1,0.2,0.1,0.4,0.2,0.6c0.8-0.2,1.5-0.4,2.3-0.6
	c0.4-0.1,0.8-0.2,1.2-0.3c1-0.2,1.9,0.3,2.2,1.3c0.3,1.1,0.3,1.2-0.8,1.5c-5.1,1.4-10.1,2.7-15.2,4.1c-1,0.3-1.2,0.2-1.4-0.8
	c-0.3-1.1,0.3-2,1.4-2.3c1-0.3,2-0.5,3-0.8C11.5,7.2,11.6,7.2,11.8,7.2L11.8,7.2z M13,6.9c1.6-0.4,3.1-0.8,4.6-1.2
	c-0.1-0.2-0.1-0.4-0.2-0.6c-0.1-0.3-0.4-0.5-0.7-0.4c-1.1,0.3-2.3,0.6-3.4,0.9c-0.4,0.1-0.5,0.4-0.4,0.7C12.9,6.5,12.9,6.6,13,6.9z"
	/>
</svg>
