<?xml version="1.0" encoding="UTF-8"?>
<svg id="_Слой_1" data-name="Слой 1" xmlns="http://www.w3.org/2000/svg" viewBox="0 0 32 32">
  <defs>
    <style>
      .cls-1 {
        fill: #666;
      }
    </style>
  </defs>
  <path class="cls-1" d="m16.6,11.79c2.53,0,5.05,0,7.58,0,.68,0,.88.22.83.9-.36,4.76-.72,9.52-1.08,14.29-.06.83-.73,1.5-1.61,1.63-.14.02-.27.02-.41.02-3.51,0-7.03.01-10.54-.01-.42,0-.86-.14-1.24-.32-.5-.25-.79-.72-.83-1.31-.2-2.66-.4-5.31-.61-7.97-.15-2.01-.3-4.03-.46-6.04-.07-.88-.07-1.21,1.07-1.19,2.43.02,4.87,0,7.3,0Zm-.6,8.71c0,1.63,0,3.26,0,4.89,0,.14,0,.28.04.41.08.29.29.44.59.42.29-.01.47-.17.54-.44.03-.13.04-.27.04-.41,0-3.23,0-6.47,0-9.7,0-.15,0-.3-.05-.44-.13-.44-.7-.57-.98-.22-.12.15-.17.38-.17.57-.01,1.64,0,3.28,0,4.92Zm-2.1.07s0,0,0,0c-.04-.69-.08-1.37-.12-2.06-.06-1.03-.12-2.06-.19-3.09-.03-.38-.27-.61-.61-.61-.35,0-.58.27-.57.67,0,.16.01.32.02.48.11,1.94.22,3.87.34,5.81.07,1.24.14,2.47.23,3.71.01.2.08.47.23.58.15.12.43.15.62.1.29-.08.36-.35.35-.64-.1-1.65-.19-3.3-.29-4.95Zm6.61-.08s0,0,0,0c.05-.82.1-1.65.15-2.47.05-.85.1-1.69.14-2.54.01-.29-.11-.52-.39-.62-.26-.1-.52-.03-.67.2-.09.14-.13.34-.14.52-.2,3.3-.39,6.6-.58,9.89-.03.47.18.74.55.76.39.02.61-.21.64-.68.1-1.68.2-3.37.3-5.05Z"/>
  <path class="cls-1" d="m11.79,7.15c-.06-.22-.11-.43-.16-.64-.2-.94.3-1.84,1.22-2.11,1.2-.35,2.41-.68,3.62-.98.95-.24,1.86.33,2.14,1.27.06.18.11.37.17.59.77-.21,1.52-.41,2.27-.61.41-.11.82-.23,1.23-.32.99-.23,1.88.3,2.17,1.27.33,1.08.26,1.2-.82,1.49-5.06,1.36-10.13,2.71-15.19,4.07-1.02.27-1.16.2-1.41-.82-.27-1.08.28-2,1.37-2.29,1.01-.27,2.02-.54,3.02-.81.11-.03.22-.07.35-.11Zm1.19-.3c1.56-.42,3.08-.83,4.63-1.24-.06-.23-.1-.42-.17-.6-.12-.33-.39-.48-.74-.39-1.15.3-2.3.61-3.45.93-.36.1-.51.37-.43.74.04.18.1.35.16.56Z"/>
</svg>