<?xml version="1.0" encoding="utf-8"?>
<!-- Generator: Adobe Illustrator 27.4.1, SVG Export Plug-In . SVG Version: 6.00 Build 0)  -->
<svg version="1.1" id="_Слой_1" xmlns="http://www.w3.org/2000/svg" xmlns:xlink="http://www.w3.org/1999/xlink" x="0px"
	 y="0px" viewBox="0 0 32 32" style="enable-background:new 0 0 32 32;" xml:space="preserve">
<style type="text/css">
	.st0{fill:#878787;}
</style>
<path class="st0" d="M7.3,21.8c-0.2-0.1-0.5-0.3-0.7-0.4c-1.3-0.9-2.4-1.9-3.3-3.2c-0.9-1.4-1.3-2.9-1.3-4.6
	c0.1-1.4,0.5-2.6,1.3-3.8C4.3,8.4,5.5,7.3,7,6.4c1.6-1,3.4-1.6,5.2-2C14,4.1,15.8,4,17.6,4.1c2.4,0.2,4.7,0.8,6.9,2
	c1.6,0.9,3,2,4,3.4c0.8,1.1,1.3,2.4,1.4,3.8c0.1,1.6-0.2,3.2-1.1,4.6c-0.9,1.6-2.2,2.8-3.8,3.7c-1.7,1-3.5,1.7-5.5,2
	c-1.5,0.3-3.1,0.4-4.6,0.3c-0.4,0-0.7-0.1-1-0.1c-0.1,0-0.1,0-0.2,0.1c-2.1,1.8-4.4,3-7,3.7c-0.6,0.1-1.2,0.2-1.8,0.4
	c-0.5,0.1-0.8-0.3-0.8-0.7c0-0.2,0.1-0.4,0.2-0.6c0.3-0.4,0.6-0.7,0.9-1c0.9-0.9,1.5-2,1.9-3.1C7.2,22.2,7.2,22,7.3,21.8L7.3,21.8z
	 M8.2,25C8.2,25,8.2,25,8.2,25c0.9-0.4,1.6-0.8,2.4-1.2c0.9-0.6,1.7-1.2,2.4-1.9c0,0,0.1-0.1,0.2-0.1c0.6,0,1.2,0.1,1.8,0.2
	c1.8,0.1,3.6-0.1,5.4-0.5c1.6-0.5,3.1-1.1,4.5-2.1c1-0.7,1.8-1.6,2.4-2.7c0.6-1.1,0.8-2.2,0.6-3.4c-0.1-1-0.6-1.9-1.2-2.7
	c-0.9-1.2-2.1-2.1-3.5-2.8c-1.9-1-3.9-1.5-6-1.6c-1.4-0.1-2.9,0-4.3,0.3C11.1,6.7,9.5,7.2,8,8.2C6.8,8.9,5.8,9.8,5,10.9
	c-1.2,1.8-1.3,3.8-0.3,5.7c0.6,1.1,1.4,2,2.4,2.7c0.7,0.5,1.4,0.9,2.2,1.3c0.1,0.1,0.3,0.1,0.3,0.2c0,0.1,0,0.2-0.1,0.4
	c-0.2,0.7-0.4,1.4-0.6,2.1C8.7,23.8,8.5,24.4,8.2,25L8.2,25z"/>
<g>
	<circle class="st0" cx="11.4" cy="16.6" r="1.2"/>
	<circle class="st0" cx="15.7" cy="16.6" r="1.2"/>
	<circle class="st0" cx="20" cy="16.6" r="1.2"/>
</g>
</svg>
